{
.appVersion = "3151";
.formatVersion = 3;
axes = (
{
name = Italic;
tag = ital;
}
);
date = "2024-03-01 04:54:17 +0000";
familyName = "Hoyt Script";
fontMaster = (
{
axesValues = (
0
);
customParameters = (
{
name = "Master Icon Glyph Name";
value = R;
}
);
id = m002;
metricValues = (
{
pos = 800;
},
{
pos = 700;
},
{
pos = 100;
},
{
},
{
pos = -200;
},
{
}
);
name = Regular;
},
{
axesValues = (
100
);
customParameters = (
{
name = "Master Icon Glyph Name";
value = R;
}
);
id = "CB2CB756-3A2A-4C94-93F3-FAA7C1CB72DF";
metricValues = (
{
pos = 800;
},
{
pos = 700;
},
{
pos = 100;
},
{
},
{
pos = -200;
},
{
}
);
name = Italic;
}
);
glyphs = (
{
glyphname = A;
lastChange = "2024-03-16 02:16:35 +0000";
layers = (
{
layerId = "CB2CB756-3A2A-4C94-93F3-FAA7C1CB72DF";
shapes = (
{
closed = 1;
nodes = (
(604,-3,o),
(487,-3,o),
(419,-3,c),
(379,-3,o),
(361,14,o),
(353,43,c),
(351,53,o),
(357,75,o),
(343,72,cs),
(303,64,o),
(212,17,o),
(152,3,c),
(-329,-109,o),
(99,572,o),
(530,690,c),
(685,733,o),
(830,693,o),
(829,601,c),
(828,588,o),
(814,531,o),
(802,523,c),
(788,512,o),
(768,497,o),
(748,481,c),
(740,478,o),
(743,488,o),
(749,494,c),
(919,649,o),
(669,738,o),
(454,648,cs),
(74,489,o),
(-45,-9,o),
(321,82,c),
(341,87,o),
(358,96,o),
(368,117,c),
(412,209,o),
(640,531,o),
(675,481,c),
(682,473,o),
(676,455,o),
(670,441,c),
(661,420,o),
(617,340,o),
(579,291,c),
(576,291,o),
(575,291,o),
(571,291,c),
(661,440,l),
(689,485,o),
(672,487,o),
(644,464,cs),
(536,378,o),
(477,89,o),
(607,34,c),
(633,18,o),
(724,22,o),
(678,-1,c)
);
}
);
width = 769;
},
{
layerId = m002;
shapes = (
{
closed = 1;
nodes = (
(769,-3,o),
(652,-3,o),
(584,-3,c),
(544,-3,o),
(516,14,o),
(490,43,c),
(481,53,o),
(474,75,o),
(461,72,cs),
(426,64,o),
(365,17,o),
(314,3,c),
(-97,-109,o),
(-95,572,o),
(262,690,c),
(390,733,o),
(560,693,o),
(617,601,c),
(624,588,o),
(646,531,o),
(639,523,c),
(631,512,o),
(621,497,o),
(611,481,c),
(605,478,o),
(601,488,o),
(604,494,c),
(677,649,o),
(371,738,o),
(212,648,cs),
(-68,489,o),
(124,-9,o),
(433,82,c),
(450,87,o),
(461,96,o),
(458,117,c),
(445,209,o),
(472,531,o),
(538,481,c),
(550,473,o),
(555,455,o),
(558,441,c),
(562,420,o),
(568,340,o),
(561,291,c),
(558,291,o),
(557,291,o),
(553,291,c),
(549,440,l),
(549,485,o),
(531,487,o),
(517,464,cs),
(463,378,o),
(585,89,o),
(749,34,c),
(785,18,o),
(874,22,o),
(842,-1,c)
);
}
);
width = 729;
}
);
unicode = 65;
},
{
glyphname = B;
lastChange = "2024-03-16 02:33:21 +0000";
layers = (
{
layerId = "CB2CB756-3A2A-4C94-93F3-FAA7C1CB72DF";
shapes = (
{
closed = 1;
nodes = (
(283,306,o),
(374,310,o),
(405,339,c),
(367,337,o),
(310,335,o),
(266,334,c)
);
},
{
closed = 1;
nodes = (
(463,19,o),
(410,2,o),
(361,2,c),
(256,1,o),
(32,0,o),
(23,0,c),
(9,0,o),
(-7,-23,o),
(-16,-37,c),
(-60,-37,l),
(-6,29,o),
(-99,48,o),
(-4,85,c),
(22,94,o),
(40,110,o),
(55,134,c),
(367,603,l),
(372,610,o),
(380,619,o),
(388,626,c),
(397,626,l),
(69,102,l),
(245,48,o),
(94,91,o),
(269,36,c),
(305,23,o),
(348,43,o),
(396,74,c),
(634,233,o),
(339,455,o),
(262,342,c),
(251,407,o),
(479,432,o),
(562,408,c),
(615,457,o),
(635,512,o),
(623,545,c),
(583,658,o),
(356,713,o),
(249,565,c),
(236,544,o),
(231,529,o),
(234,511,c),
(234,508,o),
(232,506,o),
(231,504,c),
(229,503,o),
(227,502,o),
(225,501,c),
(214,529,o),
(226,500,o),
(215,528,c),
(214,545,o),
(280,612,o),
(310,632,c),
(490,746,o),
(912,731,o),
(728,507,c),
(685,462,o),
(634,436,o),
(578,414,c),
(564,407,o),
(568,406,o),
(567,406,c),
(624,369,o),
(659,318,o),
(615,226,c),
(582,160,o),
(418,74,o),
(341,30,c),
(362,22,o),
(424,28,o),
(454,33,c),
(469,35,o),
(504,46,o),
(504,46,c),
(504,46,o),
(517,45,o),
(512,43,c)
);
}
);
width = 713;
},
{
layerId = m002;
shapes = (
{
closed = 1;
nodes = (
(198,306,o),
(287,310,o),
(300,339,c),
(263,337,o),
(207,335,o),
(164,334,c)
);
},
{
closed = 1;
nodes = (
(558,19,o),
(515,2,o),
(466,2,c),
(362,1,o),
(138,0,o),
(129,0,c),
(115,0,o),
(114,-23,o),
(114,-37,c),
(70,-37,l),
(82,29,o),
(-23,48,o),
(49,85,c),
(70,94,o),
(78,110,o),
(78,134,c),
(97,603,l),
(97,610,o),
(100,619,o),
(103,626,c),
(112,626,l),
(112,102,l),
(321,48,o),
(144,91,o),
(353,36,c),
(397,23,o),
(428,43,o),
(456,74,c),
(595,233,o),
(161,455,o),
(155,342,c),
(103,407,o),
(315,432,o),
(413,408,c),
(436,457,o),
(421,512,o),
(389,545,c),
(278,658,o),
(17,713,o),
(2,565,c),
(2,544,o),
(7,529,o),
(21,511,c),
(23,508,o),
(22,506,o),
(22,504,c),
(21,503,o),
(20,502,o),
(18,501,c),
(-10,529,o),
(20,500,o),
(-9,528,c),
(-20,545,o),
(4,612,o),
(21,632,c),
(130,746,o),
(562,731,o),
(518,507,c),
(503,462,o),
(468,436,o),
(426,414,c),
(416,407,o),
(421,406,o),
(420,406,c),
(500,369,o),
(567,318,o),
(580,226,c),
(588,160,o),
(478,74,o),
(429,30,c),
(455,22,o),
(513,28,o),
(540,33,c),
(554,35,o),
(582,46,o),
(582,46,c),
(582,46,o),
(595,45,o),
(592,43,c)
);
}
);
width = 592;
}
);
unicode = 66;
},
{
glyphname = C;
lastChange = "2024-03-16 01:01:59 +0000";
layers = (
{
layerId = "CB2CB756-3A2A-4C94-93F3-FAA7C1CB72DF";
shapes = (
{
closed = 1;
nodes = (
(495,16,o),
(756,139,o),
(718,279,c),
(689,404,o),
(349,418,o),
(282,254,c),
(267,213,o),
(287,197,o),
(312,185,c),
(385,145,o),
(610,193,o),
(610,193,c),
(610,193,o),
(646,213,o),
(634,213,cs),
(519,213,o),
(468,206,o),
(383,258,cs),
(369,266,o),
(348,291,o),
(371,319,c),
(442,410,o),
(803,349,o),
(673,174,c),
(550,20,o),
(243,49,o),
(189,174,c),
(108,359,o),
(470,797,o),
(385,588,cs),
(356,516,o),
(205,279,o),
(216,282,c),
(228,302,o),
(243,325,o),
(255,344,c),
(302,425,o),
(445,629,o),
(423,686,c),
(413,716,o),
(324,618,o),
(296,585,c),
(5,219,o),
(-65,-31,o),
(318,2,c)
);
},
{
closed = 1;
nodes = (
(-117,-39,o),
(-114,-39,o),
(-111,-37,c),
(-80,-11,o),
(-7,59,o),
(-7,59,c),
(0,75,o),
(8,83,o),
(2,83,c),
(-42,39,o),
(-80,-1,o),
(-120,-39,c)
);
}
);
width = 722;
},
{
layerId = m002;
shapes = (
{
closed = 1;
nodes = (
(616,16,o),
(801,139,o),
(675,279,c),
(568,404,o),
(219,418,o),
(255,254,c),
(265,213,o),
(295,197,o),
(328,185,c),
(426,145,o),
(621,193,o),
(621,193,c),
(621,193,o),
(644,213,o),
(632,213,cs),
(517,213,o),
(471,206,o),
(353,258,cs),
(334,266,o),
(298,291,o),
(303,319,c),
(317,410,o),
(716,349,o),
(696,174,c),
(669,20,o),
(344,49,o),
(212,174,c),
(15,359,o),
(103,797,o),
(149,588,cs),
(165,516,o),
(162,279,o),
(171,282,c),
(171,302,o),
(171,325,o),
(171,344,c),
(168,425,o),
(183,629,o),
(126,686,c),
(97,716,o),
(69,618,o),
(62,585,c),
(0,219,o),
(86,-31,o),
(448,2,c)
);
},
{
closed = 1;
nodes = (
(39,-39,o),
(42,-39,o),
(44,-37,c),
(58,-11,o),
(88,59,o),
(88,59,c),
(85,75,o),
(88,83,o),
(82,83,c),
(65,39,o),
(52,-1,o),
(36,-39,c)
);
}
);
width = 717;
}
);
unicode = 67;
},
{
glyphname = D;
lastChange = "2024-03-16 01:04:59 +0000";
layers = (
{
layerId = "CB2CB756-3A2A-4C94-93F3-FAA7C1CB72DF";
shapes = (
{
closed = 1;
nodes = (
(-35,-32,o),
(15,8,c),
(90,73,o),
(116,144,o),
(128,118,c),
(171,-70,o),
(366,-51,o),
(435,-24,c),
(493,2,o),
(530,110,o),
(538,149,c),
(564,299,o),
(535,425,o),
(536,596,cs),
(537,614,o),
(636,612,o),
(689,633,c),
(697,636,o),
(711,646,o),
(706,648,cs),
(648,675,o),
(556,633,o),
(532,700,c),
(501,762,o),
(375,725,o),
(382,656,c),
(390,633,o),
(401,620,o),
(384,592,c),
(318,479,o),
(151,192,o),
(123,168,c),
(76,134,o),
(-16,99,o),
(-71,54,cs),
(-123,12,o),
(91,153,o),
(93,120,cs),
(95,101,o),
(-39,-63,o),
(-105,-13,c),
(-110,-10,o),
(-114,-3,o),
(-118,-9,c),
(-135,-89,o)
);
},
{
closed = 1;
nodes = (
(405,49,o),
(384,85,c),
(358,130,o),
(324,150,o),
(253,162,cs),
(212,169,o),
(157,162,o),
(169,182,c),
(424,599,l),
(475,603,o),
(503,612,o),
(505,571,c),
(514,448,o),
(556,194,o),
(470,29,c),
(449,-15,o)
);
}
);
width = 707;
},
{
layerId = m002;
shapes = (
{
closed = 1;
nodes = (
(37,-32,o),
(62,8,c),
(97,73,o),
(78,144,o),
(107,118,c),
(267,-70,o),
(450,-51,o),
(502,-24,c),
(544,2,o),
(514,110,o),
(497,149,c),
(430,299,o),
(322,425,o),
(216,596,cs),
(206,614,o),
(306,612,o),
(346,633,c),
(352,636,o),
(360,646,o),
(353,648,cs),
(279,675,o),
(213,633,o),
(147,700,c),
(77,762,o),
(-26,725,o),
(24,656,c),
(47,633,o),
(66,620,o),
(66,592,c),
(71,479,o),
(83,192,o),
(70,168,c),
(45,134,o),
(-25,99,o),
(-52,54,cs),
(-78,12,o),
(48,153,o),
(70,120,cs),
(84,101,o),
(53,-63,o),
(-44,-13,c),
(-51,-10,o),
(-60,-3,o),
(-60,-9,c),
(-27,-89,o)
);
},
{
closed = 1;
nodes = (
(427,49,o),
(383,85,c),
(329,130,o),
(283,150,o),
(204,162,cs),
(159,169,o),
(108,162,o),
(108,182,c),
(102,599,l),
(151,603,o),
(173,612,o),
(201,571,c),
(286,448,o),
(487,194,o),
(504,29,c),
(511,-15,o)
);
}
);
width = 523;
}
);
unicode = 68;
},
{
glyphname = E;
lastChange = "2024-03-16 01:08:39 +0000";
layers = (
{
layerId = "CB2CB756-3A2A-4C94-93F3-FAA7C1CB72DF";
shapes = (
{
closed = 1;
nodes = (
(474,657,o),
(518,673,c),
(560,684,o),
(477,716,o),
(406,688,c),
(361,671,o)
);
},
{
closed = 1;
nodes = (
(532,370,o),
(382,393,c),
(353,398,o),
(320,401,o),
(277,382,c),
(155,314,o),
(314,181,o),
(399,137,c),
(455,111,o)
);
},
{
closed = 1;
nodes = (
(225,505,o),
(218,511,c),
(206,524,o),
(205,544,o),
(213,569,c),
(221,594,o),
(261,652,o),
(285,667,c),
(298,675,o),
(520,748,o),
(547,677,cs),
(559,645,o),
(438,607,o),
(389,607,c),
(344,605,o),
(316,621,o),
(282,633,cs),
(258,641,o),
(190,525,o),
(246,514,c),
(260,510,o),
(301,519,o),
(293,502,c),
(286,490,o),
(270,487,o),
(260,485,c),
(73,462,o),
(10,108,o),
(162,53,cs),
(241,24,o),
(392,83,o),
(375,85,c),
(160,128,o),
(39,118,o),
(218,362,c),
(268,434,o),
(494,452,o),
(492,279,c),
(491,238,o),
(485,197,o),
(442,145,c),
(433,134,o),
(428,125,o),
(431,121,c),
(437,114,o),
(512,114,o),
(521,112,c),
(538,112,o),
(543,87,o),
(532,88,c),
(515,88,l),
(409,86,l),
(394,86,o),
(377,66,o),
(357,56,cs),
(194,-27,o),
(-115,-62,o),
(-52,159,c),
(-30,226,o),
(44,381,o),
(216,487,c),
(232,497,o)
);
}
);
width = 548;
},
{
layerId = m002;
shapes = (
{
closed = 1;
nodes = (
(232,657,o),
(266,673,c),
(301,684,o),
(198,716,o),
(144,688,c),
(110,671,o)
);
},
{
closed = 1;
nodes = (
(469,370,o),
(305,393,c),
(273,398,o),
(238,401,o),
(207,382,c),
(127,314,o),
(369,181,o),
(482,137,c),
(554,111,o)
);
},
{
closed = 1;
nodes = (
(78,505,o),
(67,511,c),
(47,524,o),
(33,544,o),
(26,569,c),
(18,594,o),
(22,652,o),
(37,667,cs),
(45,675,o),
(221,748,o),
(292,677,cs),
(324,645,o),
(227,607,o),
(178,607,c),
(134,605,o),
(96,621,o),
(55,633,cs),
(26,641,o),
(30,525,o),
(93,514,c),
(110,510,o),
(145,519,o),
(148,502,c),
(148,490,o),
(134,487,o),
(125,485,c),
(-47,462,o),
(111,108,o),
(297,53,cs),
(394,24,o),
(509,83,o),
(490,85,c),
(248,128,o),
(134,118,o),
(160,362,c),
(165,434,o),
(380,452,o),
(486,279,c),
(511,238,o),
(530,197,o),
(520,145,c),
(518,134,o),
(518,125,o),
(524,121,c),
(534,114,o),
(609,114,o),
(619,112,c),
(636,112,o),
(657,87,o),
(645,88,c),
(628,88,l),
(524,86,l),
(509,86,o),
(504,66,o),
(490,56,cs),
(379,-27,o),
(92,-62,o),
(17,159,c),
(-3,226,o),
(-26,381,o),
(80,487,c),
(90,497,o)
);
}
);
width = 649;
}
);
unicode = 69;
},
{
glyphname = F;
lastChange = "2024-03-16 02:14:12 +0000";
layers = (
{
layerId = "CB2CB756-3A2A-4C94-93F3-FAA7C1CB72DF";
shapes = (
{
closed = 1;
nodes = (
(123,-222,o),
(380,87,c),
(420,138,o),
(499,267,o),
(507,268,cs),
(666,286,ls),
(692,289,o),
(739,338,o),
(726,338,c),
(549,338,l),
(591,406,o),
(621,453,o),
(659,515,c),
(624,514,o),
(599,506,o),
(585,499,c),
(579,495,o),
(515,383,o),
(487,338,c),
(455,338,o),
(424,338,o),
(394,337,c),
(354,336,o),
(351,326,o),
(334,302,c),
(305,258,o),
(402,271,o),
(437,267,c),
(440,266,o),
(441,263,o),
(441,260,c),
(397,183,o),
(357,103,o),
(291,33,c),
(269,8,o),
(235,-17,o),
(204,-34,c),
(67,-110,o),
(-99,-106,o),
(-99,3,c),
(-98,23,o),
(-49,102,o),
(2,65,c),
(30,38,o),
(54,11,o),
(98,8,cs),
(149,5,o),
(195,13,o),
(247,22,c),
(252,23,o),
(264,34,o),
(266,38,cs),
(269,42,o),
(248,51,o),
(241,57,cs),
(216,78,o),
(213,94,o),
(198,121,c),
(146,192,o),
(65,175,o),
(-48,90,c),
(-287,-85,o)
);
},
{
closed = 1;
nodes = (
(323,390,o),
(336,408,o),
(554,502,c),
(573,518,o),
(550,513,o),
(456,471,c),
(361,429,o),
(211,363,o),
(176,375,cs),
(150,383,o),
(159,354,o),
(210,364,cs)
);
},
{
closed = 1;
nodes = (
(181,408,o),
(245,446,o),
(257,450,c),
(358,502,o),
(458,552,o),
(557,598,c),
(614,626,o),
(633,624,o),
(646,591,c),
(663,551,o),
(749,493,o),
(946,597,c),
(964,609,o),
(956,618,o),
(956,618,cs),
(862,682,o),
(836,734,o),
(730,693,c),
(571,624,o),
(406,544,o),
(247,459,c),
(236,453,o),
(200,426,o),
(190,417,cs)
);
}
);
width = 838;
},
{
layerId = m002;
shapes = (
{
closed = 1;
nodes = (
(287,-222,o),
(351,87,c),
(359,138,o),
(358,267,o),
(365,268,cs),
(513,286,ls),
(537,289,o),
(553,338,o),
(540,338,c),
(363,338,l),
(363,406,o),
(363,453,o),
(363,515,c),
(328,514,o),
(308,506,o),
(299,499,c),
(295,495,o),
(301,383,o),
(301,338,c),
(269,338,o),
(238,338,o),
(209,337,c),
(169,336,o),
(173,326,o),
(171,302,c),
(169,258,o),
(258,271,o),
(296,267,c),
(299,266,o),
(302,263,o),
(304,260,c),
(308,183,o),
(318,103,o),
(296,33,c),
(289,8,o),
(271,-17,o),
(251,-34,c),
(161,-110,o),
(-7,-106,o),
(-75,3,c),
(-87,23,o),
(-87,102,o),
(-13,65,c),
(32,38,o),
(73,11,o),
(118,8,cs),
(171,5,o),
(212,13,o),
(259,22,c),
(263,23,o),
(268,34,o),
(268,38,cs),
(268,42,o),
(242,51,o),
(231,57,cs),
(193,78,o),
(180,94,o),
(148,121,c),
(51,192,o),
(-19,175,o),
(-79,90,c),
(-208,-85,o)
);
},
{
closed = 1;
nodes = (
(105,390,o),
(106,408,o),
(266,502,c),
(275,518,o),
(255,513,o),
(187,471,c),
(118,429,o),
(10,363,o),
(-33,375,cs),
(-64,383,o),
(-37,354,o),
(8,364,cs)
);
},
{
closed = 1;
nodes = (
(-49,408,o),
(-8,446,o),
(1,450,c),
(70,502,o),
(138,552,o),
(209,598,c),
(248,626,o),
(268,624,o),
(302,591,c),
(344,551,o),
(466,493,o),
(598,597,c),
(609,609,o),
(595,618,o),
(595,618,cs),
(461,682,o),
(403,734,o),
(322,693,c),
(206,624,o),
(91,544,o),
(-14,459,c),
(-22,453,o),
(-41,426,o),
(-45,417,cs)
);
}
);
width = 578;
}
);
unicode = 70;
},
{
glyphname = G;
lastChange = "2024-03-16 01:14:06 +0000";
layers = (
{
layerId = "CB2CB756-3A2A-4C94-93F3-FAA7C1CB72DF";
shapes = (
{
closed = 1;
nodes = (
(111,128,o),
(97,139,c),
(53,168,o),
(330,640,o),
(424,656,cs),
(441,658,o),
(396,560,o),
(382,537,c),
(332,439,o)
);
},
{
closed = 1;
nodes = (
(108,-340,o),
(271,-57,o),
(348,71,c),
(360,91,o),
(342,86,o),
(336,82,c),
(271,49,o),
(47,22,o),
(130,146,c),
(223,275,o),
(419,530,o),
(450,648,c),
(452,659,o),
(454,676,o),
(444,680,c),
(362,696,o),
(-81,128,o),
(-61,39,cs),
(-54,13,o),
(-11,8,o),
(-16,0,cs),
(-27,-17,o),
(-142,-119,o),
(-237,-194,c),
(-245,-202,o),
(-233,-200,o),
(-227,-200,c),
(-182,-171,o),
(3,-3,o),
(17,-3,cs),
(198,-3,o),
(210,8,o),
(290,44,cs),
(299,47,o),
(298,44,o),
(295,39,c),
(208,-88,o),
(121,-217,o),
(33,-345,c),
(28,-353,o),
(90,-355,o),
(102,-345,c)
);
}
);
width = 392;
},
{
layerId = m002;
shapes = (
{
closed = 1;
nodes = (
(177,128,o),
(157,139,c),
(94,168,o),
(76,640,o),
(160,656,cs),
(176,658,o),
(192,560,o),
(193,537,c),
(204,439,o)
);
},
{
closed = 1;
nodes = (
(467,-340,o),
(453,-57,o),
(450,71,c),
(450,91,o),
(435,86,o),
(431,82,c),
(387,49,o),
(180,22,o),
(185,146,c),
(198,275,o),
(234,530,o),
(191,648,c),
(187,659,o),
(178,676,o),
(165,680,c),
(73,696,o),
(-15,128,o),
(61,39,cs),
(84,13,o),
(130,8,o),
(130,0,cs),
(130,-17,o),
(79,-119,o),
(31,-194,c),
(28,-202,o),
(38,-200,o),
(44,-200,c),
(71,-171,o),
(151,-3,o),
(165,-3,cs),
(346,-3,o),
(351,8,o),
(409,44,cs),
(416,47,o),
(417,44,o),
(417,39,c),
(409,-88,o),
(403,-217,o),
(395,-345,c),
(395,-353,o),
(458,-355,o),
(464,-345,c)
);
}
);
width = 428;
}
);
unicode = 71;
},
{
glyphname = H;
lastChange = "2024-03-16 02:46:55 +0000";
layers = (
{
layerId = "CB2CB756-3A2A-4C94-93F3-FAA7C1CB72DF";
shapes = (
{
closed = 1;
nodes = (
(-60,15,o),
(-63,3,o),
(-55,-3,c),
(-48,-8,o),
(-36,-6,o),
(-24,-2,c),
(1,5,o),
(27,20,o),
(52,35,c),
(165,105,o),
(273,203,o),
(335,302,c),
(354,332,o),
(388,359,o),
(404,346,c),
(413,338,o),
(384,301,o),
(375,288,c),
(296,173,o),
(284,93,o),
(318,46,c),
(363,-16,o),
(487,-22,o),
(639,19,c),
(706,37,o),
(763,77,o),
(803,86,c),
(826,90,o),
(842,82,o),
(865,88,c),
(873,93,o),
(862,93,o),
(846,97,c),
(823,103,o),
(838,135,o),
(849,163,c),
(868,209,o),
(869,251,o),
(858,285,c),
(833,356,o),
(722,437,o),
(607,377,c),
(531,336,o),
(497,260,o),
(508,208,c),
(525,119,o),
(627,93,o),
(742,93,c),
(754,93,o),
(781,97,o),
(777,91,c),
(767,75,o),
(650,40,o),
(599,40,c),
(519,40,o),
(471,86,o),
(447,139,c),
(423,194,o),
(416,276,o),
(478,362,c),
(513,412,o),
(576,447,o),
(627,486,c),
(670,519,o),
(711,553,o),
(749,590,c),
(777,617,o),
(836,676,o),
(822,700,c),
(818,707,o),
(807,708,o),
(789,702,c),
(741,685,o),
(691,646,o),
(650,611,c),
(585,554,o),
(532,492,o),
(481,429,c),
(464,409,o),
(448,391,o),
(424,377,c),
(419,374,o),
(373,350,o),
(380,363,c),
(435,459,o),
(486,534,o),
(549,632,c),
(568,662,o),
(587,694,o),
(555,679,c),
(401,612,o),
(442,710,o),
(297,683,c),
(230,667,o),
(211,624,o),
(242,599,c),
(274,572,o),
(337,582,o),
(399,601,c),
(432,611,o),
(465,623,o),
(498,637,c),
(520,646,o),
(560,666,o),
(537,631,c),
(479,542,o),
(419,454,o),
(356,366,c),
(336,337,o),
(312,321,o),
(280,301,c),
(218,264,o),
(154,227,o),
(97,183,c),
(58,154,o),
(21,121,o),
(-10,86,c),
(-22,72,o),
(-42,49,o),
(-52,29,c)
);
},
{
closed = 1;
nodes = (
(231,186,o),
(146,110,o),
(54,54,c),
(33,41,o),
(-20,10,o),
(-24,32,c),
(-28,51,o),
(11,90,o),
(29,109,c),
(113,192,o),
(364,369,o),
(292,264,c)
);
},
{
closed = 1;
nodes = (
(773,107,o),
(713,123,o),
(680,146,c),
(607,198,o),
(571,312,o),
(596,353,c),
(628,404,o),
(769,380,o),
(824,298,c),
(843,269,o),
(860,224,o),
(845,181,c),
(837,161,o),
(822,142,o),
(799,125,c)
);
},
{
closed = 1;
nodes = (
(533,445,o),
(538,465,o),
(556,489,c),
(591,537,o),
(684,626,o),
(740,660,c),
(768,677,o),
(786,681,o),
(786,661,c),
(784,617,o),
(627,493,o),
(571,464,c)
);
}
);
width = 868;
},
{
layerId = m002;
shapes = (
{
closed = 1;
nodes = (
(41,15,o),
(46,3,o),
(57,-3,c),
(67,-8,o),
(78,-6,o),
(88,-2,c),
(108,5,o),
(125,20,o),
(141,35,c),
(210,105,o),
(257,203,o),
(257,302,c),
(257,332,o),
(274,359,o),
(298,346,c),
(312,338,o),
(306,301,o),
(305,288,c),
(298,173,o),
(336,93,o),
(400,46,c),
(483,-16,o),
(611,-22,o),
(738,19,c),
(793,37,o),
(825,77,o),
(860,86,c),
(880,90,o),
(901,82,o),
(920,88,c),
(925,93,o),
(914,93,o),
(896,97,c),
(869,103,o),
(864,135,o),
(858,163,c),
(848,209,o),
(823,251,o),
(790,285,c),
(721,356,o),
(559,437,o),
(482,377,c),
(431,336,o),
(445,260,o),
(488,208,c),
(561,119,o),
(679,93,o),
(794,93,c),
(806,93,o),
(831,97,o),
(831,91,c),
(831,75,o),
(735,40,o),
(684,40,c),
(604,40,o),
(528,86,o),
(471,139,c),
(412,194,o),
(354,276,o),
(362,362,c),
(366,412,o),
(407,447,o),
(434,486,c),
(456,519,o),
(476,553,o),
(491,590,c),
(502,617,o),
(524,676,o),
(495,700,c),
(487,707,o),
(475,708,o),
(461,702,c),
(423,685,o),
(398,646,o),
(379,611,c),
(349,554,o),
(335,492,o),
(323,429,c),
(319,409,o),
(314,391,o),
(299,377,c),
(296,374,o),
(265,350,o),
(264,363,c),
(259,459,o),
(263,534,o),
(264,632,c),
(265,662,o),
(264,694,o),
(241,679,c),
(129,612,o),
(109,710,o),
(-19,683,c),
(-76,667,o),
(-69,624,o),
(-22,599,c),
(27,572,o),
(84,582,o),
(134,601,c),
(161,611,o),
(186,623,o),
(210,637,c),
(227,646,o),
(254,666,o),
(253,631,c),
(251,542,o),
(246,454,o),
(238,366,c),
(236,337,o),
(222,321,o),
(202,301,c),
(163,264,o),
(123,227,o),
(93,183,c),
(72,154,o),
(56,121,o),
(47,86,c),
(43,72,o),
(38,49,o),
(40,29,c)
);
},
{
closed = 1;
nodes = (
(225,186,o),
(188,110,o),
(131,54,c),
(118,41,o),
(84,10,o),
(66,32,c),
(51,51,o),
(65,90,o),
(71,109,c),
(103,192,o),
(244,369,o),
(237,264,c)
);
},
{
closed = 1;
nodes = (
(817,107,o),
(747,123,o),
(699,146,c),
(594,198,o),
(486,312,o),
(486,353,c),
(486,404,o),
(642,380,o),
(748,298,c),
(785,269,o),
(830,224,o),
(842,181,c),
(847,161,o),
(844,142,o),
(831,125,c)
);
},
{
closed = 1;
nodes = (
(365,445,o),
(358,465,o),
(361,489,c),
(366,537,o),
(403,626,o),
(438,660,c),
(455,677,o),
(471,681,o),
(483,661,c),
(509,617,o),
(429,493,o),
(391,464,c)
);
}
);
width = 861;
}
);
unicode = 72;
},
{
glyphname = I;
lastChange = "2024-03-16 01:22:11 +0000";
layers = (
{
layerId = "CB2CB756-3A2A-4C94-93F3-FAA7C1CB72DF";
shapes = (
{
closed = 1;
nodes = (
(122,-1,o),
(60,-2,o),
(40,0,c),
(-12,6,o),
(-82,76,o),
(-25,98,c),
(-25,98,o),
(-25,98,o),
(-25,99,c),
(-15,102,o),
(5,111,o),
(12,98,c),
(54,28,o),
(89,29,o),
(132,25,c),
(137,25,o),
(149,22,o),
(143,17,c)
);
},
{
closed = 1;
nodes = (
(376,410,o),
(368,423,o),
(359,457,c),
(331,553,o),
(630,782,o),
(617,676,c),
(614,661,o),
(448,405,o),
(443,398,c),
(439,390,o),
(417,395,o),
(415,396,c)
);
},
{
closed = 1;
nodes = (
(623,362,ls),
(643,362,o),
(640,384,o),
(618,385,c),
(526,385,o),
(500,384,o),
(505,393,c),
(671,661,l),
(726,749,o),
(534,739,o),
(409,604,c),
(321,511,o),
(295,409,o),
(411,382,cs),
(416,381,o),
(427,364,o),
(423,358,c),
(393,310,o),
(255,64,o),
(233,92,c),
(185,145,o),
(156,223,o),
(34,147,cs),
(-18,114,l),
(-125,41,o),
(-13,-75,o),
(138,-3,c),
(156,6,o),
(181,16,o),
(194,16,c),
(376,16,o),
(390,15,o),
(391,22,c),
(392,24,o),
(385,27,o),
(382,27,c),
(325,20,o),
(265,47,o),
(260,67,c),
(256,85,o),
(338,119,o),
(424,261,c),
(447,298,o),
(464,326,o),
(487,360,c)
);
}
);
width = 621;
},
{
layerId = m002;
shapes = (
{
closed = 1;
nodes = (
(224,-1,o),
(163,-2,o),
(141,0,c),
(86,6,o),
(-28,76,o),
(15,98,c),
(15,98,o),
(15,98,o),
(15,99,c),
(23,102,o),
(37,111,o),
(52,98,c),
(138,28,o),
(172,29,o),
(218,25,c),
(223,25,o),
(237,22,o),
(234,17,c)
);
},
{
closed = 1;
nodes = (
(221,410,o),
(205,423,o),
(175,457,c),
(87,553,o),
(243,782,o),
(296,676,c),
(302,661,o),
(296,405,o),
(296,398,c),
(297,390,o),
(272,395,o),
(269,396,c)
);
},
{
closed = 1;
nodes = (
(498,362,ls),
(518,362,o),
(501,384,o),
(479,385,c),
(387,385,o),
(361,384,o),
(361,393,c),
(359,661,l),
(359,749,o),
(174,739,o),
(133,604,c),
(103,511,o),
(141,409,o),
(274,382,cs),
(279,381,o),
(301,364,o),
(301,358,c),
(301,310,o),
(316,64,o),
(277,92,c),
(196,145,o),
(118,223,o),
(44,147,cs),
(12,114,l),
(-49,41,o),
(135,-75,o),
(241,-3,c),
(254,6,o),
(272,16,o),
(285,16,c),
(467,16,o),
(482,15,o),
(479,22,c),
(478,24,o),
(470,27,o),
(467,27,c),
(414,20,o),
(337,47,o),
(320,67,c),
(304,85,o),
(365,119,o),
(362,261,c),
(362,298,o),
(362,326,o),
(363,360,c)
);
}
);
width = 507;
}
);
unicode = 73;
},
{
glyphname = J;
lastChange = "2024-03-16 01:26:23 +0000";
layers = (
{
layerId = "CB2CB756-3A2A-4C94-93F3-FAA7C1CB72DF";
shapes = (
{
closed = 1;
nodes = (
(387,498,o),
(500,662,o),
(495,678,cs),
(490,697,o),
(442,689,o),
(410,669,cs),
(345,630,o),
(247,517,o),
(300,464,c),
(310,456,o),
(321,452,o),
(338,449,c),
(341,449,o),
(354,446,o),
(357,450,c)
);
},
{
closed = 1;
nodes = (
(-61,-102,o),
(-60,-95,o),
(-56,-92,c),
(64,27,o),
(318,384,o),
(345,435,cs),
(345,435,o),
(336,436,o),
(333,436,cs),
(176,441,o),
(317,669,o),
(446,700,cs),
(469,706,o),
(520,702,o),
(527,699,c),
(532,698,o),
(538,696,o),
(535,692,c),
(534,687,o),
(395,461,o),
(388,450,c),
(387,449,o),
(392,449,o),
(393,449,c),
(499,449,ls),
(506,449,o),
(496,440,o),
(486,438,cs),
(460,434,o),
(380,437,o),
(378,435,cs),
(340,373,o),
(47,-92,o),
(1,-102,c),
(-19,-103,o),
(-38,-102,o),
(-58,-102,cs)
);
}
);
width = 536;
},
{
layerId = m002;
shapes = (
{
closed = 1;
nodes = (
(143,498,o),
(154,662,o),
(139,678,cs),
(122,697,o),
(79,689,o),
(59,669,cs),
(19,630,o),
(-9,517,o),
(77,464,c),
(92,456,o),
(106,452,o),
(125,449,c),
(128,449,o),
(143,446,o),
(143,450,c)
);
},
{
closed = 1;
nodes = (
(70,-102,o),
(67,-95,o),
(69,-92,c),
(115,27,o),
(145,384,o),
(141,435,cs),
(141,435,o),
(131,436,o),
(128,436,cs),
(-32,441,o),
(-34,669,o),
(76,700,cs),
(95,706,o),
(149,702,o),
(158,699,c),
(163,698,o),
(170,696,o),
(170,692,c),
(172,687,o),
(174,461,o),
(174,450,c),
(174,449,o),
(179,449,o),
(180,449,c),
(286,449,ls),
(293,449,o),
(288,440,o),
(280,438,cs),
(256,434,o),
(174,437,o),
(174,435,cs),
(174,373,o),
(172,-92,o),
(132,-102,c),
(113,-103,o),
(93,-102,o),
(73,-102,cs)
);
}
);
width = 289;
}
);
unicode = 74;
},
{
glyphname = K;
lastChange = "2024-03-16 02:23:09 +0000";
layers = (
{
layerId = "CB2CB756-3A2A-4C94-93F3-FAA7C1CB72DF";
shapes = (
{
closed = 1;
nodes = (
(149,-8,o),
(259,130,o),
(382,337,c),
(408,381,o),
(447,446,o),
(460,440,cs),
(475,433,o),
(480,416,o),
(460,388,c),
(455,382,o),
(447,368,o),
(451,366,c),
(470,341,o),
(415,254,o),
(393,213,c),
(337,110,o),
(312,4,o),
(414,0,c),
(664,0,l),
(667,5,o),
(670,10,o),
(663,13,c),
(643,16,o),
(622,19,o),
(601,22,c),
(514,34,o),
(487,370,o),
(529,390,c),
(657,455,o),
(844,616,o),
(972,635,c),
(994,641,o),
(1018,657,o),
(1023,675,c),
(1025,731,o),
(844,615,o),
(776,560,c),
(698,500,o),
(618,447,o),
(534,403,c),
(509,390,o),
(505,391,o),
(498,406,c),
(493,418,o),
(488,432,o),
(477,443,c),
(465,452,o),
(465,466,o),
(477,485,c),
(478,487,o),
(479,488,o),
(480,490,c),
(588,669,l),
(522,657,o),
(483,495,o),
(410,450,c),
(385,439,o),
(354,418,o),
(369,404,c),
(418,374,o),
(204,97,o),
(136,57,c),
(-31,-41,o),
(-214,9,o),
(-117,125,c),
(-97,149,o),
(-78,155,o),
(-69,138,c),
(-40,72,o),
(58,108,o),
(146,108,cs),
(149,108,o),
(160,112,o),
(157,114,cs),
(152,119,o),
(101,192,o),
(88,213,c),
(12,322,o),
(-316,0,o),
(-69,-8,c)
);
},
{
closed = 1;
nodes = (
(381,423,o),
(410,441,o),
(428,451,c),
(441,455,o),
(427,437,o),
(414,416,c),
(399,392,o),
(386,408,o),
(385,416,c)
);
},
{
closed = 1;
nodes = (
(445,615,o),
(588,669,c),
(605,697,l),
(605,699,o),
(604,702,o),
(601,700,cs),
(591,694,o),
(540,662,o),
(530,662,c),
(442,652,o),
(325,737,o),
(256,657,c),
(162,541,o)
);
}
);
width = 903;
},
{
layerId = m002;
shapes = (
{
closed = 1;
nodes = (
(338,-8,o),
(362,130,o),
(356,337,c),
(354,381,o),
(353,446,o),
(369,440,cs),
(389,433,o),
(404,416,o),
(402,388,c),
(401,382,o),
(401,368,o),
(407,366,c),
(441,341,o),
(441,254,o),
(444,213,c),
(453,110,o),
(494,4,o),
(598,0,c),
(848,0,l),
(848,5,o),
(848,10,o),
(839,13,c),
(817,16,o),
(795,19,o),
(772,22,c),
(677,34,o),
(440,370,o),
(470,390,c),
(557,455,o),
(643,616,o),
(760,635,c),
(778,641,o),
(792,657,o),
(786,675,c),
(753,731,o),
(644,615,o),
(610,560,c),
(570,500,o),
(523,447,o),
(467,403,c),
(450,390,o),
(445,391,o),
(429,406,c),
(416,418,o),
(402,432,o),
(385,443,c),
(367,452,o),
(358,466,o),
(358,485,c),
(358,487,o),
(358,488,o),
(358,490,c),
(354,669,l),
(296,657,o),
(358,495,o),
(313,450,c),
(295,439,o),
(277,418,o),
(301,404,c),
(369,374,o),
(328,97,o),
(285,57,c),
(179,-41,o),
(-35,9,o),
(-11,125,c),
(-6,149,o),
(10,155,o),
(29,138,c),
(99,72,o),
(175,108,o),
(263,108,cs),
(266,108,o),
(274,112,o),
(270,114,cs),
(262,119,o),
(165,192,o),
(139,213,c),
(-5,322,o),
(-132,0,o),
(120,-8,c)
);
},
{
closed = 1;
nodes = (
(301,423,o),
(319,441,o),
(331,451,c),
(341,455,o),
(338,437,o),
(338,416,c),
(338,392,o),
(315,408,o),
(309,416,c)
);
},
{
closed = 1;
nodes = (
(245,615,o),
(354,669,c),
(354,697,l),
(353,699,o),
(350,702,o),
(348,700,cs),
(342,694,o),
(311,662,o),
(301,662,c),
(219,652,o),
(49,737,o),
(30,657,c),
(8,541,o)
);
}
);
width = 824;
}
);
unicode = 75;
},
{
glyphname = L;
lastChange = "2024-03-16 02:23:14 +0000";
layers = (
{
layerId = "CB2CB756-3A2A-4C94-93F3-FAA7C1CB72DF";
shapes = (
{
closed = 1;
nodes = (
(-74,48,o),
(-113,26,c),
(-182,-9,o),
(-199,61,o),
(-179,94,c),
(-149,141,o),
(-45,151,o),
(-20,120,c),
(-2,103,o)
);
},
{
closed = 1;
nodes = (
(229,43,o),
(257,192,o),
(151,207,c),
(125,211,o),
(77,201,o),
(112,242,c),
(244,396,o),
(521,813,o),
(346,687,c),
(297,653,o),
(92,218,o),
(24,202,cs),
(-16,193,o),
(-46,186,o),
(-82,168,c),
(-251,93,o),
(-203,-6,o),
(-157,-5,c),
(-124,-5,o),
(-43,47,o),
(-10,87,c),
(5,72,o),
(39,21,o),
(65,15,c),
(145,-8,o),
(238,-1,o),
(360,12,c),
(365,28,o),
(373,27,o),
(336,31,c)
);
}
);
width = 438;
},
{
layerId = m002;
shapes = (
{
closed = 1;
nodes = (
(115,48,o),
(90,26,c),
(43,-9,o),
(-18,61,o),
(-18,94,c),
(-18,141,o),
(80,151,o),
(124,120,c),
(153,103,o)
);
},
{
closed = 1;
nodes = (
(422,43,o),
(356,192,o),
(241,207,c),
(213,211,o),
(171,201,o),
(180,242,c),
(216,396,o),
(232,813,o),
(136,687,c),
(108,653,o),
(175,218,o),
(117,202,cs),
(83,193,o),
(57,186,o),
(32,168,c),
(-90,93,o),
(20,-6,o),
(66,-5,c),
(99,-5,o),
(147,47,o),
(155,87,c),
(179,72,o),
(245,21,o),
(275,15,c),
(369,-8,o),
(458,-1,o),
(572,12,c),
(567,28,o),
(576,27,o),
(536,31,c)
);
}
);
width = 572;
}
);
unicode = 76;
},
{
glyphname = M;
lastChange = "2024-03-16 02:22:19 +0000";
layers = (
{
layerId = "CB2CB756-3A2A-4C94-93F3-FAA7C1CB72DF";
shapes = (
{
closed = 1;
nodes = (
(222,343,o),
(285,479,c),
(287,482,o),
(282,483,o),
(280,480,c),
(255,460,o),
(14,153,o),
(-31,66,c),
(-106,-105,o)
);
},
{
closed = 1;
nodes = (
(425,666,cs),
(417,662,l),
(415,660,o),
(414,655,o),
(409,636,c),
(413,634,o),
(413,634,o),
(418,634,c),
(466,666,o),
(514,693,o),
(566,701,c),
(653,713,o),
(569,601,o),
(666,656,c),
(781,721,o),
(847,704,o),
(836,616,c),
(762,365,o),
(501,58,o),
(733,23,c),
(741,22,o),
(775,21,o),
(772,17,cs),
(767,9,l),
(673,-5,ls),
(527,-27,o),
(429,-7,o),
(492,135,c),
(548,256,o),
(869,617,o),
(790,668,c),
(756,690,o),
(626,641,o),
(605,586,cs),
(569,490,o),
(316,59,o),
(221,0,c),
(199,-13,o),
(189,3,o),
(194,17,c),
(230,146,o),
(457,426,o),
(547,550,c),
(576,590,o),
(607,631,o),
(595,665,c),
(571,729,o),
(416,642,o),
(362,552,c),
(216,273,o),
(17,49,o),
(-4,27,cs),
(-28,1,o),
(-47,-8,o),
(-54,0,c),
(-105,54,o),
(212,422,o),
(290,510,cs),
(375,605,o),
(362,637,o),
(359,643,c),
(209,593,o),
(13,532,o),
(116,654,c),
(169,710,o),
(226,691,o),
(263,676,c),
(308,660,o),
(359,656,o),
(431,689,c),
(434,690,o),
(430,669,o)
);
}
);
width = 777;
},
{
layerId = m002;
shapes = (
{
closed = 1;
nodes = (
(143,343,o),
(121,479,c),
(121,482,o),
(116,483,o),
(115,480,c),
(103,460,o),
(54,153,o),
(63,66,c),
(95,-105,o)
);
},
{
closed = 1;
nodes = (
(144,666,cs),
(139,662,l),
(138,660,o),
(140,655,o),
(147,636,c),
(152,634,o),
(152,634,o),
(157,634,c),
(185,666,o),
(216,693,o),
(263,701,c),
(343,713,o),
(329,601,o),
(391,656,c),
(466,721,o),
(543,704,o),
(586,616,c),
(669,365,o),
(600,58,o),
(854,23,c),
(863,22,o),
(897,21,o),
(897,17,cs),
(897,9,l),
(812,-5,ls),
(679,-27,o),
(569,-7,o),
(543,135,c),
(523,256,o),
(619,617,o),
(508,668,c),
(460,690,o),
(361,641,o),
(374,586,cs),
(398,490,o),
(415,59,o),
(356,0,c),
(343,-13,o),
(323,3,o),
(319,17,c),
(274,146,o),
(326,426,o),
(339,550,c),
(343,590,o),
(348,631,o),
(315,665,c),
(251,729,o),
(150,642,o),
(152,552,c),
(181,273,o),
(122,49,o),
(115,27,cs),
(107,1,o),
(93,-8,o),
(81,0,c),
(-3,54,o),
(84,422,o),
(107,510,cs),
(132,605,o),
(99,637,o),
(93,643,c),
(-26,593,o),
(-184,532,o),
(-157,654,c),
(-139,710,o),
(-70,691,o),
(-24,676,c),
(31,660,o),
(84,656,o),
(136,689,c),
(138,690,o),
(147,669,o)
);
}
);
width = 737;
}
);
unicode = 77;
},
{
glyphname = N;
lastChange = "2024-03-16 01:33:39 +0000";
layers = (
{
layerId = "CB2CB756-3A2A-4C94-93F3-FAA7C1CB72DF";
shapes = (
{
closed = 1;
nodes = (
(95,213,o),
(209,358,c),
(271,436,o),
(334,513,o),
(397,590,c),
(421,618,o),
(440,642,o),
(476,657,c),
(507,670,o),
(546,692,o),
(576,700,c),
(643,719,o),
(682,694,o),
(679,649,c),
(679,601,o),
(612,486,o),
(585,434,c),
(519,309,o),
(440,128,o),
(529,51,c),
(554,31,o),
(584,33,o),
(622,34,c),
(625,33,o),
(627,28,o),
(626,25,c),
(626,21,o),
(623,12,o),
(619,11,c),
(613,8,o),
(597,8,o),
(591,8,c),
(521,5,o),
(449,2,o),
(381,0,c),
(325,0,o),
(300,24,o),
(308,74,c),
(312,101,o),
(320,125,o),
(338,153,c),
(374,202,o),
(627,558,o),
(646,606,c),
(690,696,o),
(574,707,o),
(482,643,c),
(447,620,o),
(419,590,o),
(400,561,c),
(370,516,o),
(259,326,o),
(229,276,c),
(183,202,o),
(115,99,o),
(46,27,c),
(36,15,o),
(24,9,o),
(13,8,c),
(1,8,o),
(-2,15,o),
(1,27,c),
(5,51,o)
);
},
{
closed = 1;
nodes = (
(454,677,o),
(434,669,o),
(414,661,c),
(382,649,o),
(351,637,o),
(318,623,c),
(252,596,o),
(127,581,o),
(122,633,c),
(114,687,o),
(219,727,o),
(261,701,c),
(289,687,o),
(332,648,o),
(377,664,c),
(449,688,l),
(457,691,o),
(470,697,o),
(474,692,c),
(476,690,o),
(478,686,o),
(473,684,cs)
);
}
);
width = 679;
},
{
layerId = m002;
shapes = (
{
closed = 1;
nodes = (
(187,213,o),
(211,358,c),
(224,436,o),
(239,513,o),
(254,590,c),
(260,618,o),
(264,642,o),
(291,657,c),
(314,670,o),
(339,692,o),
(364,700,c),
(419,719,o),
(474,694,o),
(499,649,c),
(529,601,o),
(534,486,o),
(539,434,c),
(551,309,o),
(585,128,o),
(723,51,c),
(760,31,o),
(789,33,o),
(826,34,c),
(830,33,o),
(835,28,o),
(836,25,c),
(838,21,o),
(841,12,o),
(838,11,c),
(833,8,o),
(817,8,o),
(811,8,c),
(743,5,o),
(673,2,o),
(606,0,c),
(550,0,o),
(510,24,o),
(487,74,c),
(474,101,o),
(467,125,o),
(468,153,c),
(473,202,o),
(504,558,o),
(493,606,c),
(480,696,o),
(358,707,o),
(306,643,c),
(285,620,o),
(276,590,o),
(275,561,c),
(273,516,o),
(281,326,o),
(282,276,c),
(282,202,o),
(279,99,o),
(255,27,c),
(252,15,o),
(244,9,o),
(233,8,c),
(221,8,o),
(214,15,o),
(210,27,c),
(199,51,o)
);
},
{
closed = 1;
nodes = (
(256,677,o),
(241,669,o),
(226,661,c),
(202,649,o),
(178,637,o),
(154,623,c),
(105,596,o),
(-11,581,o),
(-48,633,c),
(-90,687,o),
(-10,727,o),
(48,701,c),
(85,687,o),
(152,648,o),
(187,664,c),
(244,688,l),
(251,691,o),
(260,697,o),
(267,692,c),
(270,690,o),
(275,686,o),
(271,684,cs)
);
}
);
width = 779;
}
);
unicode = 78;
},
{
glyphname = O;
lastChange = "2024-03-16 02:27:37 +0000";
layers = (
{
layerId = "CB2CB756-3A2A-4C94-93F3-FAA7C1CB72DF";
shapes = (
{
closed = 1;
nodes = (
(191,624,o),
(-373,-146,o),
(236,0,c),
(265,9,o),
(300,20,o),
(331,44,c),
(359,65,o),
(367,65,o),
(387,57,c),
(397,51,o),
(436,24,o),
(438,28,c),
(442,33,o),
(439,38,o),
(438,40,c),
(438,40,o),
(397,84,o),
(396,84,c),
(394,87,o),
(415,104,o),
(445,140,cs),
(674,410,o),
(684,743,o),
(542,700,c),
(372,648,o),
(179,287,o),
(167,206,c),
(168,141,o),
(231,105,o),
(319,75,c),
(327,72,o),
(338,67,o),
(333,59,c),
(327,48,o),
(296,39,o),
(285,38,c),
(-69,-23,o),
(125,565,o),
(475,698,c),
(483,701,o),
(497,711,o),
(488,709,c)
);
},
{
closed = 1;
nodes = (
(373,84,o),
(367,103,o),
(357,115,c),
(289,234,o),
(331,503,o),
(465,637,c),
(704,849,o),
(646,349,o),
(387,94,c)
);
}
);
width = 636;
},
{
layerId = m002;
shapes = (
{
closed = 1;
nodes = (
(-53,624,o),
(-135,-146,o),
(382,0,c),
(406,9,o),
(434,20,o),
(450,44,c),
(465,65,o),
(473,65,o),
(498,57,c),
(512,51,o),
(567,24,o),
(567,28,c),
(568,33,o),
(562,38,o),
(559,40,c),
(559,40,o),
(491,84,o),
(490,84,c),
(486,87,o),
(496,104,o),
(504,140,cs),
(564,410,o),
(366,743,o),
(251,700,c),
(113,648,o),
(146,287,o),
(185,206,c),
(226,141,o),
(312,105,o),
(419,75,c),
(428,72,o),
(443,67,o),
(443,59,c),
(443,48,o),
(418,39,o),
(408,38,c),
(92,-23,o),
(-82,565,o),
(185,698,c),
(191,701,o),
(199,711,o),
(191,709,c)
);
},
{
closed = 1;
nodes = (
(467,84,o),
(449,103,o),
(432,115,c),
(289,234,o),
(163,503,o),
(213,637,c),
(320,849,o),
(574,349,o),
(475,94,c)
);
}
);
width = 567;
}
);
unicode = 79;
},
{
glyphname = P;
lastChange = "2024-03-16 02:27:47 +0000";
layers = (
{
layerId = "CB2CB756-3A2A-4C94-93F3-FAA7C1CB72DF";
shapes = (
{
closed = 1;
nodes = (
(69,195,o),
(6,95,o),
(-52,2,c),
(-98,-3,o),
(-98,-3,o),
(-76,33,c),
(-27,109,o),
(23,187,o),
(75,266,c),
(91,290,o),
(97,310,o),
(93,329,c),
(93,336,o),
(89,342,o),
(87,350,c),
(87,351,o),
(89,353,o),
(93,354,c),
(102,348,o),
(111,342,o),
(122,334,c),
(174,414,l),
(120,389,l),
(118,388,o),
(114,389,o),
(116,393,c),
(126,412,o),
(134,414,o),
(156,426,c),
(193,447,o),
(197,452,o),
(213,475,c),
(234,508,o),
(312,637,o),
(324,641,c),
(333,644,o),
(335,643,o),
(337,641,c),
(340,632,o),
(253,498,o),
(237,465,c),
(251,445,o),
(286,387,o),
(286,359,c),
(285,358,o),
(284,356,o),
(282,354,c),
(259,342,o),
(251,348,o),
(243,356,c),
(234,369,o),
(213,408,o),
(208,416,c),
(149,322,l),
(200,308,o),
(255,293,o),
(326,312,c),
(669,408,o),
(517,842,o),
(209,603,c),
(202,597,o),
(201,592,o),
(197,595,c),
(201,609,o),
(215,619,o),
(229,629,c),
(457,793,o),
(818,704,o),
(640,505,c),
(489,337,o),
(313,248,o),
(129,290,c)
);
},
{
closed = 1;
nodes = (
(152,518,o),
(151,526,o),
(160,540,c),
(165,548,o),
(171,550,o),
(170,548,c),
(165,532,o),
(173,527,o),
(167,516,c),
(166,515,o),
(164,513,o),
(161,513,c)
);
}
);
width = 652;
},
{
layerId = m002;
shapes = (
{
closed = 1;
nodes = (
(125,195,o),
(124,95,o),
(124,2,c),
(81,-3,o),
(81,-3,o),
(81,33,c),
(82,109,o),
(84,187,o),
(86,266,c),
(87,290,o),
(81,310,o),
(65,329,c),
(60,336,o),
(53,342,o),
(46,350,c),
(45,351,o),
(46,353,o),
(49,354,c),
(62,348,o),
(75,342,o),
(91,334,c),
(93,414,l),
(54,389,l),
(53,388,o),
(48,389,o),
(48,393,c),
(46,412,o),
(53,414,o),
(67,426,c),
(91,447,o),
(92,452,o),
(94,475,c),
(94,508,o),
(91,637,o),
(101,641,c),
(108,644,o),
(111,643,o),
(114,641,c),
(122,632,o),
(119,498,o),
(124,465,c),
(150,445,o),
(222,387,o),
(239,359,c),
(239,358,o),
(239,356,o),
(238,354,c),
(223,342,o),
(211,348,o),
(198,356,c),
(181,369,o),
(135,408,o),
(125,416,c),
(125,322,l),
(185,308,o),
(249,293,o),
(308,312,c),
(591,408,o),
(168,842,o),
(10,603,c),
(6,597,o),
(8,592,o),
(3,595,c),
(-2,609,o),
(6,619,o),
(13,629,c),
(139,793,o),
(556,704,o),
(502,505,c),
(456,337,o),
(335,248,o),
(125,290,c)
);
},
{
closed = 1;
nodes = (
(6,518,o),
(0,526,o),
(0,540,c),
(0,548,o),
(5,550,o),
(5,548,c),
(10,532,o),
(21,527,o),
(22,516,c),
(22,515,o),
(21,513,o),
(18,513,c)
);
}
);
width = 507;
}
);
unicode = 80;
},
{
glyphname = Q;
lastChange = "2024-03-16 01:56:04 +0000";
layers = (
{
layerId = "CB2CB756-3A2A-4C94-93F3-FAA7C1CB72DF";
shapes = (
{
closed = 1;
nodes = (
(123,76,o),
(127,92,c),
(115,243,o),
(-180,42,o),
(-73,20,c),
(-28,16,o),
(-16,15,o),
(63,51,cs),
(84,60,o)
);
},
{
closed = 1;
nodes = (
(288,213,o),
(287,210,o),
(292,208,c),
(345,189,o),
(432,3,o),
(519,25,c),
(545,31,o),
(547,25,o),
(544,23,c),
(507,5,ls),
(453,-21,o),
(243,-51,o),
(138,80,c),
(15,3,o),
(-93,-38,o),
(-118,31,cs),
(-146,107,o),
(190,229,o),
(276,214,c),
(547,473,o),
(493,750,o),
(219,606,c),
(133,559,o),
(69,464,o),
(52,413,c),
(49,404,o),
(43,395,o),
(27,391,cs),
(23,391,o),
(94,506,o),
(117,538,c),
(330,837,o),
(986,723,o),
(292,216,cs)
);
}
);
width = 590;
},
{
layerId = m002;
shapes = (
{
closed = 1;
nodes = (
(297,76,o),
(291,92,c),
(185,243,o),
(15,42,o),
(136,20,c),
(183,16,o),
(196,15,o),
(253,51,cs),
(268,60,o)
);
},
{
closed = 1;
nodes = (
(376,213,o),
(377,210,o),
(383,208,c),
(448,189,o),
(652,3,o),
(725,25,c),
(747,31,o),
(753,25,o),
(751,23,c),
(725,5,ls),
(688,-21,o),
(496,-51,o),
(309,80,c),
(235,3,o),
(152,-38,o),
(84,31,cs),
(9,107,o),
(268,229,o),
(364,214,c),
(473,473,o),
(246,750,o),
(62,606,c),
(5,559,o),
(0,464,o),
(15,413,c),
(18,404,o),
(18,395,o),
(4,391,cs),
(0,391,o),
(-1,506,o),
(2,538,c),
(28,837,o),
(756,723,o),
(378,216,cs)
);
}
);
width = 691;
}
);
unicode = 81;
},
{
glyphname = R;
lastChange = "2024-03-16 02:22:44 +0000";
layers = (
{
layerId = "CB2CB756-3A2A-4C94-93F3-FAA7C1CB72DF";
shapes = (
{
closed = 1;
nodes = (
(469,-16,o),
(531,41,c),
(549,56,o),
(523,44,o),
(503,37,c),
(358,-6,o),
(364,189,o),
(370,293,c),
(371,301,o),
(375,308,o),
(382,312,cs),
(393,319,o),
(420,326,o),
(436,334,cs),
(551,391,o),
(632,458,o),
(691,560,cs),
(795,744,o),
(396,725,o),
(257,612,c),
(228,590,o),
(189,554,o),
(189,545,cs),
(189,535,o),
(211,515,o),
(214,519,c),
(214,529,o),
(202,541,o),
(209,552,c),
(223,575,o),
(252,597,o),
(276,612,cs),
(427,705,o),
(556,602,o),
(567,519,cs),
(577,448,o),
(477,338,o),
(387,338,cs),
(359,338,o),
(378,385,o),
(375,410,cs),
(369,451,o),
(322,469,o),
(292,421,c),
(289,417,o),
(286,406,o),
(286,406,c),
(292,415,o),
(305,426,o),
(315,421,cs),
(333,411,o),
(332,372,o),
(312,357,c),
(303,349,o),
(288,368,o),
(287,383,cs),
(287,392,o),
(291,402,o),
(288,402,cs),
(284,402,o),
(273,349,o),
(292,349,c),
(316,334,o),
(241,207,o),
(222,177,c),
(151,73,o),
(195,7,o),
(230,4,cs),
(290,-1,o)
);
},
{
closed = 1;
nodes = (
(-40,4,o),
(-31,4,o),
(-2,15,c),
(195,353,o),
(151,278,o),
(333,601,c),
(338,609,o),
(321,601,o),
(314,590,cs),
(272,522,o),
(-10,83,o),
(-60,15,c)
);
}
);
width = 648;
},
{
layerId = m002;
shapes = (
{
closed = 1;
nodes = (
(595,-16,o),
(622,41,c),
(630,56,o),
(612,44,o),
(596,37,c),
(478,-6,o),
(362,189,o),
(303,293,c),
(299,301,o),
(299,308,o),
(303,312,cs),
(310,319,o),
(333,326,o),
(344,334,cs),
(423,391,o),
(462,458,o),
(457,560,cs),
(447,744,o),
(59,725,o),
(-9,612,c),
(-24,590,o),
(-41,554,o),
(-35,545,cs),
(-29,535,o),
(6,515,o),
(6,519,c),
(0,529,o),
(-20,541,o),
(-20,552,c),
(-20,575,o),
(-5,597,o),
(10,612,cs),
(103,705,o),
(296,602,o),
(359,519,cs),
(413,448,o),
(382,338,o),
(292,338,cs),
(264,338,o),
(254,385,o),
(235,410,cs),
(204,451,o),
(145,469,o),
(145,421,c),
(145,417,o),
(149,406,o),
(149,406,c),
(149,415,o),
(155,426,o),
(168,421,cs),
(193,411,o),
(216,372,o),
(205,357,c),
(201,349,o),
(174,368,o),
(164,383,cs),
(158,392,o),
(156,402,o),
(153,402,cs),
(149,402,o),
(171,349,o),
(190,349,c),
(224,334,o),
(228,207,o),
(228,177,c),
(222,73,o),
(307,7,o),
(344,4,cs),
(407,-1,o)
);
},
{
closed = 1;
nodes = (
(74,4,o),
(83,4,o),
(105,15,c),
(91,353,o),
(94,278,o),
(74,601,c),
(74,609,o),
(62,601,o),
(62,590,cs),
(62,522,o),
(55,83,o),
(47,15,c)
);
}
);
width = 624;
}
);
unicode = 82;
},
{
glyphname = S;
lastChange = "2024-03-16 02:28:06 +0000";
layers = (
{
layerId = "CB2CB756-3A2A-4C94-93F3-FAA7C1CB72DF";
shapes = (
{
closed = 1;
nodes = (
(317,361,o),
(289,332,cs),
(225,269,o),
(164,208,o),
(99,146,cs),
(69,118,o),
(90,132,o),
(112,112,cs),
(133,92,o),
(196,42,o),
(228,94,c),
(245,121,o)
);
},
{
closed = 1;
nodes = (
(-157,-87,ls),
(-156,-84,o),
(-73,-13,o),
(-51,17,c),
(-10,62,o),
(-113,34,o),
(-70,88,c),
(-46,124,o),
(21,136,o),
(44,131,c),
(68,140,o),
(303,344,o),
(316,410,c),
(328,471,o),
(470,676,o),
(458,632,cs),
(453,616,o),
(439,601,o),
(438,581,cs),
(436,561,o),
(434,522,o),
(433,502,c),
(492,553,o),
(583,651,o),
(600,677,c),
(609,692,o),
(579,692,o),
(567,692,cs),
(561,692,o),
(550,700,o),
(559,700,cs),
(600,700,o),
(639,721,o),
(609,672,cs),
(593,647,o),
(471,514,o),
(448,489,c),
(428,465,o),
(431,448,o),
(433,431,c),
(436,322,o),
(393,212,o),
(267,93,c),
(238,65,o),
(206,47,o),
(169,39,c),
(109,28,o),
(56,26,o),
(5,29,c),
(-13,31,o),
(-17,28,o),
(-38,9,c),
(-72,-23,o),
(-162,-101,o),
(-160,-95,cs)
);
}
);
width = 560;
},
{
layerId = m002;
shapes = (
{
closed = 1;
nodes = (
(158,361,o),
(148,332,cs),
(123,269,o),
(100,208,o),
(74,146,cs),
(62,118,o),
(74,132,o),
(108,112,cs),
(142,92,o),
(236,42,o),
(236,94,c),
(236,121,o)
);
},
{
closed = 1;
nodes = (
(-36,-87,ls),
(-37,-84,o),
(2,-13,o),
(5,17,c),
(18,62,o),
(-68,34,o),
(-59,88,c),
(-57,124,o),
(2,136,o),
(29,131,c),
(47,140,o),
(154,344,o),
(126,410,c),
(100,471,o),
(114,676,o),
(129,632,cs),
(134,616,o),
(130,601,o),
(141,581,cs),
(152,561,o),
(174,522,o),
(186,502,c),
(213,553,o),
(243,651,o),
(243,677,c),
(243,692,o),
(213,692,o),
(201,692,cs),
(195,692,o),
(179,700,o),
(188,700,cs),
(229,700,o),
(255,721,o),
(255,672,cs),
(255,647,o),
(216,514,o),
(209,489,c),
(204,465,o),
(217,448,o),
(230,431,c),
(301,322,o),
(327,212,o),
(275,93,c),
(264,65,o),
(243,47,o),
(211,39,c),
(158,28,o),
(106,26,o),
(53,29,c),
(34,31,o),
(32,28,o),
(23,9,c),
(9,-23,o),
(-32,-101,o),
(-34,-95,cs)
);
}
);
width = 338;
}
);
unicode = 83;
},
{
glyphname = T;
lastChange = "2024-03-16 02:55:48 +0000";
layers = (
{
layerId = "CB2CB756-3A2A-4C94-93F3-FAA7C1CB72DF";
shapes = (
{
closed = 1;
nodes = (
(279,543,o),
(571,681,o),
(651,700,c),
(746,726,o),
(738,655,o),
(823,604,c),
(830,594,o),
(823,586,o),
(806,581,c),
(722,544,o),
(550,517,o),
(553,613,c),
(555,645,o),
(455,611,o),
(206,501,c),
(200,499,o),
(194,499,o),
(195,502,c)
);
},
{
closed = 1;
nodes = (
(-101,95,ls),
(-86,-27,o),
(161,0,o),
(249,134,c),
(298,208,o),
(420,405,o),
(467,480,c),
(480,501,o),
(488,506,o),
(504,509,c),
(532,510,o),
(536,506,o),
(521,482,c),
(462,389,o),
(329,153,o),
(228,77,c),
(118,-6,o),
(7,-15,o),
(-72,15,c),
(-105,28,o),
(-127,67,o),
(-118,106,cs),
(-118,108,o),
(-106,125,o),
(-104,119,c)
);
},
{
closed = 1;
nodes = (
(51,92,o),
(16,121,o),
(-9,161,c),
(-13,172,o),
(-25,185,o),
(-54,169,c),
(-92,145,o),
(-94,142,o),
(-85,156,cs),
(-79,165,o),
(26,229,o),
(68,247,cs),
(169,289,o),
(128,152,o),
(196,129,c),
(203,128,o),
(209,118,o),
(205,116,c),
(179,106,o),
(140,98,o),
(120,97,cs)
);
},
{
closed = 1;
nodes = (
(440,509,o),
(84,363,o),
(131,437,c),
(138,448,o),
(147,445,o),
(153,445,c),
(199,443,o),
(251,453,o),
(305,472,c),
(358,490,o),
(494,547,o),
(507,544,cs),
(509,544,o),
(510,539,o),
(508,539,c)
);
}
);
width = 666;
},
{
layerId = m002;
shapes = (
{
closed = 1;
nodes = (
(148,543,o),
(354,681,o),
(422,700,c),
(501,726,o),
(537,655,o),
(654,604,c),
(667,594,o),
(665,586,o),
(651,581,c),
(590,544,o),
(435,517,o),
(378,613,c),
(360,645,o),
(282,611,o),
(101,501,c),
(97,499,o),
(91,499,o),
(90,502,c)
);
},
{
closed = 1;
nodes = (
(48,95,ls),
(139,-27,o),
(369,0,o),
(374,134,c),
(376,208,o),
(375,405,o),
(375,480,c),
(375,501,o),
(380,506,o),
(394,509,c),
(422,510,o),
(428,506,o),
(428,482,c),
(427,389,o),
(442,153,o),
(388,77,c),
(330,-6,o),
(225,-15,o),
(127,15,c),
(86,28,o),
(40,67,o),
(24,106,cs),
(23,108,o),
(24,125,o),
(30,119,c)
);
},
{
closed = 1;
nodes = (
(202,92,o),
(149,121,o),
(99,161,c),
(88,172,o),
(68,185,o),
(49,169,c),
(26,145,o),
(26,142,o),
(26,156,cs),
(26,165,o),
(91,229,o),
(122,247,cs),
(197,289,o),
(241,152,o),
(324,129,c),
(331,128,o),
(344,118,o),
(341,116,c),
(321,106,o),
(287,98,o),
(268,97,cs)
);
},
{
closed = 1;
nodes = (
(330,509,o),
(66,363,o),
(66,437,c),
(66,448,o),
(77,445,o),
(83,445,c),
(131,443,o),
(176,453,o),
(218,472,c),
(260,490,o),
(361,547,o),
(375,544,cs),
(377,544,o),
(382,539,o),
(380,539,c)
);
}
);
width = 563;
}
);
unicode = 84;
},
{
glyphname = U;
lastChange = "2024-03-16 02:03:40 +0000";
layers = (
{
layerId = "CB2CB756-3A2A-4C94-93F3-FAA7C1CB72DF";
shapes = (
{
closed = 1;
nodes = (
(545,328,o),
(658,596,o),
(701,596,c),
(740,600,o),
(616,397,o),
(556,321,c)
);
},
{
closed = 1;
nodes = (
(536,55,o),
(516,175,o),
(548,281,c),
(553,295,o),
(556,304,o),
(556,310,c),
(561,316,o),
(595,353,o),
(643,429,c),
(742,593,o),
(734,618,o),
(710,620,c),
(681,621,o),
(662,596,o),
(647,577,c),
(586,503,o),
(462,350,o),
(357,123,c),
(354,117,o),
(350,115,o),
(342,111,c),
(58,5,o),
(121,253,o),
(226,498,c),
(242,535,o),
(341,700,o),
(303,700,c),
(291,700,o),
(277,683,o),
(278,672,c),
(268,611,o),
(233,536,o),
(181,470,c),
(-37,187,o),
(-192,-29,o),
(104,2,c),
(267,25,o),
(351,117,o),
(347,65,c),
(343,15,o),
(372,-1,o),
(433,0,c),
(505,1,o),
(572,12,o),
(645,27,c),
(694,37,l),
(701,46,l),
(709,55,o),
(681,47,o),
(643,49,c)
);
}
);
width = 725;
},
{
layerId = m002;
shapes = (
{
closed = 1;
nodes = (
(486,328,o),
(432,596,o),
(475,596,c),
(511,600,o),
(514,397,o),
(502,321,c)
);
},
{
closed = 1;
nodes = (
(648,55,o),
(553,175,o),
(519,281,c),
(515,295,o),
(512,304,o),
(509,310,c),
(510,316,o),
(521,353,o),
(521,429,c),
(518,593,o),
(494,618,o),
(469,620,c),
(439,621,o),
(436,596,o),
(433,577,c),
(418,503,o),
(390,350,o),
(427,123,c),
(427,117,o),
(425,115,o),
(419,111,c),
(201,5,o),
(109,253,o),
(61,498,c),
(54,535,o),
(50,700,o),
(12,700,c),
(0,700,o),
(-3,683,o),
(4,672,c),
(33,611,o),
(44,536,o),
(34,470,c),
(-7,187,o),
(-27,-29,o),
(249,2,c),
(398,25,o),
(424,117,o),
(453,65,c),
(480,15,o),
(519,-1,o),
(579,0,c),
(651,1,o),
(711,12,o),
(775,27,c),
(817,37,l),
(819,46,l),
(821,55,o),
(798,47,o),
(759,49,c)
);
}
);
width = 819;
}
);
unicode = 85;
},
{
glyphname = V;
lastChange = "2024-03-16 02:28:39 +0000";
layers = (
{
layerId = "CB2CB756-3A2A-4C94-93F3-FAA7C1CB72DF";
shapes = (
{
closed = 1;
nodes = (
(430,634,o),
(395,585,o),
(367,531,c),
(324,446,o),
(324,446,o),
(270,328,c),
(270,328,o),
(270,324,o),
(275,326,c),
(371,431,o),
(555,741,o),
(477,678,c)
);
},
{
closed = 1;
nodes = (
(-87,-69,ls),
(-51,-35,o),
(-4,15,o),
(31,52,c),
(42,64,o),
(50,79,o),
(54,90,c),
(93,244,o),
(283,494,o),
(450,674,c),
(487,714,o),
(504,716,o),
(514,685,c),
(518,674,o),
(515,661,o),
(505,646,c),
(440,543,o),
(377,442,o),
(313,340,cs),
(304,326,o),
(291,311,o),
(280,299,c),
(168,177,o),
(320,-13,o),
(489,84,c),
(520,105,o),
(525,137,o),
(526,160,cs),
(525,238,o),
(523,316,o),
(523,394,c),
(515,557,o),
(686,738,o),
(715,705,c),
(721,700,o),
(710,692,o),
(703,685,c),
(514,525,o),
(550,447,o),
(556,303,c),
(558,260,o),
(558,217,o),
(559,174,cs),
(559,161,o),
(556,147,o),
(552,132,c),
(538,94,o),
(504,62,o),
(458,42,c),
(397,17,o),
(338,1,o),
(284,-2,cs),
(212,-6,o),
(111,-9,o),
(71,34,c),
(54,51,o),
(41,45,o),
(11,15,c),
(-16,-14,o),
(-47,-44,o),
(-74,-72,cs),
(-86,-84,o),
(-107,-101,o),
(-120,-101,c)
);
}
);
width = 657;
},
{
layerId = m002;
shapes = (
{
closed = 1;
nodes = (
(30,634,o),
(26,585,o),
(32,531,c),
(42,446,o),
(42,446,o),
(61,328,c),
(61,328,o),
(64,324,o),
(68,326,c),
(98,431,o),
(88,741,o),
(50,678,c)
);
},
{
closed = 1;
nodes = (
(-47,-69,ls),
(-33,-35,o),
(-17,15,o),
(-5,52,c),
(-2,64,o),
(-3,79,o),
(-6,90,c),
(-63,244,o),
(-29,494,o),
(25,674,c),
(37,714,o),
(53,716,o),
(82,685,c),
(93,674,o),
(98,661,o),
(98,646,c),
(97,543,o),
(97,442,o),
(97,340,cs),
(97,326,o),
(93,311,o),
(90,299,c),
(54,177,o),
(325,-13,o),
(433,84,c),
(451,105,o),
(436,137,o),
(422,160,cs),
(373,238,o),
(322,316,o),
(273,394,c),
(163,557,o),
(221,738,o),
(271,705,c),
(280,700,o),
(274,692,o),
(271,685,c),
(182,525,o),
(267,447,o),
(363,303,c),
(392,260,o),
(419,217,o),
(447,174,cs),
(455,161,o),
(461,147,o),
(466,132,c),
(476,94,o),
(462,62,o),
(428,42,c),
(383,17,o),
(334,1,o),
(282,-2,cs),
(212,-6,o),
(113,-9,o),
(46,34,c),
(19,51,o),
(9,45,o),
(-2,15,c),
(-11,-14,o),
(-23,-44,o),
(-33,-72,cs),
(-37,-84,o),
(-47,-101,o),
(-60,-101,c)
);
}
);
width = 445;
}
);
unicode = 86;
},
{
glyphname = W;
lastChange = "2024-03-16 02:08:52 +0000";
layers = (
{
layerId = "CB2CB756-3A2A-4C94-93F3-FAA7C1CB72DF";
shapes = (
{
closed = 1;
nodes = (
(555,280,o),
(718,542,o),
(665,542,cs),
(626,542,o),
(499,272,o),
(530,272,c)
);
},
{
closed = 1;
nodes = (
(227,297,o),
(467,668,o),
(457,680,c),
(456,687,o),
(438,676,o),
(419,646,cs),
(389,598,o),
(199,297,o),
(212,297,c)
);
},
{
closed = 1;
nodes = (
(820,616,o),
(761,349,o),
(754,193,cs),
(752,145,o),
(747,83,o),
(659,41,c),
(569,-8,o),
(397,-25,o),
(349,38,cs),
(339,52,o),
(322,53,o),
(294,39,c),
(261,22,o),
(108,-47,o),
(7,41,cs),
(0,47,o),
(-21,23,o),
(-189,-130,c),
(-202,-141,o),
(-218,-157,o),
(-239,-157,cs),
(-245,-157,o),
(-219,-138,o),
(-210,-130,c),
(-145,-74,o),
(-81,-17,o),
(-16,41,c),
(-2,53,o),
(4,63,o),
(3,73,c),
(-23,220,o),
(538,840,o),
(474,674,cs),
(441,591,o),
(286,363,o),
(215,280,c),
(122,151,o),
(214,47,o),
(270,56,c),
(307,59,o),
(330,80,o),
(341,114,c),
(374,203,o),
(577,561,o),
(674,568,c),
(747,568,o),
(592,315,o),
(530,251,c),
(397,95,o),
(678,-15,o),
(713,121,cs),
(723,158,o),
(728,192,o),
(730,224,cs),
(742,368,o),
(804,617,o),
(996,699,c),
(1008,705,o),
(1041,700,o),
(1023,693,cs)
);
}
);
width = 1004;
},
{
layerId = m002;
shapes = (
{
closed = 1;
nodes = (
(521,280,o),
(521,542,o),
(468,542,cs),
(429,542,o),
(470,272,o),
(501,272,c)
);
},
{
closed = 1;
nodes = (
(183,297,o),
(191,668,o),
(173,680,c),
(168,687,o),
(157,676,o),
(157,646,cs),
(157,598,o),
(155,297,o),
(168,297,cs)
);
},
{
closed = 1;
nodes = (
(576,616,o),
(684,349,o),
(775,193,cs),
(803,145,o),
(837,83,o),
(775,41,c),
(715,-8,o),
(554,-25,o),
(467,38,cs),
(448,52,o),
(430,53,o),
(411,39,c),
(389,22,o),
(279,-47,o),
(123,41,cs),
(112,47,o),
(106,23,o),
(34,-130,c),
(28,-141,o),
(22,-157,o),
(1,-157,cs),
(-5,-157,o),
(9,-138,o),
(13,-130,c),
(43,-74,o),
(71,-17,o),
(100,41,c),
(106,53,o),
(106,63,o),
(99,73,c),
(-19,220,o),
(155,840,o),
(194,674,cs),
(213,591,o),
(201,363,o),
(181,280,c),
(169,151,o),
(326,47,o),
(376,56,c),
(412,59,o),
(421,80,o),
(411,114,c),
(389,203,o),
(368,561,o),
(460,568,c),
(533,568,o),
(537,315,o),
(515,251,c),
(479,95,o),
(829,-15,o),
(779,121,cs),
(766,158,o),
(749,192,o),
(731,224,cs),
(653,368,o),
(560,617,o),
(701,699,c),
(709,705,o),
(745,700,o),
(731,693,cs)
);
}
);
width = 810;
}
);
unicode = 87;
},
{
glyphname = X;
lastChange = "2024-03-16 02:28:45 +0000";
layers = (
{
layerId = "CB2CB756-3A2A-4C94-93F3-FAA7C1CB72DF";
shapes = (
{
closed = 1;
nodes = (
(346,700,o),
(269,464,o),
(265,412,c),
(265,409,o),
(270,408,o),
(275,412,cs),
(317,443,o),
(351,471,o),
(388,501,c),
(461,559,o),
(532,617,o),
(603,674,c),
(649,709,o),
(666,698,o),
(662,695,cs),
(636,673,o),
(601,647,o),
(290,387,cs),
(278,376,o),
(262,358,o),
(263,349,cs),
(264,261,o),
(245,88,o),
(333,44,cs),
(357,32,o),
(414,15,o),
(415,12,cs),
(417,9,o),
(397,0,o),
(392,0,cs),
(309,0,o),
(227,0,o),
(146,0,cs),
(80,0,o),
(62,63,o),
(89,131,c),
(104,168,o),
(152,263,o),
(137,263,cs),
(119,263,o),
(-180,0,o),
(-194,0,cs),
(-217,0,o),
(-246,0,o),
(-239,5,cs),
(-40,160,o),
(36,223,o),
(119,287,cs),
(245,383,o),
(300,608,o),
(213,691,cs),
(211,693,o),
(239,700,o),
(244,700,cs)
);
}
);
width = 603;
},
{
layerId = m002;
shapes = (
{
closed = 1;
nodes = (
(151,700,o),
(221,464,o),
(250,412,c),
(252,409,o),
(257,408,o),
(260,412,cs),
(283,443,o),
(299,471,o),
(317,501,c),
(354,559,o),
(389,617,o),
(424,674,c),
(448,709,o),
(472,698,o),
(470,695,cs),
(458,673,o),
(439,647,o),
(291,387,cs),
(285,376,o),
(281,358,o),
(287,349,cs),
(343,261,o),
(432,88,o),
(548,44,cs),
(579,32,o),
(647,15,o),
(650,12,cs),
(654,9,o),
(639,0,o),
(634,0,cs),
(551,0,o),
(469,0,o),
(388,0,cs),
(322,0,o),
(265,63,o),
(250,131,c),
(241,168,o),
(230,263,o),
(215,263,cs),
(197,263,o),
(62,0,o),
(48,0,cs),
(25,0,o),
(-4,0,o),
(0,5,cs),
(102,160,o),
(139,223,o),
(182,287,cs),
(248,383,o),
(162,608,o),
(24,691,cs),
(20,693,o),
(44,700,o),
(49,700,cs)
);
}
);
width = 651;
}
);
unicode = 88;
},
{
glyphname = Y;
lastChange = "2024-03-16 02:28:49 +0000";
layers = (
{
layerId = "CB2CB756-3A2A-4C94-93F3-FAA7C1CB72DF";
shapes = (
{
closed = 1;
nodes = (
(183,11,o),
(261,171,o),
(346,305,c),
(363,332,o),
(398,347,o),
(397,368,c),
(395,380,o),
(405,396,o),
(413,408,c),
(436,444,o),
(461,484,o),
(486,520,c),
(502,547,o),
(513,542,o),
(496,515,c),
(471,474,o),
(427,406,o),
(394,364,c),
(395,364,o),
(388,351,o),
(394,356,c),
(408,370,o),
(501,490,o),
(524,526,c),
(555,575,o),
(503,569,o),
(469,520,c),
(422,456,o),
(289,271,o),
(264,252,cs),
(126,144,o),
(-8,224,o),
(115,435,cs),
(157,507,o),
(327,701,o),
(263,715,cs),
(243,720,o),
(217,698,o),
(237,689,c),
(308,666,o),
(15,359,o),
(-37,279,c),
(-131,142,o),
(90,110,o),
(246,224,cs),
(272,244,o),
(261,233,o),
(246,209,c),
(56,-91,l),
(43,-121,o),
(78,-157,o),
(98,-125,cs)
);
}
);
width = 533;
},
{
layerId = m002;
shapes = (
{
closed = 1;
nodes = (
(328,11,o),
(306,171,o),
(307,305,c),
(307,332,o),
(333,347,o),
(318,368,c),
(309,380,o),
(309,396,o),
(309,408,c),
(310,444,o),
(310,484,o),
(312,520,c),
(312,547,o),
(326,542,o),
(326,515,c),
(326,474,o),
(325,406,o),
(318,364,c),
(319,364,o),
(320,351,o),
(323,356,c),
(328,370,o),
(346,490,o),
(347,526,c),
(347,575,o),
(299,569,o),
(295,520,c),
(288,456,o),
(271,271,o),
(258,252,cs),
(187,144,o),
(3,224,o),
(-5,435,cs),
(-8,507,o),
(40,701,o),
(-32,715,cs),
(-55,720,o),
(-68,698,o),
(-42,689,c),
(43,666,o),
(-58,359,o),
(-60,279,c),
(-68,142,o),
(173,110,o),
(257,224,cs),
(271,244,o),
(267,233,o),
(267,209,c),
(264,-91,l),
(270,-121,o),
(328,-157,o),
(328,-125,cs)
);
}
);
width = 347;
}
);
unicode = 89;
},
{
glyphname = Z;
lastChange = "2024-03-16 02:16:44 +0000";
layers = (
{
layerId = "CB2CB756-3A2A-4C94-93F3-FAA7C1CB72DF";
shapes = (
{
closed = 1;
nodes = (
(38,-24,o),
(-72,28,c),
(-100,45,o),
(-114,-3,o),
(-153,-3,cs),
(-165,-3,o),
(-201,-4,o),
(-200,1,c),
(-203,15,o),
(410,463,o),
(577,582,c),
(596,596,o),
(640,630,o),
(620,623,c),
(520,589,o),
(337,526,o),
(233,591,c),
(194,614,o),
(314,726,o),
(390,697,cs),
(511,650,l),
(577,625,o),
(675,663,o),
(746,690,cs),
(751,692,o),
(754,685,o),
(750,682,cs),
(518,505,o),
(284,325,o),
(47,144,c),
(39,138,o),
(62,142,o),
(69,144,c),
(159,163,o),
(290,77,o),
(305,67,c),
(320,58,o),
(333,45,o),
(353,42,c),
(370,38,o),
(451,49,o),
(439,37,c),
(251,-6,o)
);
}
);
width = 632;
},
{
layerId = m002;
shapes = (
{
closed = 1;
nodes = (
(289,-24,o),
(147,28,c),
(108,45,o),
(124,-3,o),
(85,-3,cs),
(73,-3,o),
(38,-4,o),
(36,1,c),
(24,15,o),
(357,463,o),
(450,582,c),
(460,596,o),
(483,630,o),
(467,623,c),
(388,589,o),
(245,526,o),
(100,591,c),
(47,614,o),
(97,726,o),
(191,697,cs),
(341,650,l),
(423,625,o),
(497,663,o),
(551,690,cs),
(555,692,o),
(562,685,o),
(560,682,cs),
(439,505,o),
(317,325,o),
(193,144,c),
(189,138,o),
(210,142,o),
(215,144,c),
(294,163,o),
(478,77,o),
(500,67,c),
(520,58,o),
(541,45,o),
(563,42,c),
(583,38,o),
(657,49,o),
(652,37,c),
(491,-6,o)
);
}
);
width = 652;
}
);
unicode = 90;
},
{
glyphname = a;
lastChange = "2024-03-16 02:13:52 +0000";
layers = (
{
layerId = "CB2CB756-3A2A-4C94-93F3-FAA7C1CB72DF";
shapes = (
{
closed = 1;
nodes = (
(166,85,o),
(139,100,o),
(98,73,c),
(71,57,o),
(148,52,o),
(162,54,c),
(215,57,o),
(217,57,o),
(262,89,c),
(269,95,o),
(276,94,o),
(279,92,c),
(321,61,o),
(356,32,o),
(426,29,c),
(428,29,o),
(431,28,o),
(433,21,c),
(434,17,o),
(325,3,o),
(288,4,c),
(263,4,o),
(246,17,o),
(224,23,c),
(195,37,o),
(157,29,o),
(111,11,c),
(43,-16,o),
(-56,29,o),
(40,76,c),
(65,88,o),
(89,93,o),
(111,96,cs),
(144,100,o),
(172,97,o),
(202,97,c),
(204,97,o),
(199,91,o),
(198,90,c)
);
}
);
width = 433;
},
{
layerId = m002;
shapes = (
{
closed = 1;
nodes = (
(138,85,o),
(102,100,o),
(78,73,c),
(62,57,o),
(142,52,o),
(155,54,c),
(206,57,o),
(208,57,o),
(232,89,c),
(235,95,o),
(243,94,o),
(247,92,c),
(309,61,o),
(363,32,o),
(435,29,c),
(437,29,o),
(440,28,o),
(447,21,c),
(451,17,o),
(351,3,o),
(313,4,c),
(288,4,o),
(263,17,o),
(237,23,c),
(199,37,o),
(166,29,o),
(131,11,c),
(81,-16,o),
(-47,29,o),
(18,76,c),
(35,88,o),
(56,93,o),
(76,96,cs),
(107,100,o),
(137,97,o),
(167,97,c),
(169,97,o),
(167,91,o),
(167,90,c)
);
}
);
width = 447;
}
);
unicode = 97;
},
{
glyphname = b;
lastChange = "2024-03-15 02:29:23 +0000";
layers = (
{
layerId = "CB2CB756-3A2A-4C94-93F3-FAA7C1CB72DF";
shapes = (
{
closed = 1;
nodes = (
(129,139,o),
(131,139,o),
(131,139,c),
(137,141,o),
(144,150,o),
(148,155,c),
(193,210,o),
(237,266,o),
(265,321,c),
(273,335,o),
(287,373,o),
(287,379,c),
(289,384,o),
(291,392,o),
(287,393,c),
(271,396,o),
(202,289,o),
(195,278,c),
(168,235,o),
(146,195,o),
(128,154,c),
(125,148,o),
(124,139,o),
(129,139,c)
);
},
{
closed = 1;
nodes = (
(-36,-27,o),
(-37,-26,o),
(-34,-24,c),
(-11,-5,o),
(11,15,o),
(30,34,c),
(39,44,o),
(46,53,o),
(50,62,c),
(83,155,o),
(175,309,o),
(267,392,c),
(319,437,o),
(303,368,o),
(289,337,c),
(268,291,o),
(237,246,o),
(197,200,c),
(176,177,o),
(154,144,o),
(143,125,c),
(110,66,o),
(143,10,o),
(238,29,c),
(255,34,o),
(269,42,o),
(275,57,c),
(276,58,o),
(275,58,o),
(275,58,c),
(260,58,o),
(244,57,o),
(230,58,c),
(205,61,o),
(191,71,o),
(202,95,cs),
(205,101,o),
(231,100,o),
(238,100,c),
(269,100,o),
(283,94,o),
(299,77,c),
(309,84,o),
(326,99,o),
(328,100,cs),
(333,103,o),
(324,89,o),
(322,86,c),
(229,-25,o),
(110,-10,o),
(59,23,c),
(42,34,o),
(29,28,o),
(8,3,c),
(1,-8,o),
(-15,-21,o),
(-34,-27,c)
);
}
);
width = 329;
},
{
layerId = m002;
shapes = (
{
closed = 1;
nodes = (
(62,139,o),
(64,139,o),
(64,139,c),
(68,141,o),
(70,150,o),
(71,155,c),
(81,210,o),
(90,266,o),
(84,321,c),
(83,335,o),
(73,373,o),
(70,379,c),
(68,384,o),
(65,392,o),
(61,393,c),
(43,396,o),
(41,289,o),
(41,278,c),
(41,235,o),
(44,195,o),
(51,154,c),
(52,148,o),
(57,139,o),
(62,139,c)
);
},
{
closed = 1;
nodes = (
(0,-27,o),
(-1,-26,o),
(0,-24,c),
(12,-5,o),
(21,15,o),
(28,34,c),
(31,44,o),
(32,53,o),
(31,62,c),
(6,155,o),
(1,309,o),
(41,392,c),
(65,437,o),
(92,368,o),
(98,337,c),
(106,291,o),
(103,246,o),
(91,200,c),
(85,177,o),
(83,144,o),
(84,125,c),
(88,66,o),
(156,10,o),
(239,29,c),
(253,34,o),
(262,42,o),
(259,57,c),
(259,58,o),
(258,58,o),
(258,58,c),
(243,58,o),
(228,57,o),
(213,58,c),
(186,61,o),
(166,71,o),
(162,95,cs),
(161,101,o),
(188,100,o),
(195,100,c),
(226,100,o),
(244,94,o),
(270,77,c),
(276,84,o),
(284,99,o),
(285,100,cs),
(288,103,o),
(288,89,o),
(288,86,c),
(264,-25,o),
(136,-10,o),
(64,23,c),
(40,34,o),
(31,28,o),
(26,3,c),
(25,-8,o),
(18,-21,o),
(2,-27,c)
);
}
);
width = 288;
}
);
unicode = 98;
},
{
glyphname = c;
lastChange = "2024-03-15 02:46:43 +0000";
layers = (
{
layerId = "CB2CB756-3A2A-4C94-93F3-FAA7C1CB72DF";
shapes = (
{
closed = 1;
nodes = (
(50,58,l),
(45,51,o),
(61,50,o),
(67,50,c),
(86,50,o),
(100,46,o),
(112,38,c),
(133,24,o),
(212,27,o),
(216,27,c),
(216,27,o),
(216,27,o),
(215,25,c),
(215,24,o),
(213,22,o),
(213,22,cs),
(209,20,o),
(205,18,o),
(202,18,c),
(172,14,o),
(111,7,o),
(81,0,c),
(35,-10,o),
(-19,6,o),
(7,47,c),
(13,58,o),
(25,68,o),
(41,72,c),
(71,80,o),
(100,89,o),
(130,96,c),
(142,99,o),
(166,101,o),
(165,99,cs),
(166,81,o),
(159,74,o),
(138,71,c),
(116,69,o),
(97,69,o),
(75,68,c),
(70,68,o),
(54,64,o),
(50,58,c)
);
}
);
width = 216;
},
{
layerId = m002;
shapes = (
{
closed = 1;
nodes = (
(60,58,l),
(60,51,o),
(76,50,o),
(82,50,c),
(101,50,o),
(118,46,o),
(135,38,c),
(164,24,o),
(242,27,o),
(246,27,c),
(246,27,o),
(246,27,o),
(246,25,c),
(246,24,o),
(246,22,o),
(246,22,cs),
(243,20,o),
(240,18,o),
(237,18,c),
(210,14,o),
(153,7,o),
(127,0,c),
(88,-10,o),
(24,6,o),
(24,47,c),
(23,58,o),
(29,68,o),
(42,72,c),
(67,80,o),
(91,89,o),
(116,96,c),
(127,99,o),
(149,101,o),
(150,99,cs),
(162,81,o),
(159,74,o),
(140,71,c),
(119,69,o),
(100,69,o),
(79,68,c),
(74,68,o),
(60,64,o),
(60,58,c)
);
}
);
width = 270;
}
);
unicode = 99;
},
{
glyphname = d;
lastChange = "2024-03-16 02:17:39 +0000";
layers = (
{
layerId = "CB2CB756-3A2A-4C94-93F3-FAA7C1CB72DF";
shapes = (
{
closed = 1;
nodes = (
(424,329,o),
(404,311,c),
(387,295,o),
(353,245,o),
(351,239,c),
(347,233,o),
(356,235,o),
(361,239,c),
(372,257,o)
);
},
{
closed = 1;
nodes = (
(70,76,o),
(70,68,o),
(79,60,cs),
(113,36,o),
(143,41,o),
(205,68,c),
(221,74,o),
(226,88,o),
(216,92,c),
(211,94,o),
(204,92,o),
(198,92,c),
(171,90,o),
(100,87,o),
(87,82,cs)
);
},
{
closed = 1;
nodes = (
(394,0,o),
(385,0,c),
(339,0,o),
(294,0,o),
(248,0,c),
(221,2,o),
(200,17,o),
(201,45,c),
(162,31,o),
(128,19,o),
(93,7,c),
(52,-7,o),
(20,-9,o),
(3,15,c),
(-17,41,o),
(54,93,o),
(96,96,c),
(130,98,o),
(166,98,o),
(201,100,c),
(227,100,o),
(225,100,o),
(241,126,c),
(279,181,o),
(369,305,o),
(413,348,c),
(431,364,o),
(442,366,o),
(448,356,c),
(459,338,o),
(388,243,o),
(361,217,c),
(336,192,o),
(310,164,o),
(301,134,c),
(288,84,o),
(287,41,o),
(333,25,c),
(357,19,o),
(376,17,o),
(405,17,c),
(415,17,o)
);
}
);
width = 449;
},
{
layerId = m002;
shapes = (
{
closed = 1;
nodes = (
(239,329,o),
(230,311,c),
(223,295,o),
(220,245,o),
(222,239,c),
(222,233,o),
(230,235,o),
(232,239,c),
(232,257,o)
);
},
{
closed = 1;
nodes = (
(43,76,o),
(48,68,o),
(62,60,cs),
(111,36,o),
(138,41,o),
(183,68,c),
(195,74,o),
(191,88,o),
(179,92,c),
(173,94,o),
(167,92,o),
(161,92,c),
(135,90,o),
(66,87,o),
(56,82,cs)
);
},
{
closed = 1;
nodes = (
(414,0,o),
(405,0,c),
(359,0,o),
(314,0,o),
(268,0,c),
(240,2,o),
(210,17,o),
(193,45,c),
(163,31,o),
(137,19,o),
(109,7,c),
(77,-7,o),
(46,-9,o),
(14,15,c),
(-22,41,o),
(16,93,o),
(56,96,c),
(89,98,o),
(125,98,o),
(159,100,c),
(185,100,o),
(183,100,o),
(183,126,c),
(186,181,o),
(199,305,o),
(216,348,c),
(224,364,o),
(234,366,o),
(246,356,c),
(268,338,o),
(257,243,o),
(246,217,c),
(236,192,o),
(228,164,o),
(238,134,c),
(256,84,o),
(282,41,o),
(338,25,c),
(366,19,o),
(386,17,o),
(415,17,c),
(425,17,o)
);
}
);
width = 419;
}
);
unicode = 100;
},
{
glyphname = e;
lastChange = "2024-03-16 02:17:56 +0000";
layers = (
{
layerId = "CB2CB756-3A2A-4C94-93F3-FAA7C1CB72DF";
shapes = (
{
closed = 1;
nodes = (
(19,105,o),
(24,107,o),
(27,107,cs),
(30,107,o),
(32,107,o),
(33,105,cs),
(35,100,o),
(47,103,o),
(56,105,c),
(66,107,o),
(76,107,o),
(81,100,c),
(85,94,o),
(76,84,o),
(67,81,c),
(59,79,o),
(51,79,o),
(43,79,c),
(9,74,o),
(5,45,o),
(12,40,c),
(17,34,o),
(27,34,o),
(42,44,c),
(71,63,o),
(86,56,o),
(101,49,cs),
(164,23,o),
(186,21,o),
(208,21,cs),
(216,21,o),
(222,21,o),
(228,21,cs),
(229,21,o),
(229,19,o),
(228,17,c),
(228,17,o),
(227,15,o),
(227,15,cs),
(221,13,o),
(212,11,o),
(202,9,c),
(187,7,o),
(169,5,o),
(150,4,cs),
(119,2,o),
(88,0,o),
(60,0,c),
(47,0,o),
(33,0,o),
(27,9,cs),
(26,13,o),
(31,18,o),
(30,21,cs),
(29,24,o),
(26,24,o),
(23,24,c),
(-11,24,o),
(-2,49,o),
(19,77,c),
(22,83,o),
(28,87,o),
(25,91,cs),
(20,102,l)
);
}
);
width = 229;
},
{
layerId = m002;
shapes = (
{
closed = 1;
nodes = (
(-26,105,o),
(-22,107,o),
(-19,107,cs),
(-16,107,o),
(-14,107,o),
(-12,105,cs),
(-7,100,o),
(3,103,o),
(11,105,c),
(20,107,o),
(30,107,o),
(39,100,c),
(47,94,o),
(44,84,o),
(37,81,c),
(30,79,o),
(22,79,o),
(14,79,c),
(-17,74,o),
(-3,45,o),
(7,40,c),
(16,34,o),
(26,34,o),
(35,44,c),
(52,63,o),
(71,56,o),
(91,49,cs),
(170,23,o),
(193,21,o),
(215,21,cs),
(223,21,o),
(229,21,o),
(235,21,cs),
(236,21,o),
(238,19,o),
(238,17,c),
(238,17,o),
(238,15,o),
(238,15,cs),
(233,13,o),
(226,11,o),
(217,9,c),
(203,7,o),
(186,5,o),
(168,4,cs),
(138,2,o),
(108,0,o),
(80,0,c),
(67,0,o),
(53,0,o),
(42,9,cs),
(38,13,o),
(40,18,o),
(37,21,cs),
(34,24,o),
(31,24,o),
(28,24,c),
(-6,24,o),
(-12,49,o),
(-9,77,c),
(-9,83,o),
(-6,87,o),
(-11,91,cs),
(-23,102,l)
);
}
);
width = 238;
}
);
unicode = 101;
},
{
glyphname = f;
lastChange = "2024-03-15 02:29:13 +0000";
layers = (
{
layerId = "CB2CB756-3A2A-4C94-93F3-FAA7C1CB72DF";
shapes = (
{
closed = 1;
nodes = (
(94,11,l),
(96,11,o),
(96,11,o),
(96,8,c),
(126,-37,o),
(125,-129,o),
(103,-206,cs),
(88,-255,o),
(-31,-267,o),
(-57,-229,cs),
(-82,-187,o),
(88,23,o),
(69,70,cs),
(69,73,o),
(77,83,o),
(81,84,cs),
(104,92,o),
(118,108,o),
(129,125,c),
(156,169,o),
(228,283,o),
(260,333,c),
(262,335,o),
(275,350,o),
(281,354,cs),
(288,358,o),
(286,354,o),
(283,350,cs),
(268,325,o),
(147,132,o),
(131,106,cs),
(128,102,o),
(129,101,o),
(129,100,c),
(140,87,o),
(185,52,o),
(204,42,cs),
(218,35,o),
(247,27,o),
(250,23,cs),
(249,17,ls),
(249,11,o),
(157,15,o),
(132,14,c),
(123,15,o),
(120,22,o),
(109,24,c),
(99,25,o),
(91,27,o),
(81,16,cs),
(75,14,o),
(70,7,o),
(69,5,c),
(32,-54,o),
(6,-108,o),
(4,-161,c),
(0,-195,o),
(10,-257,o),
(76,-223,c),
(82,-221,o),
(89,-213,o),
(91,-207,cs),
(107,-125,o),
(96,-48,o),
(87,8,c),
(87,8,o),
(88,11,o),
(89,11,c)
);
}
);
width = 286;
},
{
layerId = m002;
shapes = (
{
closed = 1;
nodes = (
(63,11,l),
(65,11,o),
(65,11,o),
(66,8,c),
(125,-37,o),
(181,-129,o),
(207,-206,cs),
(223,-255,o),
(111,-267,o),
(62,-229,cs),
(10,-187,o),
(49,23,o),
(1,70,cs),
(-1,73,o),
(1,83,o),
(4,84,cs),
(22,92,o),
(26,108,o),
(26,125,c),
(26,169,o),
(27,283,o),
(27,333,c),
(28,335,o),
(32,350,o),
(35,354,cs),
(40,358,o),
(40,354,o),
(40,350,cs),
(40,325,o),
(40,132,o),
(40,106,cs),
(40,102,o),
(41,101,o),
(42,100,c),
(61,87,o),
(128,52,o),
(153,42,cs),
(172,35,o),
(206,27,o),
(211,23,cs),
(214,17,ls),
(218,11,o),
(123,15,o),
(99,14,c),
(89,15,o),
(82,22,o),
(69,24,c),
(59,25,o),
(50,27,o),
(46,16,cs),
(42,14,o),
(41,7,o),
(41,5,c),
(41,-54,o),
(49,-108,o),
(80,-161,c),
(97,-195,o),
(146,-257,o),
(191,-223,c),
(196,-221,o),
(198,-213,o),
(196,-207,cs),
(161,-125,o),
(101,-48,o),
(57,8,c),
(57,8,o),
(57,11,o),
(58,11,c)
);
}
);
width = 214;
}
);
unicode = 102;
},
{
glyphname = g;
lastChange = "2024-03-15 02:27:14 +0000";
layers = (
{
layerId = "CB2CB756-3A2A-4C94-93F3-FAA7C1CB72DF";
shapes = (
{
closed = 1;
nodes = (
(211,57,o),
(169,82,o),
(155,86,c),
(132,94,o),
(108,85,o),
(78,67,c),
(60,55,o),
(57,47,o),
(71,46,c),
(102,44,o),
(135,44,o),
(168,44,cs),
(175,44,o),
(183,45,o),
(191,49,cs)
);
},
{
closed = 1;
nodes = (
(178,36,o),
(112,7,o),
(82,0,c),
(49,-9,o),
(20,-9,o),
(6,8,c),
(-5,20,o),
(-1,33,o),
(23,50,c),
(95,101,o),
(150,114,o),
(193,83,cs),
(203,76,o),
(228,64,o),
(218,48,c),
(173,-28,o),
(77,-191,o),
(74,-196,cs),
(68,-206,o),
(62,-216,o),
(45,-221,c),
(28,-226,o),
(15,-225,o),
(9,-216,cs),
(6,-213,o),
(10,-205,o),
(15,-198,c),
(31,-173,o),
(173,22,o),
(175,28,cs)
);
}
);
width = 220;
},
{
layerId = m002;
shapes = (
{
closed = 1;
nodes = (
(192,57,o),
(134,82,o),
(118,86,c),
(90,94,o),
(71,85,o),
(53,67,c),
(42,55,o),
(44,47,o),
(59,46,c),
(91,44,o),
(124,44,o),
(157,44,cs),
(164,44,o),
(171,45,o),
(177,49,cs)
);
},
{
closed = 1;
nodes = (
(172,36,o),
(124,7,o),
(98,0,c),
(71,-9,o),
(42,-9,o),
(17,8,c),
(-1,20,o),
(-5,33,o),
(8,50,c),
(48,101,o),
(95,114,o),
(158,83,cs),
(172,76,o),
(204,64,o),
(204,48,c),
(207,-28,o),
(213,-191,o),
(213,-196,cs),
(213,-206,o),
(213,-216,o),
(200,-221,c),
(186,-226,o),
(172,-225,o),
(160,-216,cs),
(156,-213,o),
(155,-205,o),
(155,-198,c),
(156,-173,o),
(176,22,o),
(174,28,cs)
);
}
);
width = 213;
}
);
unicode = 103;
},
{
glyphname = h;
lastChange = "2024-03-16 02:31:56 +0000";
layers = (
{
layerId = "CB2CB756-3A2A-4C94-93F3-FAA7C1CB72DF";
shapes = (
{
closed = 1;
nodes = (
(185,159,o),
(185,159,o),
(185,159,c),
(187,159,o),
(196,165,o),
(205,176,cs),
(233,202,o),
(254,230,o),
(274,259,cs),
(302,299,o),
(340,352,o),
(360,391,c),
(360,391,o),
(361,393,o),
(360,391,c),
(368,386,o),
(358,367,o),
(351,357,cs),
(319,310,o),
(287,262,o),
(251,216,c),
(219,176,o),
(178,134,o),
(142,90,cs),
(135,79,o),
(127,67,o),
(120,55,cs),
(119,53,o),
(120,53,o),
(123,53,c),
(176,67,o),
(219,69,o),
(248,48,c),
(266,36,o),
(292,28,o),
(311,17,c),
(317,11,o),
(322,10,o),
(329,7,cs),
(331,6,o),
(330,5,o),
(326,3,cs),
(323,1,o),
(315,-1,o),
(315,-1,cs),
(254,-7,o),
(196,-15,o),
(147,3,cs),
(141,6,o),
(129,29,o),
(123,36,c),
(120,37,o),
(117,36,o),
(115,33,c),
(80,-15,o),
(81,10,o),
(30,1,c),
(28,1,o),
(33,5,o),
(34,7,c),
(40,11,o),
(47,17,o),
(54,22,c),
(77,33,o),
(110,73,o),
(99,79,cs),
(92,83,o),
(97,97,o),
(102,105,cs),
(137,161,o),
(180,216,o),
(222,272,cs),
(240,299,o),
(308,385,o),
(330,401,c),
(348,413,o),
(371,416,o),
(361,401,cs),
(361,401,o),
(361,401,o),
(361,401,c),
(343,401,o),
(308,356,o),
(292,334,cs),
(256,283,o),
(185,173,o),
(183,170,cs),
(179,164,o),
(179,159,o),
(185,159,c)
);
},
{
closed = 1;
nodes = (
(-6,-38,o),
(-18,-49,o),
(-29,-57,c),
(-36,-62,o),
(-40,-49,o),
(-31,-43,c),
(-2,-23,o),
(-2,-23,o),
(9,-16,c),
(14,-16,o),
(12,-23,o),
(5,-30,c)
);
}
);
width = 363;
},
{
layerId = m002;
shapes = (
{
closed = 1;
nodes = (
(91,159,o),
(91,159,o),
(91,159,c),
(93,159,o),
(98,165,o),
(100,176,cs),
(112,202,o),
(116,230,o),
(118,259,cs),
(121,299,o),
(125,352,o),
(121,391,c),
(121,391,o),
(121,393,o),
(121,391,c),
(132,386,o),
(134,367,o),
(133,357,cs),
(131,310,o),
(129,262,o),
(121,216,c),
(114,176,o),
(100,134,o),
(91,90,cs),
(91,79,o),
(91,67,o),
(91,55,cs),
(91,53,o),
(92,53,o),
(95,53,c),
(140,67,o),
(181,69,o),
(223,48,c),
(249,36,o),
(280,28,o),
(306,17,c),
(316,11,o),
(321,10,o),
(330,7,cs),
(333,6,o),
(332,5,o),
(330,3,cs),
(328,1,o),
(321,-1,o),
(321,-1,cs),
(264,-7,o),
(211,-15,o),
(151,3,cs),
(143,6,o),
(116,29,o),
(106,36,c),
(102,37,o),
(100,36,o),
(100,33,c),
(95,-15,o),
(80,10,o),
(35,1,c),
(33,1,o),
(35,5,o),
(35,7,c),
(39,11,o),
(42,17,o),
(46,22,c),
(62,33,o),
(70,73,o),
(55,79,cs),
(46,83,o),
(42,97,o),
(42,105,cs),
(42,161,o),
(50,216,o),
(57,272,cs),
(59,299,o),
(73,385,o),
(85,401,c),
(95,413,o),
(116,416,o),
(116,401,cs),
(116,401,o),
(116,401,o),
(116,401,c),
(98,401,o),
(91,356,o),
(89,334,cs),
(85,283,o),
(82,173,o),
(82,170,cs),
(82,164,o),
(85,159,o),
(91,159,c)
);
},
{
closed = 1;
nodes = (
(23,-38,o),
(18,-49,o),
(12,-57,c),
(8,-62,o),
(-4,-49,o),
(1,-43,c),
(18,-23,o),
(18,-23,o),
(24,-16,c),
(29,-16,o),
(32,-23,o),
(29,-30,c)
);
}
);
width = 332;
}
);
unicode = 104;
},
{
glyphname = i;
lastChange = "2024-03-15 02:43:02 +0000";
layers = (
{
layerId = "CB2CB756-3A2A-4C94-93F3-FAA7C1CB72DF";
shapes = (
{
closed = 1;
nodes = (
(203,-1,o),
(189,0,o),
(185,0,c),
(139,0,o),
(94,0,o),
(47,0,c),
(24,0,o),
(-16,9,o),
(7,42,c),
(34,76,o),
(89,79,o),
(109,63,c),
(136,43,o),
(164,25,o),
(199,12,cs),
(202,11,o),
(202,8,o),
(202,3,c)
);
},
{
closed = 1;
nodes = (
(141,261,o),
(175,304,o),
(187,293,cs),
(195,286,o),
(202,277,o),
(206,268,cs),
(212,255,o),
(165,241,o),
(147,254,c)
);
}
);
width = 231;
},
{
layerId = m002;
shapes = (
{
closed = 1;
nodes = (
(223,-1,o),
(208,0,o),
(204,0,c),
(158,0,o),
(113,0,o),
(66,0,c),
(43,0,o),
(-2,9,o),
(0,42,c),
(6,76,o),
(59,79,o),
(89,63,c),
(129,43,o),
(168,25,o),
(211,12,cs),
(215,11,o),
(216,8,o),
(220,3,c)
);
},
{
closed = 1;
nodes = (
(-3,261,o),
(4,304,o),
(23,293,cs),
(36,286,o),
(48,277,o),
(58,268,cs),
(72,255,o),
(34,241,o),
(8,254,c)
);
}
);
width = 220;
}
);
unicode = 105;
},
{
glyphname = j;
lastChange = "2024-03-15 02:30:03 +0000";
layers = (
{
layerId = "CB2CB756-3A2A-4C94-93F3-FAA7C1CB72DF";
shapes = (
{
closed = 1;
nodes = (
(74,100,o),
(78,101,o),
(68,86,c),
(42,40,o),
(-25,-75,o),
(-53,-121,c),
(-59,-131,o),
(-67,-141,o),
(-73,-150,c),
(-84,-164,o),
(-94,-167,o),
(-109,-167,c),
(-121,-166,o),
(-122,-159,o),
(-119,-149,c),
(-118,-146,o),
(-114,-140,o),
(-110,-136,c),
(-46,-60,o),
(16,35,o),
(57,100,c)
);
},
{
closed = 1;
nodes = (
(156,277,o),
(157,278,o),
(160,278,cs),
(175,278,o),
(188,269,o),
(190,259,cs),
(191,257,o),
(187,252,o),
(185,252,cs),
(174,252,o),
(158,252,o),
(144,252,c),
(141,252,o),
(143,256,o),
(144,258,cs)
);
}
);
width = 70;
},
{
layerId = m002;
shapes = (
{
closed = 1;
nodes = (
(38,100,o),
(41,101,o),
(41,86,c),
(43,40,o),
(48,-75,o),
(49,-121,c),
(49,-131,o),
(48,-141,o),
(47,-150,c),
(45,-164,o),
(37,-167,o),
(22,-167,c),
(9,-166,o),
(4,-159,o),
(1,-149,c),
(0,-146,o),
(0,-140,o),
(1,-136,c),
(18,-60,o),
(21,35,o),
(21,100,c)
);
},
{
closed = 1;
nodes = (
(9,277,o),
(10,278,o),
(13,278,cs),
(28,278,o),
(46,269,o),
(55,259,cs),
(57,257,o),
(56,252,o),
(54,252,cs),
(43,252,o),
(27,252,o),
(13,252,c),
(10,252,o),
(9,256,o),
(9,258,cs)
);
}
);
width = 56;
}
);
unicode = 106;
},
{
glyphname = k;
lastChange = "2024-03-16 02:32:02 +0000";
layers = (
{
layerId = "CB2CB756-3A2A-4C94-93F3-FAA7C1CB72DF";
shapes = (
{
closed = 1;
nodes = (
(146,123,o),
(151,125,o),
(153,127,cs),
(158,131,o),
(263,256,o),
(295,316,cs),
(301,327,o),
(304,334,o),
(303,342,cs),
(303,346,o),
(292,350,o),
(284,347,cs),
(279,345,o),
(275,340,o),
(272,335,c),
(228,267,o),
(148,130,o),
(147,127,cs)
);
},
{
closed = 1;
nodes = (
(36,12,o),
(183,230,o),
(252,332,c),
(270,357,o),
(290,369,o),
(307,363,c),
(326,359,o),
(316,325,o),
(303,304,c),
(267,242,o),
(150,121,o),
(111,59,cs),
(107,52,o),
(142,61,o),
(155,61,c),
(166,61,o),
(180,63,o),
(188,60,cs),
(207,52,o),
(223,40,o),
(240,31,c),
(250,26,o),
(294,19,o),
(299,15,cs),
(300,15,o),
(302,10,o),
(296,10,c),
(284,8,o),
(270,6,o),
(257,4,c),
(219,3,o),
(163,-5,o),
(131,6,c),
(122,6,o),
(126,25,o),
(124,31,c),
(122,42,o),
(108,41,o),
(97,27,c),
(74,1,o),
(55,4,o),
(31,4,c)
);
},
{
closed = 1;
nodes = (
(171,90,o),
(267,129,o),
(301,135,c),
(315,138,o),
(329,125,o),
(321,113,cs),
(316,104,o),
(296,98,o),
(289,99,cs),
(253,102,o),
(217,102,o),
(171,83,cs),
(166,81,o),
(163,82,o),
(157,82,cs),
(154,82,o),
(159,85,o),
(159,85,cs)
);
},
{
closed = 1;
nodes = (
(1,-33,o),
(-16,-49,o),
(-32,-57,cs),
(-35,-58,o),
(-37,-56,o),
(-35,-54,cs),
(-21,-42,o),
(-7,-31,o),
(9,-19,cs),
(10,-18,o),
(9,-22,o),
(9,-22,cs)
);
}
);
width = 323;
},
{
layerId = m002;
shapes = (
{
closed = 1;
nodes = (
(71,123,o),
(74,125,o),
(75,127,cs),
(78,131,o),
(104,256,o),
(99,316,cs),
(98,327,o),
(97,334,o),
(91,342,cs),
(88,346,o),
(75,350,o),
(69,347,cs),
(65,345,o),
(64,340,o),
(64,335,c),
(63,267,o),
(68,130,o),
(69,127,cs)
);
},
{
closed = 1;
nodes = (
(30,12,o),
(41,230,o),
(46,332,c),
(48,357,o),
(61,369,o),
(82,363,c),
(103,359,o),
(114,325,o),
(114,304,c),
(117,242,o),
(76,121,o),
(76,59,cs),
(76,52,o),
(105,61,o),
(118,61,c),
(129,61,o),
(142,63,o),
(152,60,cs),
(176,52,o),
(199,40,o),
(222,31,c),
(235,26,o),
(284,19,o),
(291,15,cs),
(292,15,o),
(297,10,o),
(291,10,c),
(280,8,o),
(268,6,o),
(256,4,c),
(219,3,o),
(168,-5,o),
(129,6,c),
(120,6,o),
(112,25,o),
(106,31,c),
(97,42,o),
(84,41,o),
(82,27,c),
(75,1,o),
(54,4,o),
(30,4,c)
);
},
{
closed = 1;
nodes = (
(116,90,o),
(188,129,o),
(218,135,c),
(230,138,o),
(252,125,o),
(252,113,cs),
(252,104,o),
(236,98,o),
(229,99,cs),
(191,102,o),
(155,102,o),
(121,83,cs),
(117,81,o),
(113,82,o),
(107,82,cs),
(104,82,o),
(107,85,o),
(107,85,cs)
);
},
{
closed = 1;
nodes = (
(23,-33,o),
(16,-49,o),
(5,-57,cs),
(3,-58,o),
(-1,-56,o),
(0,-54,cs),
(7,-42,o),
(14,-31,o),
(22,-19,cs),
(23,-18,o),
(24,-22,o),
(24,-22,cs)
);
}
);
width = 294;
}
);
unicode = 107;
},
{
glyphname = l;
lastChange = "2024-03-15 02:28:01 +0000";
layers = (
{
layerId = "CB2CB756-3A2A-4C94-93F3-FAA7C1CB72DF";
shapes = (
{
closed = 1;
nodes = (
(23,-42,o),
(38,-26,o),
(54,-8,cs),
(61,0,o),
(65,6,o),
(64,13,cs),
(58,38,o),
(66,67,o),
(85,100,c),
(131,183,o),
(189,267,o),
(264,346,cs),
(272,355,o),
(281,364,o),
(295,364,cs),
(302,364,o),
(307,360,o),
(309,352,cs),
(312,344,o),
(307,333,o),
(299,321,c),
(264,264,o),
(227,207,o),
(193,151,c),
(182,133,o),
(183,130,o),
(166,115,c),
(164,113,o),
(162,113,o),
(163,115,c),
(167,123,o),
(169,126,o),
(172,131,c),
(201,177,o),
(232,226,o),
(261,273,c),
(271,289,o),
(280,303,o),
(288,319,cs),
(294,332,o),
(295,348,o),
(281,345,cs),
(275,343,o),
(268,337,o),
(263,332,cs),
(197,259,o),
(142,142,o),
(136,73,cs),
(131,41,o),
(213,15,o),
(248,15,cs),
(251,15,o),
(254,9,o),
(249,7,cs),
(244,5,o),
(232,2,o),
(224,1,cs),
(175,-2,o),
(130,-2,o),
(85,-2,c),
(73,-2,o),
(65,-7,o),
(56,-19,cs),
(52,-24,o),
(16,-56,o),
(3,-63,cs),
(-2,-66,o),
(1,-62,o),
(3,-60,cs)
);
}
);
width = 310;
},
{
layerId = m002;
shapes = (
{
closed = 1;
nodes = (
(29,-42,o),
(34,-26,o),
(38,-8,cs),
(40,0,o),
(41,6,o),
(35,13,cs),
(14,38,o),
(4,67,o),
(2,100,c),
(-4,183,o),
(2,267,o),
(27,346,cs),
(30,355,o),
(33,364,o),
(47,364,cs),
(54,364,o),
(61,360,o),
(68,352,cs),
(76,344,o),
(78,333,o),
(78,321,c),
(78,264,o),
(77,207,o),
(78,151,c),
(78,133,o),
(81,130,o),
(74,115,c),
(73,113,o),
(71,113,o),
(71,115,c),
(70,123,o),
(70,126,o),
(70,131,c),
(70,177,o),
(70,226,o),
(70,273,c),
(70,289,o),
(70,303,o),
(68,319,cs),
(66,332,o),
(57,348,o),
(45,345,cs),
(40,343,o),
(37,337,o),
(35,332,cs),
(15,259,o),
(33,142,o),
(70,73,cs),
(85,41,o),
(183,15,o),
(218,15,cs),
(221,15,o),
(228,9,o),
(224,7,cs),
(220,5,o),
(210,2,o),
(203,1,cs),
(156,-2,o),
(111,-2,o),
(66,-2,c),
(54,-2,o),
(49,-7,o),
(47,-19,cs),
(46,-24,o),
(30,-56,o),
(22,-63,cs),
(19,-66,o),
(19,-62,o),
(20,-60,cs)
);
}
);
width = 225;
}
);
unicode = 108;
},
{
glyphname = m;
lastChange = "2024-03-15 02:24:58 +0000";
layers = (
{
layerId = "CB2CB756-3A2A-4C94-93F3-FAA7C1CB72DF";
shapes = (
{
closed = 1;
nodes = (
(448,19,o),
(426,13,cs),
(362,-2,o),
(304,-6,o),
(259,11,cs),
(249,16,o),
(232,35,o),
(220,38,cs),
(212,40,o),
(201,38,o),
(191,27,cs),
(181,16,o),
(174,15,o),
(162,13,cs),
(115,7,o),
(73,8,o),
(29,8,cs),
(15,8,o),
(0,10,o),
(0,26,c),
(1,69,o),
(59,83,o),
(103,95,cs),
(109,97,o),
(119,95,o),
(122,92,c),
(143,78,o),
(163,62,o),
(184,46,cs),
(190,41,o),
(199,43,o),
(214,49,cs),
(258,65,o),
(303,79,o),
(347,90,cs),
(392,100,o),
(379,40,o),
(441,40,cs),
(463,40,o)
);
},
{
closed = 1;
nodes = (
(472,48,o),
(484,58,o),
(499,65,cs),
(538,83,o),
(568,86,o),
(593,76,c),
(604,72,o),
(613,67,o),
(623,60,cs),
(649,41,o),
(684,30,o),
(727,30,cs),
(736,30,o),
(746,31,o),
(745,22,cs),
(745,15,o),
(742,12,o),
(737,11,cs),
(712,5,o),
(653,0,o),
(631,0,c),
(596,0,o),
(561,0,o),
(527,0,cs),
(513,0,o),
(502,3,o),
(495,11,cs),
(490,20,o),
(482,30,o),
(476,40,cs)
);
}
);
width = 745;
},
{
layerId = m002;
shapes = (
{
closed = 1;
nodes = (
(460,19,o),
(441,13,cs),
(387,-2,o),
(331,-6,o),
(276,11,cs),
(262,16,o),
(234,35,o),
(220,38,cs),
(210,40,o),
(201,38,o),
(198,27,cs),
(194,16,o),
(188,15,o),
(177,13,cs),
(134,7,o),
(91,8,o),
(47,8,cs),
(33,8,o),
(17,10,o),
(7,26,c),
(-19,69,o),
(31,83,o),
(67,95,cs),
(72,97,o),
(83,95,o),
(88,92,c),
(118,78,o),
(148,62,o),
(179,46,cs),
(188,41,o),
(196,43,o),
(207,49,cs),
(241,65,o),
(277,79,o),
(314,90,cs),
(353,100,o),
(377,40,o),
(439,40,cs),
(461,40,o)
);
},
{
closed = 1;
nodes = (
(465,48,o),
(471,58,o),
(482,65,cs),
(510,83,o),
(538,86,o),
(569,76,c),
(582,72,o),
(595,67,o),
(609,60,cs),
(647,41,o),
(689,30,o),
(732,30,cs),
(741,30,o),
(750,31,o),
(755,22,cs),
(759,15,o),
(758,12,o),
(754,11,cs),
(732,5,o),
(676,0,o),
(654,0,c),
(619,0,o),
(584,0,o),
(550,0,cs),
(536,0,o),
(524,3,o),
(512,11,cs),
(501,20,o),
(487,30,o),
(474,40,cs)
);
}
);
width = 758;
}
);
unicode = 109;
},
{
glyphname = n;
lastChange = "2024-03-15 02:28:01 +0000";
layers = (
{
layerId = "CB2CB756-3A2A-4C94-93F3-FAA7C1CB72DF";
shapes = (
{
closed = 1;
nodes = (
(165,2,o),
(160,-2,o),
(71,0,c),
(17,3,o),
(-35,17,o),
(32,64,c),
(72,94,o),
(104,93,o),
(134,80,c),
(174,56,o),
(204,23,o),
(285,68,c),
(340,100,o),
(370,88,o),
(399,73,c),
(446,42,o),
(457,20,o),
(536,31,cs),
(543,32,o),
(549,34,o),
(550,33,c),
(551,32,o),
(550,30,o),
(547,27,cs),
(542,21,o),
(539,18,o),
(532,16,cs),
(436,-6,o),
(392,2,o),
(310,0,c),
(282,2,o),
(271,12,o),
(264,44,c)
);
}
);
width = 550;
},
{
layerId = m002;
shapes = (
{
closed = 1;
nodes = (
(183,2,o),
(181,-2,o),
(90,0,c),
(35,3,o),
(-26,17,o),
(11,64,c),
(33,94,o),
(65,93,o),
(103,80,c),
(158,56,o),
(209,23,o),
(262,68,c),
(297,100,o),
(334,88,o),
(373,73,c),
(439,42,o),
(464,20,o),
(536,31,cs),
(542,32,o),
(547,34,o),
(549,33,c),
(550,32,o),
(551,30,o),
(550,27,cs),
(548,21,o),
(547,18,o),
(541,16,cs),
(459,-6,o),
(410,2,o),
(329,0,c),
(300,2,o),
(283,12,o),
(256,44,c)
);
}
);
width = 550;
}
);
unicode = 110;
},
{
glyphname = o;
lastChange = "2024-03-16 02:56:07 +0000";
layers = (
{
layerId = "CB2CB756-3A2A-4C94-93F3-FAA7C1CB72DF";
shapes = (
{
closed = 1;
nodes = (
(149,86,o),
(152,89,o),
(155,90,cs),
(193,105,o),
(268,83,o),
(281,66,cs),
(291,54,o),
(275,29,o),
(248,18,cs),
(229,10,o),
(208,3,o),
(191,1,c),
(100,-11,o),
(-40,-13,o),
(10,47,c),
(43,90,o),
(98,86,o),
(118,62,c),
(132,45,o),
(192,20,o),
(202,19,c),
(213,19,o),
(226,20,o),
(238,25,cs),
(307,55,o),
(225,97,o),
(159,81,c),
(156,80,o),
(151,76,o),
(150,76,c),
(147,75,o),
(146,80,o),
(148,84,cs)
);
}
);
width = 284;
},
{
layerId = m002;
shapes = (
{
closed = 1;
nodes = (
(116,86,o),
(117,89,o),
(119,90,cs),
(148,105,o),
(237,83,o),
(260,66,cs),
(278,54,o),
(277,29,o),
(257,18,cs),
(243,10,o),
(227,3,o),
(211,1,c),
(127,-11,o),
(-11,-13,o),
(1,47,c),
(7,90,o),
(65,86,o),
(100,62,c),
(124,45,o),
(200,20,o),
(211,19,c),
(222,19,o),
(234,20,o),
(243,25,cs),
(293,55,o),
(185,97,o),
(129,81,c),
(126,80,o),
(124,76,o),
(123,76,c),
(121,75,o),
(116,80,o),
(116,84,cs)
);
}
);
width = 273;
}
);
unicode = 111;
},
{
glyphname = p;
lastChange = "2024-03-15 02:35:20 +0000";
layers = (
{
layerId = "CB2CB756-3A2A-4C94-93F3-FAA7C1CB72DF";
shapes = (
{
closed = 1;
nodes = (
(277,11,o),
(273,6,o),
(269,6,c),
(187,6,o),
(167,-16,o),
(96,0,cs),
(78,5,o),
(105,18,o),
(109,18,c),
(147,18,o),
(183,18,o),
(219,18,c),
(228,18,o),
(236,18,o),
(246,18,cs),
(254,18,o),
(237,45,o),
(223,52,c),
(192,62,o),
(146,58,o),
(122,74,cs),
(112,82,o),
(-67,-226,o),
(-75,-236,cs),
(-90,-254,o),
(-130,-260,o),
(-117,-239,cs),
(-111,-230,o),
(-105,-220,o),
(118,124,c),
(120,127,o),
(122,128,o),
(125,130,cs),
(139,139,o),
(143,148,o),
(246,306,c),
(248,309,o),
(259,323,o),
(264,323,c),
(270,322,o),
(265,315,o),
(261,308,c),
(241,277,o),
(170,168,o),
(153,141,cs),
(147,132,o),
(145,127,o),
(159,127,c),
(229,137,o),
(261,80,o),
(261,32,c),
(259,22,o),
(260,18,o),
(275,17,c),
(280,17,o),
(281,17,o),
(281,16,cs)
);
}
);
width = 281;
},
{
layerId = m002;
shapes = (
{
closed = 1;
nodes = (
(238,11,o),
(237,6,o),
(233,6,c),
(151,6,o),
(144,-16,o),
(63,0,cs),
(42,5,o),
(61,18,o),
(65,18,c),
(103,18,o),
(139,18,o),
(175,18,c),
(184,18,o),
(192,18,o),
(202,18,cs),
(210,18,o),
(176,45,o),
(158,52,c),
(121,62,o),
(77,58,o),
(43,74,cs),
(28,82,o),
(42,-226,o),
(40,-236,cs),
(36,-254,o),
(0,-260,o),
(0,-239,cs),
(0,-230,o),
(0,-220,o),
(8,124,c),
(8,127,o),
(9,128,o),
(11,130,cs),
(20,139,o),
(18,148,o),
(22,306,c),
(22,309,o),
(25,323,o),
(30,323,c),
(36,322,o),
(36,315,o),
(36,308,c),
(35,277,o),
(32,168,o),
(32,141,cs),
(32,132,o),
(33,127,o),
(47,127,c),
(111,137,o),
(178,80,o),
(208,32,c),
(213,22,o),
(216,18,o),
(232,17,c),
(237,17,o),
(238,17,o),
(238,16,cs)
);
}
);
width = 238;
}
);
unicode = 112;
},
{
glyphname = q;
lastChange = "2024-03-15 02:28:01 +0000";
layers = (
{
layerId = "CB2CB756-3A2A-4C94-93F3-FAA7C1CB72DF";
shapes = (
{
closed = 1;
nodes = (
(198,75,o),
(184,80,o),
(175,82,c),
(149,87,o),
(118,86,o),
(86,80,c),
(75,78,o),
(63,73,o),
(59,67,cs),
(58,64,o),
(55,56,o),
(63,56,cs),
(122,56,o),
(122,31,o),
(182,31,c),
(190,30,o),
(198,35,o),
(203,43,c),
(208,51,o),
(215,61,o),
(218,69,c),
(224,85,o),
(234,69,o),
(228,60,c),
(206,25,o),
(112,-126,o),
(100,-161,cs),
(99,-164,o),
(95,-171,o),
(100,-171,cs),
(110,-171,o),
(207,-17,o),
(217,-4,cs),
(225,5,o),
(241,20,o),
(246,19,cs),
(247,19,o),
(247,14,o),
(246,13,cs),
(233,5,o),
(218,-19,o),
(207,-36,cs),
(175,-87,o),
(146,-137,o),
(114,-188,cs),
(91,-225,o),
(57,-244,o),
(24,-241,cs),
(3,-239,o),
(0,-230,o),
(14,-208,cs),
(20,-197,o),
(181,10,o),
(184,20,cs),
(185,25,o),
(148,17,o),
(128,8,c),
(76,-14,o),
(-16,-8,o),
(3,35,c),
(14,58,o),
(56,83,o),
(109,92,c),
(144,97,o),
(170,92,o),
(200,87,cs),
(206,86,o),
(209,78,o),
(206,77,cs)
);
}
);
width = 247;
},
{
layerId = m002;
shapes = (
{
closed = 1;
nodes = (
(170,75,o),
(152,80,o),
(142,82,c),
(113,87,o),
(83,86,o),
(54,80,c),
(45,78,o),
(36,73,o),
(36,67,cs),
(36,64,o),
(38,56,o),
(46,56,cs),
(105,56,o),
(121,31,o),
(181,31,c),
(190,30,o),
(195,35,o),
(195,43,c),
(195,51,o),
(195,61,o),
(193,69,c),
(189,85,o),
(209,69,o),
(209,60,c),
(209,25,o),
(209,-126,o),
(219,-161,cs),
(220,-164,o),
(220,-171,o),
(225,-171,cs),
(235,-171,o),
(236,-17,o),
(238,-4,cs),
(240,5,o),
(247,20,o),
(253,19,cs),
(254,19,o),
(257,14,o),
(256,13,cs),
(248,5,o),
(248,-19,o),
(248,-36,cs),
(248,-87,o),
(250,-137,o),
(250,-188,cs),
(250,-225,o),
(228,-244,o),
(193,-241,cs),
(171,-239,o),
(162,-230,o),
(162,-208,cs),
(162,-197,o),
(193,10,o),
(190,20,cs),
(188,25,o),
(156,17,o),
(141,8,c),
(103,-14,o),
(7,-8,o),
(0,35,c),
(-4,58,o),
(23,83,o),
(70,92,c),
(102,97,o),
(131,92,o),
(164,87,cs),
(171,86,o),
(179,78,o),
(176,77,cs)
);
}
);
width = 256;
}
);
unicode = 113;
},
{
glyphname = r;
lastChange = "2024-03-15 02:28:01 +0000";
layers = (
{
layerId = "CB2CB756-3A2A-4C94-93F3-FAA7C1CB72DF";
shapes = (
{
closed = 1;
nodes = (
(47,96,c),
(63,101,o),
(66,77,o),
(68,66,cs),
(69,57,o),
(68,47,o),
(69,36,c),
(113,67,o),
(150,74,o),
(175,59,cs),
(194,47,o),
(210,36,o),
(233,26,cs),
(240,23,o),
(248,23,o),
(258,19,c),
(261,18,o),
(261,17,o),
(262,14,cs),
(263,12,o),
(259,10,o),
(258,10,cs),
(230,7,o),
(180,0,o),
(142,0,cs),
(116,0,o),
(87,-1,o),
(89,26,c),
(89,30,o),
(89,38,o),
(79,32,c),
(63,21,o),
(57,9,o),
(38,3,cs),
(31,1,o),
(17,-1,o),
(14,7,cs),
(0,44,o),
(-19,75,o)
);
}
);
width = 262;
},
{
layerId = m002;
shapes = (
{
closed = 1;
nodes = (
(25,96,c),
(38,101,o),
(56,77,o),
(65,66,cs),
(72,57,o),
(77,47,o),
(85,36,c),
(110,67,o),
(142,74,o),
(177,59,cs),
(203,47,o),
(226,36,o),
(255,26,cs),
(264,23,o),
(272,23,o),
(285,19,c),
(288,18,o),
(289,17,o),
(292,14,cs),
(294,12,o),
(291,10,o),
(290,10,cs),
(264,7,o),
(218,0,o),
(180,0,cs),
(154,0,o),
(126,-1,o),
(111,26,c),
(109,30,o),
(104,38,o),
(97,32,c),
(88,21,o),
(90,9,o),
(75,3,cs),
(69,1,o),
(56,-1,o),
(48,7,cs),
(11,44,o),
(-27,75,o)
);
}
);
width = 293;
}
);
unicode = 114;
},
{
glyphname = s;
lastChange = "2024-03-15 02:28:01 +0000";
layers = (
{
layerId = "CB2CB756-3A2A-4C94-93F3-FAA7C1CB72DF";
shapes = (
{
closed = 1;
nodes = (
(217,6,o),
(212,2,c),
(211,1,o),
(204,2,o),
(190,3,c),
(172,4,o),
(164,6,o),
(144,0,cs),
(114,-9,o),
(93,-4,o),
(66,0,cs),
(62,1,o),
(64,5,o),
(71,20,c),
(72,21,o),
(73,22,o),
(74,22,c),
(109,24,o),
(140,22,o),
(177,23,c),
(179,23,o),
(181,25,o),
(180,27,cs),
(169,51,o),
(110,44,o),
(74,51,c),
(60,53,o),
(46,44,o),
(47,49,cs),
(54,71,o),
(85,96,o),
(110,100,c),
(152,107,o),
(183,81,o),
(191,51,cs),
(198,33,o),
(179,22,o),
(205,22,c),
(211,22,o),
(215,22,o),
(218,20,c),
(220,19,o)
);
},
{
closed = 1;
nodes = (
(30,26,o),
(16,1,o),
(6,-16,c),
(5,-17,o),
(3,-17,o),
(1,-17,cs),
(0,-17,o),
(0,-15,o),
(1,-14,cs),
(8,-3,o),
(26,26,o),
(40,42,cs),
(47,51,o),
(45,44,o),
(44,43,c)
);
}
);
width = 219;
},
{
layerId = m002;
shapes = (
{
closed = 1;
nodes = (
(204,6,o),
(201,2,c),
(201,1,o),
(193,2,o),
(179,3,c),
(160,4,o),
(151,6,o),
(134,0,cs),
(110,-9,o),
(86,-4,o),
(56,0,cs),
(52,1,o),
(51,5,o),
(49,20,c),
(49,21,o),
(50,22,o),
(51,22,c),
(84,24,o),
(117,22,o),
(153,23,c),
(155,23,o),
(156,25,o),
(154,27,cs),
(128,51,o),
(73,44,o),
(33,51,c),
(17,53,o),
(9,44,o),
(7,49,cs),
(0,71,o),
(15,96,o),
(38,100,c),
(76,107,o),
(123,81,o),
(150,51,cs),
(168,33,o),
(156,22,o),
(182,22,c),
(188,22,o),
(192,22,o),
(196,20,c),
(199,19,o)
);
},
{
closed = 1;
nodes = (
(4,26,o),
(6,1,o),
(6,-16,c),
(6,-17,o),
(4,-17,o),
(2,-17,cs),
(1,-17,o),
(0,-15,o),
(0,-14,cs),
(0,-3,o),
(0,26,o),
(4,42,cs),
(6,51,o),
(8,44,o),
(8,43,c)
);
}
);
width = 202;
}
);
unicode = 115;
},
{
glyphname = t;
lastChange = "2024-03-15 15:50:39 +0000";
layers = (
{
layerId = "CB2CB756-3A2A-4C94-93F3-FAA7C1CB72DF";
shapes = (
{
closed = 1;
nodes = (
(231,6,o),
(224,4,cs),
(214,1,o),
(201,0,o),
(193,0,cs),
(156,0,o),
(65,2,o),
(37,15,c),
(25,19,o),
(20,28,o),
(27,44,c),
(192,311,l),
(196,318,o),
(201,322,o),
(210,322,cs),
(218,322,o),
(215,317,o),
(210,310,cs),
(191,279,o),
(172,248,o),
(152,217,c),
(137,192,o),
(124,168,o),
(110,141,cs),
(92,101,o),
(93,68,o),
(116,48,cs),
(137,26,o),
(171,16,o),
(210,15,c),
(218,15,o),
(220,15,o),
(223,13,c),
(226,13,o)
);
},
{
closed = 1;
nodes = (
(343,160,o),
(336,159,o),
(332,159,cs),
(296,165,o),
(255,162,o),
(212,158,c),
(177,155,o),
(137,148,o),
(162,178,cs),
(167,184,o),
(173,186,o),
(180,185,cs),
(214,182,o),
(321,172,o),
(342,168,cs),
(349,167,o),
(355,168,o),
(346,162,c)
);
}
);
width = 291;
},
{
layerId = m002;
shapes = (
{
closed = 1;
nodes = (
(230,6,o),
(224,4,cs),
(216,1,o),
(203,0,o),
(195,0,cs),
(158,0,o),
(66,2,o),
(30,15,c),
(16,19,o),
(5,28,o),
(2,44,c),
(0,311,l),
(0,318,o),
(2,322,o),
(11,322,cs),
(19,322,o),
(19,317,o),
(19,310,cs),
(19,279,o),
(19,248,o),
(19,217,c),
(19,192,o),
(21,168,o),
(24,141,cs),
(31,101,o),
(53,68,o),
(88,48,cs),
(123,26,o),
(163,16,o),
(203,15,c),
(211,15,o),
(213,15,o),
(217,13,c),
(220,13,o)
);
},
{
closed = 1;
nodes = (
(245,160,o),
(239,159,o),
(235,159,cs),
(195,165,o),
(156,162,o),
(116,158,c),
(83,155,o),
(47,148,o),
(53,178,cs),
(54,184,o),
(59,186,o),
(67,185,cs),
(103,182,o),
(216,172,o),
(239,168,cs),
(247,167,o),
(252,168,o),
(247,162,c)
);
}
);
width = 249;
}
);
unicode = 116;
},
{
glyphname = u;
lastChange = "2024-03-16 02:30:38 +0000";
layers = (
{
layerId = "CB2CB756-3A2A-4C94-93F3-FAA7C1CB72DF";
shapes = (
{
closed = 1;
nodes = (
(29,61,o),
(86,92,o),
(101,85,cs),
(120,77,o),
(140,71,o),
(155,61,cs),
(182,42,o),
(244,46,o),
(275,66,c),
(313,92,o),
(375,81,o),
(391,51,c),
(405,26,o),
(508,28,o),
(517,28,c),
(522,29,o),
(514,20,o),
(497,17,c),
(458,8,o),
(426,0,o),
(393,0,cs),
(352,0,o),
(306,0,o),
(278,4,cs),
(266,6,o),
(261,13,o),
(257,22,cs),
(254,32,o),
(248,37,o),
(231,32,cs),
(189,19,o),
(151,10,o),
(115,4,cs),
(51,-6,o),
(24,1,o),
(0,37,c),
(-1,40,o),
(-1,43,o),
(6,47,cs)
);
}
);
width = 518;
},
{
layerId = m002;
shapes = (
{
closed = 1;
nodes = (
(17,61,o),
(55,92,o),
(74,85,cs),
(98,77,o),
(122,71,o),
(143,61,cs),
(182,42,o),
(242,46,o),
(260,66,c),
(282,92,o),
(351,81,o),
(386,51,c),
(415,26,o),
(517,28,o),
(526,28,c),
(530,29,o),
(528,20,o),
(513,17,c),
(479,8,o),
(452,0,o),
(419,0,cs),
(378,0,o),
(332,0,o),
(302,4,cs),
(289,6,o),
(279,13,o),
(270,22,cs),
(260,32,o),
(251,37,o),
(237,32,cs),
(204,19,o),
(171,10,o),
(139,4,cs),
(81,-6,o),
(50,1,o),
(3,37,c),
(0,40,o),
(-1,43,o),
(3,47,cs)
);
}
);
width = 528;
}
);
unicode = 117;
},
{
glyphname = v;
lastChange = "2024-03-15 02:28:01 +0000";
layers = (
{
layerId = "CB2CB756-3A2A-4C94-93F3-FAA7C1CB72DF";
shapes = (
{
closed = 1;
nodes = (
(256,51,o),
(243,58,o),
(229,66,c),
(200,78,o),
(121,109,o),
(143,145,c),
(144,147,o),
(149,151,o),
(151,150,c),
(156,143,ls),
(180,115,o),
(203,85,o),
(250,78,c),
(264,76,o),
(277,68,o),
(269,51,c),
(262,33,o),
(242,22,o),
(223,13,cs),
(201,4,o),
(180,-1,o),
(163,1,cs),
(116,4,o),
(68,5,o),
(21,13,cs),
(-29,20,o),
(23,80,o),
(59,85,c),
(86,88,o),
(100,80,o),
(114,73,cs),
(145,59,o),
(171,42,o),
(200,28,c),
(210,22,o),
(216,23,o),
(236,37,cs)
);
}
);
width = 271;
},
{
layerId = m002;
shapes = (
{
closed = 1;
nodes = (
(248,51,o),
(230,58,o),
(211,66,c),
(175,78,o),
(76,109,o),
(76,145,c),
(76,147,o),
(78,151,o),
(81,150,c),
(90,143,ls),
(132,115,o),
(173,85,o),
(225,78,c),
(240,76,o),
(258,68,o),
(261,51,c),
(265,33,o),
(252,22,o),
(238,13,cs),
(222,4,o),
(204,-1,o),
(186,1,cs),
(137,4,o),
(88,5,o),
(36,13,cs),
(-18,20,o),
(-4,80,o),
(29,85,c),
(54,88,o),
(73,80,o),
(92,73,cs),
(132,59,o),
(168,42,o),
(206,28,c),
(220,22,o),
(225,23,o),
(236,37,cs)
);
}
);
width = 262;
}
);
unicode = 118;
},
{
glyphname = w;
lastChange = "2024-03-15 02:28:01 +0000";
layers = (
{
layerId = "CB2CB756-3A2A-4C94-93F3-FAA7C1CB72DF";
shapes = (
{
closed = 1;
nodes = (
(257,47,o),
(263,50,o),
(267,56,cs),
(291,95,o),
(336,90,o),
(352,74,cs),
(375,50,o),
(444,23,o),
(483,23,cs),
(491,23,o),
(476,9,o),
(467,5,c),
(455,0,o),
(446,0,o),
(435,0,c),
(385,0,o),
(332,0,o),
(286,5,cs),
(263,7,o),
(260,25,o),
(246,23,cs),
(228,21,o),
(83,-5,o),
(15,9,cs),
(-6,14,o),
(-5,23,o),
(15,47,c),
(42,74,o),
(75,86,o),
(104,79,cs),
(179,62,o),
(164,47,o),
(251,47,cs)
);
},
{
closed = 1;
nodes = (
(410,107,o),
(428,79,o),
(504,79,cs),
(518,79,o),
(519,74,o),
(505,52,cs),
(504,50,o),
(500,51,o),
(500,51,c),
(487,65,o),
(469,70,o),
(449,74,cs),
(416,79,o),
(395,93,o),
(379,125,c),
(379,125,o),
(381,134,o),
(389,134,c)
);
}
);
width = 515;
},
{
layerId = m002;
shapes = (
{
closed = 1;
nodes = (
(244,47,o),
(248,50,o),
(248,56,cs),
(248,95,o),
(296,90,o),
(322,74,cs),
(360,50,o),
(446,23,o),
(485,23,cs),
(493,23,o),
(487,9,o),
(480,5,c),
(471,0,o),
(462,0,o),
(451,0,c),
(401,0,o),
(348,0,o),
(299,5,cs),
(275,7,o),
(261,25,o),
(248,23,cs),
(231,21,o),
(103,-5,o),
(26,9,cs),
(2,14,o),
(-3,23,o),
(2,47,c),
(12,74,o),
(38,86,o),
(71,79,cs),
(157,62,o),
(151,47,o),
(238,47,cs)
);
},
{
closed = 1;
nodes = (
(360,107,o),
(395,79,o),
(471,79,cs),
(485,79,o),
(489,74,o),
(489,52,cs),
(489,50,o),
(485,51,o),
(485,51,c),
(463,65,o),
(442,70,o),
(419,74,cs),
(383,79,o),
(353,93,o),
(317,125,c),
(317,125,o),
(314,134,o),
(322,134,c)
);
}
);
width = 489;
}
);
unicode = 119;
},
{
glyphname = x;
lastChange = "2024-03-15 02:28:01 +0000";
layers = (
{
layerId = "CB2CB756-3A2A-4C94-93F3-FAA7C1CB72DF";
shapes = (
{
closed = 1;
nodes = (
(295,19,o),
(272,18,o),
(257,16,cs),
(216,11,o),
(181,8,o),
(141,2,c),
(135,1,o),
(127,-4,o),
(123,-9,c),
(113,-19,o),
(54,-104,o),
(32,-137,cs),
(29,-142,o),
(21,-151,o),
(11,-155,c),
(7,-156,o),
(5,-153,o),
(7,-150,cs),
(22,-130,o),
(89,-29,o),
(108,0,c),
(58,1,o),
(40,-5,o),
(5,15,c),
(-14,33,o),
(30,67,o),
(65,67,c),
(89,68,o),
(111,68,o),
(134,67,c),
(146,67,o),
(153,70,o),
(161,83,c),
(168,94,o),
(200,143,o),
(229,189,cs),
(235,199,o),
(249,210,o),
(261,210,cs),
(267,210,o),
(258,197,o),
(253,189,c),
(230,152,o),
(205,115,o),
(183,79,c),
(173,63,o),
(174,60,o),
(187,56,cs),
(219,47,o),
(257,36,o),
(297,31,cs),
(303,30,o),
(308,31,o),
(303,25,c)
);
}
);
width = 305;
},
{
layerId = m002;
shapes = (
{
closed = 1;
nodes = (
(302,19,o),
(279,18,o),
(265,16,cs),
(228,11,o),
(194,8,o),
(158,2,c),
(153,1,o),
(148,-4,o),
(147,-9,c),
(143,-19,o),
(137,-104,o),
(136,-137,cs),
(136,-142,o),
(134,-151,o),
(126,-155,c),
(123,-156,o),
(119,-153,o),
(119,-150,cs),
(122,-130,o),
(126,-29,o),
(126,0,c),
(76,1,o),
(62,-5,o),
(14,15,c),
(-16,33,o),
(7,67,o),
(42,67,c),
(65,68,o),
(87,68,o),
(111,67,c),
(123,67,o),
(128,70,o),
(128,83,c),
(128,94,o),
(129,143,o),
(129,189,cs),
(129,199,o),
(136,210,o),
(148,210,cs),
(154,210,o),
(153,197,o),
(153,189,c),
(153,152,o),
(152,115,o),
(152,79,c),
(152,63,o),
(155,60,o),
(170,56,cs),
(208,47,o),
(253,36,o),
(296,31,cs),
(303,30,o),
(307,31,o),
(306,25,c)
);
}
);
width = 306;
}
);
unicode = 120;
},
{
glyphname = y;
lastChange = "2024-03-15 02:28:01 +0000";
layers = (
{
layerId = "CB2CB756-3A2A-4C94-93F3-FAA7C1CB72DF";
shapes = (
{
closed = 1;
nodes = (
(348,59,o),
(348,48,o),
(339,35,c),
(277,-71,o),
(116,-350,o),
(95,-384,c),
(69,-425,o),
(61,-429,o),
(14,-429,c),
(5,-429,o),
(-8,-425,o),
(6,-402,c),
(59,-325,o),
(241,-57,o),
(277,0,cs),
(282,8,o),
(283,23,o),
(271,17,c),
(218,0,o),
(179,0,o),
(136,1,c),
(94,3,o),
(50,-3,o),
(12,6,cs),
(9,7,o),
(4,7,o),
(9,16,cs),
(41,77,o),
(48,81,o),
(111,81,c),
(158,80,o),
(161,72,o),
(180,60,c),
(211,43,o),
(254,38,o),
(307,49,c),
(315,51,o),
(324,55,o),
(334,57,cs)
);
}
);
width = 345;
},
{
layerId = m002;
shapes = (
{
closed = 1;
nodes = (
(315,59,o),
(321,48,o),
(321,35,c),
(325,-71,o),
(338,-350,o),
(338,-384,c),
(338,-425,o),
(332,-429,o),
(285,-429,c),
(276,-429,o),
(261,-425,o),
(261,-402,c),
(265,-325,o),
(280,-57,o),
(280,0,cs),
(280,8,o),
(272,23,o),
(264,17,c),
(221,0,o),
(182,0,o),
(139,1,c),
(96,3,o),
(55,-3,o),
(12,6,cs),
(8,7,o),
(3,7,o),
(2,16,cs),
(-4,77,o),
(1,81,o),
(64,81,c),
(111,80,o),
(119,72,o),
(146,60,c),
(188,43,o),
(234,38,o),
(280,49,c),
(287,51,o),
(293,55,o),
(302,57,cs)
);
}
);
width = 338;
}
);
unicode = 121;
},
{
glyphname = z;
lastChange = "2024-03-15 02:28:01 +0000";
layers = (
{
layerId = "CB2CB756-3A2A-4C94-93F3-FAA7C1CB72DF";
shapes = (
{
closed = 1;
nodes = (
(306,-11,o),
(304,-17,o),
(299,-20,cs),
(278,-33,o),
(264,-20,o),
(251,-16,c),
(230,-11,o),
(165,5,o),
(148,-3,cs),
(138,-8,o),
(127,-14,o),
(118,-13,c),
(83,-10,o),
(47,-7,o),
(14,0,c),
(5,2,o),
(-4,13,o),
(2,23,cs),
(9,34,o),
(24,40,o),
(35,48,cs),
(86,86,o),
(112,70,o),
(141,61,cs),
(192,45,o),
(242,29,o),
(291,15,cs),
(305,11,o),
(310,10,o),
(306,-7,cs)
);
},
{
closed = 1;
nodes = (
(286,57,o),
(282,57,o),
(280,58,c),
(241,72,o),
(205,84,o),
(170,96,cs),
(162,99,o),
(154,96,o),
(157,107,cs),
(160,113,o),
(163,122,o),
(172,122,cs),
(203,122,o),
(256,99,o),
(286,95,c),
(299,95,o),
(321,95,o),
(340,104,cs),
(345,107,o),
(348,108,o),
(353,108,cs),
(358,108,o),
(361,104,o),
(356,99,c),
(330,76,o),
(309,71,o),
(288,58,cs)
);
}
);
width = 359;
},
{
layerId = m002;
shapes = (
{
closed = 1;
nodes = (
(325,-11,o),
(327,-17,o),
(324,-20,cs),
(311,-33,o),
(289,-20,o),
(273,-16,c),
(249,-11,o),
(174,5,o),
(162,-3,cs),
(155,-8,o),
(148,-14,o),
(139,-13,c),
(102,-10,o),
(64,-7,o),
(26,0,c),
(16,2,o),
(0,13,o),
(0,23,cs),
(0,34,o),
(11,40,o),
(17,48,cs),
(45,86,o),
(81,70,o),
(115,61,cs),
(176,45,o),
(236,29,o),
(294,15,cs),
(311,11,o),
(316,10,o),
(323,-7,cs)
);
},
{
closed = 1;
nodes = (
(263,57,o),
(259,57,o),
(256,58,c),
(208,72,o),
(165,84,o),
(122,96,cs),
(113,99,o),
(106,96,o),
(103,107,cs),
(102,113,o),
(99,122,o),
(108,122,cs),
(139,122,o),
(207,99,o),
(239,95,c),
(252,95,o),
(274,95,o),
(287,104,cs),
(291,107,o),
(293,108,o),
(298,108,cs),
(303,108,o),
(308,104,o),
(307,99,c),
(295,76,o),
(277,71,o),
(264,58,cs)
);
}
);
width = 326;
}
);
unicode = 122;
},
{
glyphname = zero;
lastChange = "2024-03-16 02:18:53 +0000";
layers = (
{
layerId = "CB2CB756-3A2A-4C94-93F3-FAA7C1CB72DF";
shapes = (
{
closed = 1;
nodes = (
(77,182,o),
(99,193,o),
(119,200,c),
(332,280,o),
(383,118,o),
(193,24,c),
(94,-25,o),
(-3,-19,o),
(-45,8,c),
(-65,19,o),
(-64,42,o),
(-44,70,c),
(-31,88,o),
(-14,101,o),
(4,100,c),
(86,93,o),
(98,72,o),
(165,49,c),
(186,42,o),
(212,49,o),
(243,70,c),
(321,120,o),
(299,219,o),
(199,209,c),
(161,205,o),
(121,196,o),
(77,172,c),
(71,169,o),
(66,165,o),
(61,165,cs),
(58,165,o),
(53,169,o),
(57,171,cs)
);
}
);
width = 311;
},
{
layerId = m002;
shapes = (
{
closed = 1;
nodes = (
(57,182,o),
(72,193,o),
(87,200,c),
(250,280,o),
(403,118,o),
(271,24,c),
(203,-25,o),
(102,-19,o),
(43,8,c),
(17,19,o),
(3,42,o),
(6,70,c),
(7,88,o),
(16,101,o),
(35,100,c),
(121,93,o),
(146,72,o),
(228,49,c),
(253,42,o),
(275,49,o),
(293,70,c),
(339,120,o),
(256,219,o),
(162,209,c),
(126,205,o),
(92,196,o),
(63,172,c),
(59,169,o),
(56,165,o),
(51,165,cs),
(48,165,o),
(41,169,o),
(44,171,cs)
);
}
);
width = 327;
}
);
unicode = 48;
},
{
glyphname = one;
lastChange = "2024-03-16 02:18:48 +0000";
layers = (
{
layerId = "CB2CB756-3A2A-4C94-93F3-FAA7C1CB72DF";
shapes = (
{
closed = 1;
nodes = (
(49,109,o),
(128,233,o),
(189,327,cs),
(197,340,o),
(229,339,o),
(214,315,c),
(179,253,o),
(73,67,o),
(60,45,cs),
(42,16,o),
(23,0,o),
(-15,0,cs),
(-20,0,o),
(-21,5,o),
(-18,11,cs)
);
}
);
width = 198;
},
{
layerId = m002;
shapes = (
{
closed = 1;
nodes = (
(29,109,o),
(31,233,o),
(33,327,cs),
(33,340,o),
(66,339,o),
(66,315,c),
(69,253,o),
(80,67,o),
(80,45,cs),
(80,16,o),
(71,0,o),
(33,0,cs),
(28,0,o),
(24,5,o),
(24,11,cs)
);
}
);
width = 104;
}
);
unicode = 49;
},
{
glyphname = two;
lastChange = "2024-03-15 04:01:49 +0000";
layers = (
{
layerId = "CB2CB756-3A2A-4C94-93F3-FAA7C1CB72DF";
shapes = (
{
closed = 1;
nodes = (
(-60,11,o),
(-61,13,o),
(-58,18,c),
(-40,47,o),
(-19,84,o),
(22,92,c),
(40,95,o),
(53,95,o),
(69,95,c),
(157,101,o),
(279,196,o),
(250,262,c),
(232,298,o),
(185,307,o),
(108,259,cs),
(100,253,o),
(94,250,o),
(85,244,c),
(82,242,o),
(84,246,o),
(84,246,c),
(92,255,o),
(95,259,o),
(109,268,c),
(288,397,o),
(440,330,o),
(312,212,c),
(260,162,o),
(176,122,o),
(122,93,c),
(116,90,o),
(111,83,o),
(116,83,c),
(148,59,o),
(185,43,o),
(221,23,c),
(222,22,o),
(220,18,o),
(216,16,c),
(216,16,o),
(214,16,o),
(212,16,c),
(185,14,o),
(161,13,o),
(133,11,c),
(105,7,o),
(76,0,o),
(53,0,c),
(21,0,o),
(-17,23,o),
(-54,11,c)
);
}
);
width = 300;
},
{
layerId = m002;
shapes = (
{
closed = 1;
nodes = (
(15,11,o),
(12,13,o),
(12,18,c),
(12,47,o),
(10,84,o),
(46,92,c),
(62,95,o),
(75,95,o),
(91,95,c),
(175,101,o),
(238,196,o),
(168,262,c),
(127,298,o),
(75,307,o),
(28,259,cs),
(23,253,o),
(19,250,o),
(14,244,c),
(12,242,o),
(12,246,o),
(12,246,c),
(14,255,o),
(15,259,o),
(23,268,c),
(121,397,o),
(315,330,o),
(261,212,c),
(240,162,o),
(181,122,o),
(145,93,c),
(141,90,o),
(141,83,o),
(146,83,c),
(193,59,o),
(240,43,o),
(288,23,c),
(290,22,o),
(290,18,o),
(287,16,c),
(287,16,o),
(285,16,o),
(283,16,c),
(258,14,o),
(234,13,o),
(208,11,c),
(182,7,o),
(157,0,o),
(134,0,c),
(102,0,o),
(50,23,o),
(21,11,c)
);
}
);
width = 301;
}
);
unicode = 50;
},
{
glyphname = three;
lastChange = "2024-03-08 08:18:23 +0000";
layers = (
{
layerId = "CB2CB756-3A2A-4C94-93F3-FAA7C1CB72DF";
shapes = (
{
closed = 1;
nodes = (
(248,172,o),
(217,195,o),
(190,189,c),
(182,188,o),
(172,182,o),
(169,177,c),
(134,130,o),
(223,128,o),
(233,146,cs)
);
},
{
closed = 1;
nodes = (
(26,116,cs),
(28,116,o),
(29,115,o),
(29,113,c),
(16,78,o),
(2,52,o),
(31,29,cs),
(67,0,o),
(123,2,o),
(195,29,cs),
(213,36,o),
(229,48,o),
(240,66,cs),
(260,99,o),
(260,121,o),
(240,135,cs),
(238,136,o),
(235,136,o),
(230,134,cs),
(177,104,o),
(142,127,o),
(140,163,cs),
(139,190,o),
(195,204,o),
(210,204,c),
(236,204,o),
(307,201,o),
(320,201,cs),
(323,201,o),
(329,209,o),
(331,212,cs),
(375,286,o),
(231,323,o),
(152,264,c),
(133,252,o),
(134,266,o),
(152,278,c),
(240,340,o),
(338,345,o),
(388,332,cs),
(441,318,o),
(457,269,o),
(388,217,cs),
(362,197,o),
(353,194,o),
(353,171,c),
(354,156,o),
(355,140,o),
(352,124,cs),
(347,98,o),
(327,73,o),
(294,51,c),
(255,25,o),
(215,10,o),
(177,0,cs),
(109,-17,o),
(51,-19,o),
(15,13,cs),
(-7,32,o),
(-2,64,o),
(11,100,c),
(12,103,o),
(17,109,o),
(20,112,cs),
(22,114,o),
(24,116,o)
);
}
);
width = 434;
},
{
layerId = m002;
shapes = (
{
closed = 1;
nodes = (
(192,172,o),
(147,195,o),
(123,189,c),
(116,188,o),
(110,182,o),
(110,177,c),
(104,130,o),
(194,128,o),
(193,146,cs)
);
},
{
closed = 1;
nodes = (
(5,116,cs),
(7,116,o),
(9,115,o),
(10,113,c),
(19,78,o),
(21,52,o),
(64,29,cs),
(118,0,o),
(173,2,o),
(228,29,cs),
(242,36,o),
(250,48,o),
(250,66,cs),
(250,99,o),
(236,121,o),
(207,135,cs),
(204,136,o),
(201,136,o),
(198,134,cs),
(163,104,o),
(114,127,o),
(90,163,cs),
(72,190,o),
(119,204,o),
(134,204,c),
(160,204,o),
(233,201,o),
(246,201,cs),
(249,201,o),
(250,209,o),
(250,212,cs),
(248,286,o),
(81,323,o),
(38,264,c),
(27,252,o),
(19,266,o),
(30,278,c),
(79,340,o),
(174,345,o),
(232,332,cs),
(294,318,o),
(340,269,o),
(304,217,cs),
(290,197,o),
(283,194,o),
(298,171,c),
(308,156,o),
(319,140,o),
(326,124,cs),
(337,98,o),
(333,73,o),
(314,51,c),
(291,25,o),
(260,10,o),
(228,0,cs),
(171,-17,o),
(114,-19,o),
(58,13,cs),
(24,32,o),
(9,64,o),
(0,100,c),
(-1,103,o),
(0,109,o),
(1,112,cs),
(2,114,o),
(3,116,o)
);
}
);
width = 332;
}
);
unicode = 51;
},
{
glyphname = four;
lastChange = "2024-03-16 02:18:35 +0000";
layers = (
{
layerId = "CB2CB756-3A2A-4C94-93F3-FAA7C1CB72DF";
shapes = (
{
closed = 1;
nodes = (
(31,-127,o),
(38,-123,o),
(40,-119,c),
(114,-5,l),
(117,-1,o),
(123,1,o),
(127,1,c),
(186,1,o),
(196,2,o),
(245,8,c),
(248,8,o),
(253,11,o),
(258,13,c),
(264,16,o),
(267,23,o),
(263,24,c),
(263,24,o),
(262,24,o),
(262,24,c),
(229,28,o),
(191,31,o),
(158,35,c),
(137,40,o),
(137,43,o),
(154,70,c),
(190,128,o),
(228,190,o),
(266,250,cs),
(271,258,o),
(275,263,o),
(268,268,cs),
(267,269,o),
(261,266,o),
(260,264,cs),
(229,217,o),
(179,136,o),
(133,67,c),
(132,64,o),
(127,61,o),
(124,61,c),
(42,61,o),
(104,208,o),
(157,294,cs),
(162,302,o),
(174,318,o),
(172,318,cs),
(168,318,l),
(165,318,o),
(151,306,o),
(148,301,c),
(71,195,o),
(43,159,o),
(-16,46,cs),
(-37,5,o),
(38,0,o),
(79,0,cs),
(81,0,o),
(82,-2,o),
(80,-5,cs),
(6,-121,l),
(2,-128,o),
(5,-133,o),
(28,-128,c)
);
}
);
width = 272;
},
{
layerId = m002;
shapes = (
{
closed = 1;
nodes = (
(185,-127,o),
(189,-123,o),
(189,-119,c),
(192,-5,l),
(192,-1,o),
(197,1,o),
(201,1,c),
(260,1,o),
(269,2,o),
(314,8,c),
(317,8,o),
(321,11,o),
(324,13,c),
(328,16,o),
(327,23,o),
(322,24,c),
(322,24,o),
(321,24,o),
(321,24,c),
(286,28,o),
(246,31,o),
(211,35,c),
(186,40,o),
(185,43,o),
(185,70,c),
(184,128,o),
(184,190,o),
(184,250,cs),
(184,258,o),
(185,263,o),
(175,268,cs),
(173,269,o),
(169,266,o),
(169,264,cs),
(168,217,o),
(168,136,o),
(166,67,c),
(166,64,o),
(163,61,o),
(160,61,c),
(78,61,o),
(48,208,o),
(48,294,cs),
(48,302,o),
(50,318,o),
(48,318,cs),
(44,318,l),
(41,318,o),
(34,306,o),
(34,301,c),
(24,195,o),
(18,159,o),
(30,46,cs),
(34,5,o),
(112,0,o),
(153,0,cs),
(155,0,o),
(158,-2,o),
(158,-5,cs),
(156,-121,l),
(156,-128,o),
(163,-133,o),
(182,-128,c)
);
}
);
width = 290;
}
);
unicode = 52;
},
{
glyphname = five;
lastChange = "2024-03-15 02:37:04 +0000";
layers = (
{
layerId = "CB2CB756-3A2A-4C94-93F3-FAA7C1CB72DF";
shapes = (
{
closed = 1;
nodes = (
(51,105,o),
(54,105,o),
(54,103,c),
(42,75,o),
(30,57,o),
(47,39,c),
(71,11,o),
(118,12,o),
(169,20,c),
(257,34,o),
(272,145,o),
(205,173,cs),
(198,176,o),
(184,179,o),
(173,177,c),
(166,174,o),
(138,156,o),
(123,147,c),
(118,144,o),
(106,141,o),
(108,143,c),
(125,150,o),
(152,171,o),
(156,177,c),
(144,175,o),
(132,169,o),
(121,163,cs),
(111,158,o),
(101,152,o),
(99,161,c),
(96,170,o),
(109,177,o),
(119,183,c),
(197,230,o),
(261,216,o),
(325,213,c),
(457,194,o),
(303,-24,o),
(86,0,c),
(38,8,o),
(8,24,o),
(25,74,c),
(29,87,o),
(34,94,o),
(50,104,c)
);
},
{
closed = 1;
nodes = (
(313,317,o),
(320,332,o),
(323,332,c),
(326,332,o),
(328,331,o),
(328,330,c),
(321,319,o),
(318,314,o),
(316,309,c),
(315,306,o),
(327,303,o),
(339,300,cs),
(354,296,o),
(370,292,o),
(385,290,cs),
(396,289,o),
(413,293,o),
(427,297,cs),
(440,301,o),
(449,300,o),
(442,288,cs),
(433,275,o),
(416,272,o),
(404,270,cs),
(322,252,o),
(216,216,o),
(173,264,c),
(163,275,o),
(162,289,o),
(173,301,c),
(214,349,o),
(257,335,o),
(287,320,cs),
(293,317,o),
(305,308,o),
(308,311,c)
);
}
);
width = 444;
},
{
layerId = m002;
shapes = (
{
closed = 1;
nodes = (
(9,105,o),
(12,105,o),
(13,103,c),
(19,75,o),
(18,57,o),
(46,39,c),
(88,11,o),
(134,12,o),
(180,20,c),
(259,34,o),
(205,145,o),
(120,173,cs),
(111,176,o),
(96,179,o),
(86,177,c),
(81,174,o),
(64,156,o),
(55,147,c),
(51,144,o),
(41,141,o),
(42,143,c),
(55,150,o),
(69,171,o),
(69,177,c),
(58,175,o),
(50,169,o),
(43,163,cs),
(36,158,o),
(29,152,o),
(22,161,c),
(13,170,o),
(22,177,o),
(28,183,c),
(77,230,o),
(149,216,o),
(215,213,c),
(359,194,o),
(341,-24,o),
(109,0,c),
(56,8,o),
(16,24,o),
(2,74,c),
(-2,87,o),
(-1,94,o),
(8,104,c)
);
},
{
closed = 1;
nodes = (
(138,317,o),
(136,332,o),
(139,332,c),
(142,332,o),
(145,331,o),
(145,330,c),
(145,319,o),
(145,314,o),
(146,309,c),
(147,306,o),
(161,303,o),
(175,300,cs),
(192,296,o),
(211,292,o),
(227,290,cs),
(239,289,o),
(253,293,o),
(265,297,cs),
(275,301,o),
(285,300,o),
(285,288,cs),
(285,275,o),
(269,272,o),
(259,270,cs),
(188,252,o),
(104,216,o),
(31,264,c),
(15,275,o),
(5,289,o),
(8,301,c),
(19,349,o),
(71,335,o),
(110,320,cs),
(118,317,o),
(136,308,o),
(137,311,c)
);
}
);
width = 313;
}
);
unicode = 53;
},
{
glyphname = six;
lastChange = "2024-03-16 02:18:40 +0000";
layers = (
{
layerId = "CB2CB756-3A2A-4C94-93F3-FAA7C1CB72DF";
shapes = (
{
closed = 1;
nodes = (
(32,165,o),
(32,161,o),
(32,161,cs),
(30,156,o),
(-1,113,o),
(5,110,cs),
(10,107,o),
(31,119,o),
(44,120,c),
(79,123,o),
(103,118,o),
(122,101,c),
(165,51,o),
(250,5,o),
(295,95,c),
(345,191,o),
(226,211,o),
(106,162,c),
(88,157,ls),
(83,156,o),
(80,158,o),
(83,162,cs),
(99,190,o),
(333,254,o),
(329,139,c),
(324,79,o),
(268,34,o),
(196,13,c),
(105,-9,o),
(58,-9,o),
(-9,13,c),
(-15,15,o),
(-21,20,o),
(-20,29,cs),
(-18,49,o),
(-17,70,o),
(-12,93,cs),
(-10,101,o),
(27,157,o),
(30,163,cs)
);
},
{
closed = 1;
nodes = (
(380,244,o),
(297,248,o),
(290,266,cs),
(283,286,o),
(263,290,o),
(241,291,cs),
(203,292,o),
(156,273,o),
(110,239,c),
(90,224,o),
(46,175,o),
(35,164,c),
(29,174,o),
(37,181,o),
(44,190,c),
(70,220,o),
(98,248,o),
(130,271,c),
(132,273,o),
(135,275,o),
(140,278,cs),
(248,344,o),
(495,372,o),
(400,267,cs)
);
}
);
width = 421;
},
{
layerId = m002;
shapes = (
{
closed = 1;
nodes = (
(17,165,o),
(20,161,o),
(20,161,cs),
(21,156,o),
(17,113,o),
(25,110,cs),
(32,107,o),
(45,119,o),
(57,120,c),
(91,123,o),
(118,118,o),
(147,101,c),
(222,51,o),
(335,5,o),
(324,95,c),
(314,191,o),
(183,211,o),
(93,162,c),
(78,157,ls),
(74,156,o),
(70,158,o),
(70,162,cs),
(69,190,o),
(263,254,o),
(331,139,c),
(363,79,o),
(335,34,o),
(276,13,c),
(199,-9,o),
(152,-9,o),
(71,13,c),
(64,15,o),
(55,20,o),
(50,29,cs),
(40,49,o),
(28,70,o),
(18,93,cs),
(15,101,o),
(17,157,o),
(17,163,cs)
);
},
{
closed = 1;
nodes = (
(316,244,o),
(230,248,o),
(212,266,cs),
(193,286,o),
(170,290,o),
(148,291,cs),
(109,292,o),
(74,273,o),
(49,239,c),
(38,224,o),
(25,175,o),
(21,164,c),
(9,174,o),
(12,181,o),
(14,190,c),
(21,220,o),
(31,248,o),
(49,271,c),
(50,273,o),
(52,275,o),
(55,278,cs),
(121,344,o),
(351,372,o),
(322,267,cs)
);
}
);
width = 344;
}
);
unicode = 54;
},
{
glyphname = seven;
lastChange = "2024-03-15 02:37:11 +0000";
layers = (
{
layerId = "CB2CB756-3A2A-4C94-93F3-FAA7C1CB72DF";
shapes = (
{
closed = 1;
nodes = (
(141,252,o),
(79,246,o),
(37,258,cs),
(29,260,o),
(50,297,o),
(67,314,c),
(76,324,o),
(89,332,o),
(101,332,cs),
(207,335,o),
(148,308,o),
(223,290,c),
(256,281,o),
(269,297,o),
(299,319,cs),
(303,322,o),
(307,321,o),
(306,318,cs),
(305,311,o),
(296,305,o),
(293,300,c),
(291,297,o),
(290,294,o),
(293,293,cs),
(298,290,o),
(305,291,o),
(315,295,c),
(319,297,o),
(327,302,o),
(328,309,cs),
(329,320,ls),
(328,323,o),
(331,324,o),
(336,325,cs),
(344,326,o),
(348,326,o),
(349,324,c),
(352,318,o),
(346,308,o),
(338,299,cs),
(306,261,o),
(258,255,o),
(251,255,cs),
(223,255,o),
(122,47,o),
(89,18,c),
(48,-16,o),
(6,-1,o),
(25,34,c),
(44,68,o),
(151,188,o),
(179,216,cs),
(190,228,o),
(212,252,o),
(199,252,cs)
);
}
);
width = 350;
},
{
layerId = m002;
shapes = (
{
closed = 1;
nodes = (
(116,252,o),
(58,246,o),
(8,258,cs),
(-1,260,o),
(-3,297,o),
(3,314,c),
(6,324,o),
(14,332,o),
(26,332,cs),
(130,335,o),
(88,308,o),
(174,290,c),
(213,281,o),
(216,297,o),
(232,319,cs),
(234,322,o),
(239,321,o),
(240,318,cs),
(243,311,o),
(238,305,o),
(238,300,c),
(238,297,o),
(239,294,o),
(242,293,cs),
(249,290,o),
(256,291,o),
(263,295,c),
(266,297,o),
(271,302,o),
(267,309,cs),
(261,320,ls),
(259,323,o),
(261,324,o),
(265,325,cs),
(273,326,o),
(277,326,o),
(279,324,c),
(286,318,o),
(286,308,o),
(284,299,cs),
(275,261,o),
(231,255,o),
(224,255,cs),
(196,255,o),
(225,47,o),
(210,18,c),
(190,-16,o),
(139,-1,o),
(136,34,c),
(134,68,o),
(166,188,o),
(176,216,cs),
(180,228,o),
(187,252,o),
(174,252,cs)
);
}
);
width = 285;
}
);
unicode = 55;
},
{
glyphname = eight;
lastChange = "2024-03-15 02:37:19 +0000";
layers = (
{
layerId = "CB2CB756-3A2A-4C94-93F3-FAA7C1CB72DF";
shapes = (
{
closed = 1;
nodes = (
(148,5,o),
(183,17,o),
(221,39,cs),
(254,58,o),
(275,90,o),
(271,109,cs),
(265,134,o),
(253,154,o),
(219,156,cs),
(209,157,o),
(205,159,o),
(209,165,cs),
(214,174,o),
(275,192,o),
(292,201,cs),
(344,227,o),
(374,274,o),
(352,299,cs),
(319,341,o),
(228,346,o),
(138,294,cs),
(135,292,o),
(134,287,o),
(138,288,c),
(165,296,o),
(191,304,o),
(215,309,cs),
(270,320,o),
(310,313,o),
(335,285,cs),
(347,272,o),
(338,248,o),
(314,230,c),
(295,216,o),
(269,209,o),
(254,215,cs),
(223,228,o),
(161,268,o),
(112,254,c),
(96,248,o),
(79,239,o),
(64,223,c),
(47,202,o),
(59,190,o),
(70,180,c),
(132,143,o),
(185,179,o),
(228,147,cs),
(278,120,o),
(248,42,o),
(175,39,cs),
(137,39,o),
(108,53,o),
(92,74,cs),
(64,110,o),
(-10,118,o),
(-49,69,cs),
(-77,34,o),
(-48,12,o),
(-23,6,cs),
(17,-3,o),
(62,-6,o),
(112,0,cs)
);
},
{
closed = 1;
nodes = (
(35,129,o),
(53,137,o),
(66,144,cs),
(70,147,o),
(71,151,o),
(69,152,c),
(52,158,o),
(36,149,o),
(19,128,c),
(17,125,o),
(18,122,o),
(20,123,cs)
);
}
);
width = 359;
},
{
layerId = m002;
shapes = (
{
closed = 1;
nodes = (
(238,5,o),
(266,17,o),
(290,39,cs),
(311,58,o),
(312,90,o),
(296,109,cs),
(275,134,o),
(250,154,o),
(215,156,cs),
(204,157,o),
(199,159,o),
(199,165,cs),
(199,174,o),
(248,192,o),
(260,201,cs),
(296,227,o),
(296,274,o),
(259,299,cs),
(199,341,o),
(105,346,o),
(48,294,cs),
(46,292,o),
(48,287,o),
(51,288,c),
(73,296,o),
(94,304,o),
(115,309,cs),
(163,320,o),
(208,313,o),
(250,285,cs),
(270,272,o),
(276,248,o),
(264,230,c),
(253,216,o),
(232,209,o),
(213,215,cs),
(174,228,o),
(87,268,o),
(47,254,c),
(34,248,o),
(23,239,o),
(18,223,c),
(14,202,o),
(34,190,o),
(51,180,c),
(136,143,o),
(167,179,o),
(230,147,cs),
(296,120,o),
(315,42,o),
(244,39,cs),
(206,39,o),
(168,53,o),
(139,74,cs),
(89,110,o),
(10,118,o),
(1,69,cs),
(-5,34,o),
(38,12,o),
(67,6,cs),
(112,-3,o),
(159,-6,o),
(205,0,cs)
);
},
{
closed = 1;
nodes = (
(48,129,o),
(61,137,o),
(69,144,cs),
(72,147,o),
(70,151,o),
(67,152,c),
(47,158,o),
(36,149,o),
(32,128,c),
(32,125,o),
(35,122,o),
(37,123,cs)
);
}
);
width = 307;
}
);
unicode = 56;
},
{
glyphname = nine;
lastChange = "2024-03-15 04:02:15 +0000";
layers = (
{
layerId = "CB2CB756-3A2A-4C94-93F3-FAA7C1CB72DF";
shapes = (
{
closed = 1;
nodes = (
(355,201,o),
(350,201,o),
(348,201,cs),
(283,201,o),
(242,264,o),
(192,284,c),
(164,297,o),
(96,257,o),
(86,221,c),
(80,204,o),
(84,184,o),
(91,173,c),
(107,142,o),
(139,118,o),
(194,133,c),
(224,142,o),
(249,154,o),
(279,165,cs),
(285,167,o),
(303,168,o),
(298,165,c),
(95,41,o),
(-28,202,o),
(150,290,c),
(258,343,o),
(446,350,o),
(399,241,cs),
(318,53,o),
(138,-28,o),
(-4,0,c),
(-20,3,o),
(-25,33,o),
(-14,51,cs),
(-7,62,o),
(2,67,o),
(13,67,cs),
(45,67,o),
(77,67,o),
(102,56,cs),
(112,51,o),
(123,46,o),
(135,42,cs),
(177,28,o),
(249,57,o),
(296,108,cs),
(323,137,o),
(347,168,o),
(354,198,cs)
);
}
);
width = 406;
},
{
layerId = m002;
shapes = (
{
closed = 1;
nodes = (
(297,201,o),
(292,201,o),
(290,201,cs),
(225,201,o),
(144,264,o),
(82,284,c),
(46,297,o),
(3,257,o),
(15,221,c),
(20,204,o),
(36,184,o),
(50,173,c),
(86,142,o),
(133,118,o),
(178,133,c),
(203,142,o),
(220,154,o),
(243,165,cs),
(248,167,o),
(265,168,o),
(262,165,c),
(137,41,o),
(-87,202,o),
(36,290,c),
(111,343,o),
(295,350,o),
(316,241,cs),
(352,53,o),
(223,-28,o),
(63,0,c),
(46,3,o),
(22,33,o),
(22,51,cs),
(22,62,o),
(28,67,o),
(39,67,cs),
(71,67,o),
(103,67,o),
(134,56,cs),
(148,51,o),
(162,46,o),
(176,42,cs),
(227,28,o),
(281,57,o),
(296,108,cs),
(305,137,o),
(309,168,o),
(298,198,cs)
);
}
);
width = 322;
}
);
unicode = 57;
},
{
glyphname = period;
lastChange = "2024-03-15 03:07:37 +0000";
layers = (
{
layerId = m002;
shapes = (
{
closed = 1;
nodes = (
(59,0,o),
(33,16,o),
(27,31,cs),
(19,50,o),
(28,65,o),
(41,78,c),
(53,89,o),
(67,92,o),
(78,79,cs),
(92,64,o),
(105,47,o),
(117,30,cs),
(125,18,o),
(120,8,o),
(106,5,cs),
(97,3,o),
(87,0,o),
(73,0,cs)
);
}
);
width = 145;
},
{
layerId = "CB2CB756-3A2A-4C94-93F3-FAA7C1CB72DF";
shapes = (
{
closed = 1;
nodes = (
(37,0,o),
(21,16,o),
(24,31,cs),
(28,50,o),
(46,65,o),
(67,78,c),
(86,89,o),
(102,92,o),
(105,79,cs),
(110,64,o),
(112,47,o),
(113,30,cs),
(114,18,o),
(103,8,o),
(87,5,cs),
(76,3,o),
(65,0,o),
(51,0,cs)
);
}
);
width = 125;
}
);
unicode = 46;
},
{
glyphname = comma;
lastChange = "2024-03-15 02:58:03 +0000";
layers = (
{
layerId = m002;
shapes = (
{
closed = 1;
nodes = (
(87,0,o),
(117,3,o),
(147,4,c),
(152,5,o),
(157,11,o),
(156,17,c),
(145,64,o),
(99,104,o),
(63,101,c),
(38,98,o),
(12,65,o),
(12,38,c),
(13,6,o),
(35,0,o),
(59,0,c)
);
},
{
closed = 1;
nodes = (
(77,-102,o),
(142,-74,o),
(153,-30,cs),
(154,-26,o),
(142,-31,o),
(140,-36,cs),
(133,-49,o),
(101,-81,o),
(30,-74,c),
(25,-73,o),
(21,-81,o),
(25,-83,cs)
);
}
);
width = 168;
},
{
layerId = "CB2CB756-3A2A-4C94-93F3-FAA7C1CB72DF";
shapes = (
{
closed = 1;
nodes = (
(91,0,o),
(122,3,o),
(153,4,c),
(159,5,o),
(167,11,o),
(170,17,c),
(189,64,o),
(168,104,o),
(130,101,c),
(103,98,o),
(56,65,o),
(39,38,c),
(20,6,o),
(39,0,o),
(63,0,c)
);
},
{
closed = 1;
nodes = (
(17,-102,o),
(99,-74,o),
(138,-30,cs),
(141,-26,o),
(126,-31,o),
(121,-36,cs),
(106,-49,o),
(54,-81,o),
(-13,-74,c),
(-17,-73,o),
(-26,-81,o),
(-23,-83,cs)
);
}
);
width = 177;
}
);
unicode = 44;
},
{
glyphname = colon;
lastChange = "2024-03-16 02:29:53 +0000";
layers = (
{
layerId = m002;
shapes = (
{
closed = 1;
nodes = (
(168,3,o),
(154,0,cs),
(121,-7,o),
(77,-9,o),
(43,11,cs),
(24,23,o),
(10,48,o),
(16,70,cs),
(18,78,o),
(26,89,o),
(32,92,cs),
(74,114,o),
(149,78,o),
(162,33,cs),
(164,24,o)
);
},
{
closed = 1;
nodes = (
(120,133,o),
(80,134,o),
(41,138,cs),
(-6,143,o),
(10,222,o),
(53,242,cs),
(81,255,o),
(164,172,o),
(164,141,c),
(164,137,o),
(163,131,o),
(160,131,c)
);
}
);
width = 176;
},
{
layerId = "CB2CB756-3A2A-4C94-93F3-FAA7C1CB72DF";
shapes = (
{
closed = 1;
nodes = (
(91,3,o),
(76,0,cs),
(38,-7,o),
(-7,-9,o),
(-29,11,cs),
(-40,23,o),
(-38,48,o),
(-19,70,cs),
(-12,78,o),
(3,89,o),
(11,92,cs),
(67,114,o),
(119,78,o),
(104,33,cs),
(101,24,o)
);
},
{
closed = 1;
nodes = (
(125,133,o),
(85,134,o),
(49,138,cs),
(5,143,o),
(70,222,o),
(126,242,cs),
(162,255,o),
(193,172,o),
(174,141,c),
(171,137,o),
(166,131,o),
(163,131,c)
);
}
);
width = 144;
}
);
unicode = 58;
},
{
glyphname = semicolon;
lastChange = "2024-03-15 02:57:47 +0000";
layers = (
{
layerId = m002;
shapes = (
{
closed = 1;
nodes = (
(71,107,o),
(71,101,o),
(73,101,cs),
(142,101,o),
(178,35,o),
(157,-32,c),
(153,-47,o),
(137,-63,o),
(121,-70,cs),
(90,-85,o),
(55,-85,o),
(17,-77,c),
(19,-68,o),
(23,-62,o),
(30,-63,cs),
(62,-68,o),
(131,-75,o),
(145,-13,c),
(148,0,o),
(132,16,o),
(110,4,c),
(86,-9,o),
(64,-6,o),
(41,6,cs),
(-5,31,o),
(14,84,o),
(42,95,c),
(48,97,o),
(55,97,o),
(60,100,cs),
(63,102,o),
(64,119,o),
(61,122,c),
(25,152,o),
(-2,182,o),
(20,223,c),
(29,238,o),
(50,243,o),
(74,235,cs),
(120,220,o),
(198,150,o),
(151,138,c),
(111,128,o),
(90,149,o),
(73,112,c)
);
}
);
width = 178;
},
{
layerId = "CB2CB756-3A2A-4C94-93F3-FAA7C1CB72DF";
shapes = (
{
closed = 1;
nodes = (
(133,107,o),
(130,101,o),
(132,101,cs),
(201,101,o),
(195,35,o),
(133,-32,c),
(119,-47,o),
(93,-63,o),
(73,-70,cs),
(32,-85,o),
(-3,-85,o),
(-36,-77,c),
(-28,-68,o),
(-20,-62,o),
(-14,-63,cs),
(15,-68,o),
(80,-75,o),
(132,-13,c),
(144,0,o),
(138,16,o),
(108,4,c),
(76,-9,o),
(56,-6,o),
(40,6,cs),
(10,31,o),
(62,84,o),
(97,95,c),
(104,97,o),
(111,97,o),
(118,100,cs),
(122,102,o),
(134,119,o),
(133,122,c),
(116,152,o),
(107,182,o),
(155,223,c),
(173,238,o),
(197,243,o),
(216,235,cs),
(253,220,o),
(287,150,o),
(233,138,c),
(187,128,o),
(179,149,o),
(139,112,c)
);
}
);
width = 225;
}
);
unicode = 59;
},
{
glyphname = exclam;
lastChange = "2024-03-16 02:49:46 +0000";
layers = (
{
layerId = m002;
shapes = (
{
closed = 1;
nodes = (
(35,394,o),
(35,451,c),
(35,472,o),
(40,476,o),
(59,476,c),
(76,476,o),
(82,472,o),
(81,451,c),
(76,346,o),
(71,240,o),
(65,134,c),
(65,125,o),
(64,114,o),
(64,104,c),
(64,94,o),
(60,90,o),
(52,90,cs),
(43,90,o),
(36,93,o),
(36,104,c),
(36,124,o),
(36,244,o),
(36,283,c),
(36,283,o)
);
},
{
closed = 1;
nodes = (
(21,-8,o),
(13,30,cs),
(11,41,o),
(13,58,o),
(19,61,cs),
(59,77,o),
(119,14,o),
(85,5,cs),
(62,1,o)
);
}
);
width = 95;
},
{
layerId = "CB2CB756-3A2A-4C94-93F3-FAA7C1CB72DF";
shapes = (
{
closed = 1;
nodes = (
(202,394,o),
(239,451,c),
(253,472,o),
(261,476,o),
(280,476,c),
(297,476,o),
(300,472,o),
(285,451,c),
(212,346,o),
(138,240,o),
(63,134,c),
(58,125,o),
(49,114,o),
(43,104,c),
(36,94,o),
(30,90,o),
(22,90,cs),
(13,90,o),
(8,93,o),
(15,104,c),
(28,124,o),
(106,244,o),
(131,283,c),
(131,283,o)
);
},
{
closed = 1;
nodes = (
(-73,-8,o),
(-56,30,cs),
(-51,41,o),
(-38,58,o),
(-30,61,cs),
(20,77,o),
(40,14,o),
(0,5,cs),
(-26,1,o)
);
}
);
width = 235;
}
);
unicode = 33;
},
{
glyphname = question;
lastChange = "2024-03-16 02:53:20 +0000";
layers = (
{
layerId = m002;
shapes = (
{
closed = 1;
nodes = (
(107,100,l),
(104,101,o),
(128,180,o),
(184,235,cs),
(320,369,o),
(102,520,o),
(33,395,cs),
(17,367,o),
(6,334,o),
(26,300,c),
(29,295,o),
(20,284,o),
(12,290,cs),
(-8,306,o),
(-8,400,o),
(55,452,c),
(103,491,o),
(189,489,o),
(233,475,c),
(279,460,o),
(339,390,o),
(277,307,cs),
(253,274,o),
(229,251,o),
(200,224,c),
(157,184,o),
(139,151,o),
(117,96,c)
);
},
{
closed = 1;
nodes = (
(113,3,o),
(95,6,cs),
(66,12,o),
(63,53,o),
(81,66,cs),
(112,90,o),
(147,61,o),
(164,35,c),
(168,28,o),
(175,20,o),
(172,11,cs),
(167,-4,o)
);
}
);
width = 268;
},
{
layerId = "CB2CB756-3A2A-4C94-93F3-FAA7C1CB72DF";
shapes = (
{
closed = 1;
nodes = (
(22,100,l),
(20,101,o),
(93,180,o),
(183,235,cs),
(403,369,o),
(280,520,o),
(132,395,cs),
(99,367,o),
(67,334,o),
(66,300,c),
(66,295,o),
(50,284,o),
(46,290,cs),
(36,306,o),
(95,400,o),
(190,452,c),
(262,491,o),
(347,489,o),
(382,475,c),
(419,460,o),
(435,390,o),
(321,307,cs),
(277,274,o),
(238,251,o),
(193,224,c),
(125,184,o),
(86,151,o),
(30,96,c)
);
},
{
closed = 1;
nodes = (
(-33,3,o),
(-49,6,cs),
(-74,12,o),
(-51,53,o),
(-25,66,cs),
(21,90,o),
(38,61,o),
(38,35,c),
(38,28,o),
(40,20,o),
(31,11,cs),
(17,-4,o)
);
}
);
width = 289;
}
);
unicode = 63;
},
{
glyphname = hyphen;
lastChange = "2024-03-16 02:53:07 +0000";
layers = (
{
layerId = m002;
shapes = (
{
closed = 1;
nodes = (
(55,42,o),
(12,50,c),
(1,54,o),
(0,57,o),
(0,77,c),
(0,97,o),
(1,101,o),
(13,100,c),
(29,98,o),
(169,81,o),
(222,75,c),
(236,72,o),
(239,76,o),
(239,63,c),
(239,49,o),
(234,46,o),
(227,46,c),
(193,46,o)
);
}
);
width = 264;
},
{
layerId = "CB2CB756-3A2A-4C94-93F3-FAA7C1CB72DF";
shapes = (
{
closed = 1;
nodes = (
(-4,42,o),
(-42,50,c),
(-51,54,o),
(-50,57,o),
(-38,77,c),
(-25,97,o),
(-22,101,o),
(-10,100,c),
(5,98,o),
(134,81,o),
(183,75,c),
(195,72,o),
(201,76,o),
(193,63,c),
(184,49,o),
(177,46,o),
(170,46,c),
(136,46,o)
);
}
);
width = 197;
}
);
unicode = 45;
},
{
glyphname = quotesingle;
lastChange = "2024-03-16 02:29:42 +0000";
layers = (
{
layerId = m002;
shapes = (
{
closed = 1;
nodes = (
(24,732,o),
(132,711,o),
(150,626,cs),
(156,602,o),
(145,588,o),
(120,595,c),
(72,607,o),
(12,597,o),
(12,645,c)
);
},
{
closed = 1;
nodes = (
(72,504,o),
(137,532,o),
(148,576,cs),
(149,580,o),
(137,575,o),
(135,570,cs),
(128,557,o),
(96,525,o),
(25,532,c),
(20,533,o),
(16,525,o),
(20,523,cs)
);
}
);
width = 164;
},
{
layerId = "CB2CB756-3A2A-4C94-93F3-FAA7C1CB72DF";
shapes = (
{
closed = 1;
nodes = (
(135,732,o),
(230,711,o),
(195,626,cs),
(186,602,o),
(166,588,o),
(145,595,c),
(105,607,o),
(39,597,o),
(69,645,c)
);
},
{
closed = 1;
nodes = (
(41,504,o),
(123,532,o),
(162,576,cs),
(165,580,o),
(150,575,o),
(145,570,cs),
(130,557,o),
(78,525,o),
(11,532,c),
(7,533,o),
(-2,525,o),
(0,523,cs)
);
}
);
width = 203;
}
);
unicode = 39;
},
{
glyphname = ampersand;
lastChange = "2024-03-16 02:52:25 +0000";
layers = (
{
layerId = m002;
shapes = (
{
closed = 1;
nodes = (
(236,432,o),
(244,439,o),
(250,449,cs),
(284,510,o),
(286,573,o),
(268,637,c),
(246,691,o),
(206,652,o),
(206,558,c),
(206,532,o),
(214,505,o),
(219,480,c),
(222,467,o),
(225,451,o),
(232,439,c)
);
},
{
closed = 1;
nodes = (
(208,351,o),
(204,351,o),
(202,348,cs),
(175,314,o),
(109,233,o),
(66,176,cs),
(62,170,o),
(64,162,o),
(72,161,c),
(277,133,ls),
(285,132,o),
(291,139,o),
(289,146,cs),
(259,216,o),
(236,283,o),
(210,347,cs)
);
},
{
closed = 1;
nodes = (
(552,241,o),
(517,193,o),
(485,156,c),
(472,142,o),
(474,132,o),
(486,123,cs),
(539,83,o),
(592,37,o),
(658,24,cs),
(686,19,o),
(694,0,o),
(655,0,c),
(584,0,o),
(513,0,o),
(442,0,c),
(416,0,o),
(393,7,o),
(376,30,c),
(364,48,o),
(346,45,o),
(330,36,c),
(258,-4,o),
(102,-16,o),
(35,32,c),
(-2,59,o),
(-11,95,o),
(13,133,c),
(50,189,o),
(177,342,o),
(192,368,c),
(200,380,o),
(203,402,o),
(199,416,cs),
(177,489,o),
(165,646,o),
(242,700,cs),
(322,756,o),
(374,638,o),
(327,537,c),
(309,501,o),
(289,467,o),
(265,434,c),
(251,416,o),
(251,399,o),
(262,385,c),
(303,326,o),
(344,268,o),
(389,212,c),
(412,184,o),
(426,186,o),
(458,206,c),
(479,220,o),
(498,235,o),
(517,251,c),
(534,265,o),
(550,283,o),
(567,298,c),
(569,300,o),
(577,297,o),
(576,294,cs)
);
}
);
width = 682;
},
{
layerId = "CB2CB756-3A2A-4C94-93F3-FAA7C1CB72DF";
shapes = (
{
closed = 1;
nodes = (
(400,432,o),
(412,439,o),
(424,449,cs),
(496,510,o),
(538,573,o),
(560,637,c),
(571,691,o),
(507,652,o),
(448,558,c),
(432,532,o),
(423,505,o),
(413,480,c),
(407,467,o),
(400,451,o),
(400,439,c)
);
},
{
closed = 1;
nodes = (
(321,351,o),
(317,351,o),
(313,348,cs),
(265,314,o),
(148,233,o),
(70,176,cs),
(62,170,o),
(59,162,o),
(66,161,c),
(254,133,ls),
(261,132,o),
(271,139,o),
(274,146,cs),
(288,216,o),
(306,283,o),
(320,347,cs)
);
},
{
closed = 1;
nodes = (
(596,241,o),
(531,193,o),
(476,156,c),
(454,142,o),
(450,132,o),
(456,123,cs),
(484,83,o),
(509,37,o),
(567,24,cs),
(591,19,o),
(588,0,o),
(549,0,c),
(478,0,o),
(407,0,o),
(336,0,c),
(310,0,o),
(291,7,o),
(288,30,c),
(288,48,o),
(268,45,o),
(246,36,c),
(149,-4,o),
(-14,-16,o),
(-51,32,c),
(-72,59,o),
(-58,95,o),
(-10,133,c),
(62,189,o),
(284,342,o),
(316,368,c),
(331,380,o),
(348,402,o),
(353,416,cs),
(376,489,o),
(462,646,o),
(573,700,cs),
(688,756,o),
(666,638,o),
(556,537,c),
(516,501,o),
(474,467,o),
(430,434,c),
(405,416,o),
(394,399,o),
(396,385,c),
(400,326,o),
(405,268,o),
(415,212,c),
(421,184,o),
(436,186,o),
(480,206,c),
(510,220,o),
(538,235,o),
(567,251,c),
(593,265,o),
(620,283,o),
(647,298,c),
(650,300,o),
(656,297,o),
(653,294,cs)
);
}
);
width = 654;
}
);
unicode = 38;
},
{
glyphname = dollar;
lastChange = "2024-03-16 02:50:57 +0000";
layers = (
{
layerId = m002;
shapes = (
{
closed = 1;
nodes = (
(198,8,o),
(237,51,o),
(237,75,cs),
(237,104,o),
(196,138,o),
(196,121,cs),
(196,103,o),
(198,36,o),
(198,28,cs)
);
},
{
closed = 1;
nodes = (
(147,210,l),
(170,210,l),
(170,306,l),
(147,310,l)
);
},
{
closed = 1;
nodes = (
(173,122,o),
(170,125,cs),
(168,130,o),
(147,130,o),
(147,122,c),
(147,22,l),
(174,22,l),
(174,53,o)
);
},
{
closed = 1;
nodes = (
(129,312,l),
(79,313,o),
(34,284,o),
(5,250,cs),
(4,249,o),
(2,249,o),
(0,250,c),
(0,283,o),
(51,323,o),
(129,341,c),
(133,371,o),
(130,425,o),
(130,453,c),
(133,463,o),
(145,463,o),
(146,453,c),
(147,428,o),
(147,372,o),
(147,343,c),
(174,343,l),
(175,388,o),
(174,416,o),
(175,454,c),
(177,463,o),
(186,461,o),
(186,454,cs),
(191,416,o),
(190,381,o),
(192,342,c),
(227,341,o),
(299,303,o),
(316,276,cs),
(330,260,o),
(327,249,o),
(314,236,cs),
(299,221,o),
(268,199,o),
(260,226,cs),
(251,255,o),
(248,292,o),
(196,302,c),
(196,209,l),
(243,202,o),
(316,196,o),
(332,136,c),
(350,60,o),
(275,19,o),
(206,3,c),
(206,-148,l),
(206,-153,o),
(204,-157,o),
(199,-157,c),
(182,-157,l),
(176,-157,o),
(174,-153,o),
(174,-147,c),
(174,0,l),
(147,0,l),
(145,-146,l),
(145,-151,o),
(142,-157,o),
(137,-157,c),
(129,-157,o),
(126,-157,o),
(118,-157,c),
(115,-157,o),
(109,-153,o),
(109,-147,c),
(109,-126,o),
(109,-104,o),
(109,-86,c),
(109,-63,o),
(110,-39,o),
(110,-16,c),
(110,21,o),
(54,8,o),
(18,47,c),
(-23,98,o),
(16,136,o),
(51,141,c),
(69,141,o),
(74,121,o),
(70,112,cs),
(55,79,o),
(55,46,o),
(87,31,c),
(90,30,o),
(111,21,o),
(115,27,cs),
(116,31,o),
(117,94,o),
(117,121,c),
(118,138,o),
(110,150,o),
(92,155,c),
(59,164,o),
(30,179,o),
(8,208,c),
(6,214,o),
(-5,234,o),
(4,230,cs),
(39,210,o),
(83,197,o),
(127,209,c)
);
}
);
width = 335;
},
{
layerId = "CB2CB756-3A2A-4C94-93F3-FAA7C1CB72DF";
shapes = (
{
closed = 1;
nodes = (
(188,8,o),
(253,51,o),
(268,75,cs),
(287,104,o),
(267,138,o),
(256,121,cs),
(245,103,o),
(205,36,o),
(200,28,cs)
);
},
{
closed = 1;
nodes = (
(263,210,l),
(286,210,l),
(346,306,l),
(325,310,l)
);
},
{
closed = 1;
nodes = (
(234,122,o),
(233,125,cs),
(234,130,o),
(213,130,o),
(208,122,c),
(145,22,l),
(172,22,l),
(192,53,o)
);
},
{
closed = 1;
nodes = (
(309,312,l),
(259,313,o),
(196,284,o),
(146,250,cs),
(144,249,o),
(142,249,o),
(141,250,c),
(161,283,o),
(237,323,o),
(327,341,c),
(349,371,o),
(380,425,o),
(398,453,c),
(407,463,o),
(419,463,o),
(414,453,c),
(399,428,o),
(364,372,o),
(346,343,c),
(373,343,l),
(402,388,o),
(419,416,o),
(443,454,c),
(451,463,o),
(459,461,o),
(454,454,cs),
(436,416,o),
(413,381,o),
(390,342,c),
(425,341,o),
(473,303,o),
(473,276,cs),
(477,260,o),
(467,249,o),
(446,236,cs),
(422,221,o),
(377,199,o),
(386,226,cs),
(395,255,o),
(415,292,o),
(369,302,c),
(311,209,l),
(354,202,o),
(423,196,o),
(402,136,c),
(372,60,o),
(271,19,o),
(192,3,c),
(98,-148,l),
(95,-153,o),
(90,-157,o),
(85,-157,c),
(68,-157,l),
(62,-157,o),
(63,-153,o),
(67,-147,c),
(159,0,l),
(132,0,l),
(38,-146,l),
(35,-151,o),
(28,-157,o),
(23,-157,c),
(15,-157,o),
(12,-157,o),
(4,-157,c),
(1,-157,o),
(-2,-153,o),
(2,-147,c),
(15,-126,o),
(29,-104,o),
(40,-86,c),
(54,-63,o),
(70,-39,o),
(85,-16,c),
(108,21,o),
(44,8,o),
(32,47,c),
(23,98,o),
(86,136,o),
(124,141,c),
(142,141,o),
(134,121,o),
(125,112,cs),
(89,79,o),
(68,46,o),
(91,31,c),
(93,30,o),
(109,21,o),
(116,27,cs),
(120,31,o),
(160,94,o),
(177,121,c),
(189,138,o),
(188,150,o),
(173,155,c),
(146,164,o),
(126,179,o),
(123,208,c),
(124,214,o),
(126,234,o),
(132,230,cs),
(155,210,o),
(191,197,o),
(242,209,c)
);
}
);
width = 474;
}
);
unicode = 36;
},
{
glyphname = equal;
lastChange = "2024-03-15 03:02:31 +0000";
layers = (
{
layerId = m002;
shapes = (
{
closed = 1;
nodes = (
(155,91,o),
(203,86,c),
(213,85,o),
(232,84,o),
(223,77,cs),
(219,74,o),
(210,65,o),
(203,65,c),
(192,64,o),
(84,68,o),
(41,69,c),
(23,69,o),
(-11,76,o),
(4,87,cs),
(22,100,ls),
(23,101,o)
);
},
{
closed = 1;
nodes = (
(45,40,o),
(160,24,o),
(197,19,c),
(203,18,o),
(223,17,o),
(218,7,cs),
(213,-1,o),
(213,0,o),
(195,0,cs),
(142,0,o),
(90,2,o),
(39,4,c),
(16,5,o),
(1,45,o),
(10,44,cs)
);
}
